<?xml version="1.0" encoding="utf-8" standalone="no"?>
<!DOCTYPE svg PUBLIC "-//W3C//DTD SVG 1.1//EN"
  "http://www.w3.org/Graphics/SVG/1.1/DTD/svg11.dtd">
<svg xmlns:xlink="http://www.w3.org/1999/xlink" width="460.8pt" height="345.6pt" viewBox="0 0 460.8 345.6" xmlns="http://www.w3.org/2000/svg" version="1.1">
 <metadata>
  <rdf:RDF xmlns:dc="http://purl.org/dc/elements/1.1/" xmlns:cc="http://creativecommons.org/ns#" xmlns:rdf="http://www.w3.org/1999/02/22-rdf-syntax-ns#">
   <cc:Work>
    <dc:type rdf:resource="http://purl.org/dc/dcmitype/StillImage"/>
    <dc:date>2024-05-22T16:26:19.223465</dc:date>
    <dc:format>image/svg+xml</dc:format>
    <dc:creator>
     <cc:Agent>
      <dc:title>Matplotlib v3.8.4, https://matplotlib.org/</dc:title>
     </cc:Agent>
    </dc:creator>
   </cc:Work>
  </rdf:RDF>
 </metadata>
 <defs>
  <style type="text/css">*{stroke-linejoin: round; stroke-linecap: butt}</style>
 </defs>
 <g id="figure_1">
  <g id="patch_1">
   <path d="M 0 345.6 
L 460.8 345.6 
L 460.8 0 
L 0 0 
L 0 345.6 
z
" style="fill: none"/>
  </g>
  <g id="axes_1">
   <g id="patch_2">
    <path d="M 44.57 303.64 
L 413.08 303.64 
L 413.08 10.8 
L 44.57 10.8 
L 44.57 303.64 
z
" style="fill: none"/>
   </g>
   <g id="patch_3">
    <path d="M 61.320455 303.64 
L 100.733289 303.64 
L 100.733289 104.511276 
L 61.320455 104.511276 
z
" clip-path="url(#pd8e441afd1)" style="fill: #ff0000"/>
   </g>
   <g id="patch_4">
    <path d="M 110.586497 303.64 
L 149.999332 303.64 
L 149.999332 72.74075 
L 110.586497 72.74075 
z
" clip-path="url(#pd8e441afd1)" style="fill: #ff0000"/>
   </g>
   <g id="patch_5">
    <path d="M 159.85254 303.64 
L 199.265374 303.64 
L 199.265374 62.653177 
L 159.85254 62.653177 
z
" clip-path="url(#pd8e441afd1)" style="fill: #ff0000"/>
   </g>
   <g id="patch_6">
    <path d="M 209.118583 303.64 
L 248.531417 303.64 
L 248.531417 254.76413 
L 209.118583 254.76413 
z
" clip-path="url(#pd8e441afd1)" style="fill: #ff0000"/>
   </g>
   <g id="patch_7">
    <path d="M 258.384626 303.64 
L 297.79746 303.64 
L 297.79746 271.286766 
L 258.384626 271.286766 
z
" clip-path="url(#pd8e441afd1)" style="fill: #ff0000"/>
   </g>
   <g id="patch_8">
    <path d="M 307.650668 303.64 
L 347.063503 303.64 
L 347.063503 271.775105 
L 307.650668 271.775105 
z
" clip-path="url(#pd8e441afd1)" style="fill: #ff0000"/>
   </g>
   <g id="patch_9">
    <path d="M 356.916711 303.64 
L 396.329545 303.64 
L 396.329545 277.342799 
L 356.916711 277.342799 
z
" clip-path="url(#pd8e441afd1)" style="fill: #ff0000"/>
   </g>
   <g id="patch_10">
    <path d="M 61.320455 104.511276 
L 100.733289 104.511276 
L 100.733289 78.114177 
L 61.320455 78.114177 
z
" clip-path="url(#pd8e441afd1)" style="fill: #0000ff"/>
   </g>
   <g id="patch_11">
    <path d="M 110.586497 72.74075 
L 149.999332 72.74075 
L 149.999332 40.578296 
L 110.586497 40.578296 
z
" clip-path="url(#pd8e441afd1)" style="fill: #0000ff"/>
   </g>
   <g id="patch_12">
    <path d="M 159.85254 62.653177 
L 199.265374 62.653177 
L 199.265374 27.353287 
L 159.85254 27.353287 
z
" clip-path="url(#pd8e441afd1)" style="fill: #0000ff"/>
   </g>
   <g id="patch_13">
    <path d="M 209.118583 254.76413 
L 248.531417 254.76413 
L 248.531417 219.88397 
L 209.118583 219.88397 
z
" clip-path="url(#pd8e441afd1)" style="fill: #0000ff"/>
   </g>
   <g id="patch_14">
    <path d="M 258.384626 271.286766 
L 297.79746 271.286766 
L 297.79746 225.478771 
L 258.384626 225.478771 
z
" clip-path="url(#pd8e441afd1)" style="fill: #0000ff"/>
   </g>
   <g id="patch_15">
    <path d="M 307.650668 271.775105 
L 347.063503 271.775105 
L 347.063503 234.762064 
L 307.650668 234.762064 
z
" clip-path="url(#pd8e441afd1)" style="fill: #0000ff"/>
   </g>
   <g id="patch_16">
    <path d="M 356.916711 277.342799 
L 396.329545 277.342799 
L 396.329545 240.391225 
L 356.916711 240.391225 
z
" clip-path="url(#pd8e441afd1)" style="fill: #0000ff"/>
   </g>
   <g id="patch_17">
    <path d="M 179.558957 303.64 
L 179.558957 10.8 
L 228.825 10.8 
L 228.825 303.64 
z
" clip-path="url(#pd8e441afd1)" style="fill: #808080; opacity: 0.25; stroke: #808080; stroke-linejoin: miter"/>
   </g>
   <g id="patch_18">
    <path d="M 278.091043 303.64 
L 278.091043 10.8 
L 327.357086 10.8 
L 327.357086 303.64 
z
" clip-path="url(#pd8e441afd1)" style="fill: #808080; opacity: 0.25; stroke: #808080; stroke-linejoin: miter"/>
   </g>
   <g id="matplotlib.axis_1">
    <g id="xtick_1">
     <g id="line2d_1">
      <defs>
       <path id="m4623357c3c" d="M 0 0 
L 0 3.5 
" style="stroke: #000000; stroke-width: 0.8"/>
      </defs>
      <g>
       <use xlink:href="#m4623357c3c" x="81.026872" y="303.64" style="stroke: #000000; stroke-width: 0.8"/>
      </g>
     </g>
     <g id="text_1">
      <!-- 5 -->
      <g transform="translate(77.845622 318.238437) scale(0.1 -0.1)">
       <defs>
        <path id="DejaVuSans-35" d="M 691 4666 
L 3169 4666 
L 3169 4134 
L 1269 4134 
L 1269 2991 
Q 1406 3038 1543 3061 
Q 1681 3084 1819 3084 
Q 2600 3084 3056 2656 
Q 3513 2228 3513 1497 
Q 3513 744 3044 326 
Q 2575 -91 1722 -91 
Q 1428 -91 1123 -41 
Q 819 9 494 109 
L 494 744 
Q 775 591 1075 516 
Q 1375 441 1709 441 
Q 2250 441 2565 725 
Q 2881 1009 2881 1497 
Q 2881 1984 2565 2268 
Q 2250 2553 1709 2553 
Q 1456 2553 1204 2497 
Q 953 2441 691 2322 
L 691 4666 
z
" transform="scale(0.015625)"/>
       </defs>
       <use xlink:href="#DejaVuSans-35"/>
      </g>
     </g>
    </g>
    <g id="xtick_2">
     <g id="line2d_2">
      <g>
       <use xlink:href="#m4623357c3c" x="130.292914" y="303.64" style="stroke: #000000; stroke-width: 0.8"/>
      </g>
     </g>
     <g id="text_2">
      <!-- 5.4 -->
      <g transform="translate(122.341352 318.238437) scale(0.1 -0.1)">
       <defs>
        <path id="DejaVuSans-2e" d="M 684 794 
L 1344 794 
L 1344 0 
L 684 0 
L 684 794 
z
" transform="scale(0.015625)"/>
        <path id="DejaVuSans-34" d="M 2419 4116 
L 825 1625 
L 2419 1625 
L 2419 4116 
z
M 2253 4666 
L 3047 4666 
L 3047 1625 
L 3713 1625 
L 3713 1100 
L 3047 1100 
L 3047 0 
L 2419 0 
L 2419 1100 
L 313 1100 
L 313 1709 
L 2253 4666 
z
" transform="scale(0.015625)"/>
       </defs>
       <use xlink:href="#DejaVuSans-35"/>
       <use xlink:href="#DejaVuSans-2e" x="63.623047"/>
       <use xlink:href="#DejaVuSans-34" x="95.410156"/>
      </g>
     </g>
    </g>
    <g id="xtick_3">
     <g id="line2d_3">
      <g>
       <use xlink:href="#m4623357c3c" x="179.558957" y="303.64" style="stroke: #000000; stroke-width: 0.8"/>
      </g>
     </g>
     <g id="text_3">
      <!-- 7 -->
      <g transform="translate(176.377707 318.238437) scale(0.1 -0.1)">
       <defs>
        <path id="DejaVuSans-37" d="M 525 4666 
L 3525 4666 
L 3525 4397 
L 1831 0 
L 1172 0 
L 2766 4134 
L 525 4134 
L 525 4666 
z
" transform="scale(0.015625)"/>
       </defs>
       <use xlink:href="#DejaVuSans-37"/>
      </g>
     </g>
    </g>
    <g id="xtick_4">
     <g id="line2d_4">
      <g>
       <use xlink:href="#m4623357c3c" x="228.825" y="303.64" style="stroke: #000000; stroke-width: 0.8"/>
      </g>
     </g>
     <g id="text_4">
      <!-- 8 -->
      <g transform="translate(225.64375 318.238437) scale(0.1 -0.1)">
       <defs>
        <path id="DejaVuSans-38" d="M 2034 2216 
Q 1584 2216 1326 1975 
Q 1069 1734 1069 1313 
Q 1069 891 1326 650 
Q 1584 409 2034 409 
Q 2484 409 2743 651 
Q 3003 894 3003 1313 
Q 3003 1734 2745 1975 
Q 2488 2216 2034 2216 
z
M 1403 2484 
Q 997 2584 770 2862 
Q 544 3141 544 3541 
Q 544 4100 942 4425 
Q 1341 4750 2034 4750 
Q 2731 4750 3128 4425 
Q 3525 4100 3525 3541 
Q 3525 3141 3298 2862 
Q 3072 2584 2669 2484 
Q 3125 2378 3379 2068 
Q 3634 1759 3634 1313 
Q 3634 634 3220 271 
Q 2806 -91 2034 -91 
Q 1263 -91 848 271 
Q 434 634 434 1313 
Q 434 1759 690 2068 
Q 947 2378 1403 2484 
z
M 1172 3481 
Q 1172 3119 1398 2916 
Q 1625 2713 2034 2713 
Q 2441 2713 2670 2916 
Q 2900 3119 2900 3481 
Q 2900 3844 2670 4047 
Q 2441 4250 2034 4250 
Q 1625 4250 1398 4047 
Q 1172 3844 1172 3481 
z
" transform="scale(0.015625)"/>
       </defs>
       <use xlink:href="#DejaVuSans-38"/>
      </g>
     </g>
    </g>
    <g id="xtick_5">
     <g id="line2d_5">
      <g>
       <use xlink:href="#m4623357c3c" x="278.091043" y="303.64" style="stroke: #000000; stroke-width: 0.8"/>
      </g>
     </g>
     <g id="text_5">
      <!-- 10 -->
      <g transform="translate(271.728543 318.238437) scale(0.1 -0.1)">
       <defs>
        <path id="DejaVuSans-31" d="M 794 531 
L 1825 531 
L 1825 4091 
L 703 3866 
L 703 4441 
L 1819 4666 
L 2450 4666 
L 2450 531 
L 3481 531 
L 3481 0 
L 794 0 
L 794 531 
z
" transform="scale(0.015625)"/>
        <path id="DejaVuSans-30" d="M 2034 4250 
Q 1547 4250 1301 3770 
Q 1056 3291 1056 2328 
Q 1056 1369 1301 889 
Q 1547 409 2034 409 
Q 2525 409 2770 889 
Q 3016 1369 3016 2328 
Q 3016 3291 2770 3770 
Q 2525 4250 2034 4250 
z
M 2034 4750 
Q 2819 4750 3233 4129 
Q 3647 3509 3647 2328 
Q 3647 1150 3233 529 
Q 2819 -91 2034 -91 
Q 1250 -91 836 529 
Q 422 1150 422 2328 
Q 422 3509 836 4129 
Q 1250 4750 2034 4750 
z
" transform="scale(0.015625)"/>
       </defs>
       <use xlink:href="#DejaVuSans-31"/>
       <use xlink:href="#DejaVuSans-30" x="63.623047"/>
      </g>
     </g>
    </g>
    <g id="xtick_6">
     <g id="line2d_6">
      <g>
       <use xlink:href="#m4623357c3c" x="327.357086" y="303.64" style="stroke: #000000; stroke-width: 0.8"/>
      </g>
     </g>
     <g id="text_6">
      <!-- 11 -->
      <g transform="translate(320.994586 318.238437) scale(0.1 -0.1)">
       <use xlink:href="#DejaVuSans-31"/>
       <use xlink:href="#DejaVuSans-31" x="63.623047"/>
      </g>
     </g>
    </g>
    <g id="xtick_7">
     <g id="line2d_7">
      <g>
       <use xlink:href="#m4623357c3c" x="376.623128" y="303.64" style="stroke: #000000; stroke-width: 0.8"/>
      </g>
     </g>
     <g id="text_7">
      <!-- 15 -->
      <g transform="translate(370.260628 318.238437) scale(0.1 -0.1)">
       <use xlink:href="#DejaVuSans-31"/>
       <use xlink:href="#DejaVuSans-35" x="63.623047"/>
      </g>
     </g>
    </g>
    <g id="text_8">
     <!-- Temps (jour) -->
     <g transform="translate(197.732031 331.916562) scale(0.1 -0.1)">
      <defs>
       <path id="DejaVuSans-54" d="M -19 4666 
L 3928 4666 
L 3928 4134 
L 2272 4134 
L 2272 0 
L 1638 0 
L 1638 4134 
L -19 4134 
L -19 4666 
z
" transform="scale(0.015625)"/>
       <path id="DejaVuSans-65" d="M 3597 1894 
L 3597 1613 
L 953 1613 
Q 991 1019 1311 708 
Q 1631 397 2203 397 
Q 2534 397 2845 478 
Q 3156 559 3463 722 
L 3463 178 
Q 3153 47 2828 -22 
Q 2503 -91 2169 -91 
Q 1331 -91 842 396 
Q 353 884 353 1716 
Q 353 2575 817 3079 
Q 1281 3584 2069 3584 
Q 2775 3584 3186 3129 
Q 3597 2675 3597 1894 
z
M 3022 2063 
Q 3016 2534 2758 2815 
Q 2500 3097 2075 3097 
Q 1594 3097 1305 2825 
Q 1016 2553 972 2059 
L 3022 2063 
z
" transform="scale(0.015625)"/>
       <path id="DejaVuSans-6d" d="M 3328 2828 
Q 3544 3216 3844 3400 
Q 4144 3584 4550 3584 
Q 5097 3584 5394 3201 
Q 5691 2819 5691 2113 
L 5691 0 
L 5113 0 
L 5113 2094 
Q 5113 2597 4934 2840 
Q 4756 3084 4391 3084 
Q 3944 3084 3684 2787 
Q 3425 2491 3425 1978 
L 3425 0 
L 2847 0 
L 2847 2094 
Q 2847 2600 2669 2842 
Q 2491 3084 2119 3084 
Q 1678 3084 1418 2786 
Q 1159 2488 1159 1978 
L 1159 0 
L 581 0 
L 581 3500 
L 1159 3500 
L 1159 2956 
Q 1356 3278 1631 3431 
Q 1906 3584 2284 3584 
Q 2666 3584 2933 3390 
Q 3200 3197 3328 2828 
z
" transform="scale(0.015625)"/>
       <path id="DejaVuSans-70" d="M 1159 525 
L 1159 -1331 
L 581 -1331 
L 581 3500 
L 1159 3500 
L 1159 2969 
Q 1341 3281 1617 3432 
Q 1894 3584 2278 3584 
Q 2916 3584 3314 3078 
Q 3713 2572 3713 1747 
Q 3713 922 3314 415 
Q 2916 -91 2278 -91 
Q 1894 -91 1617 61 
Q 1341 213 1159 525 
z
M 3116 1747 
Q 3116 2381 2855 2742 
Q 2594 3103 2138 3103 
Q 1681 3103 1420 2742 
Q 1159 2381 1159 1747 
Q 1159 1113 1420 752 
Q 1681 391 2138 391 
Q 2594 391 2855 752 
Q 3116 1113 3116 1747 
z
" transform="scale(0.015625)"/>
       <path id="DejaVuSans-73" d="M 2834 3397 
L 2834 2853 
Q 2591 2978 2328 3040 
Q 2066 3103 1784 3103 
Q 1356 3103 1142 2972 
Q 928 2841 928 2578 
Q 928 2378 1081 2264 
Q 1234 2150 1697 2047 
L 1894 2003 
Q 2506 1872 2764 1633 
Q 3022 1394 3022 966 
Q 3022 478 2636 193 
Q 2250 -91 1575 -91 
Q 1294 -91 989 -36 
Q 684 19 347 128 
L 347 722 
Q 666 556 975 473 
Q 1284 391 1588 391 
Q 1994 391 2212 530 
Q 2431 669 2431 922 
Q 2431 1156 2273 1281 
Q 2116 1406 1581 1522 
L 1381 1569 
Q 847 1681 609 1914 
Q 372 2147 372 2553 
Q 372 3047 722 3315 
Q 1072 3584 1716 3584 
Q 2034 3584 2315 3537 
Q 2597 3491 2834 3397 
z
" transform="scale(0.015625)"/>
       <path id="DejaVuSans-20" transform="scale(0.015625)"/>
       <path id="DejaVuSans-28" d="M 1984 4856 
Q 1566 4138 1362 3434 
Q 1159 2731 1159 2009 
Q 1159 1288 1364 580 
Q 1569 -128 1984 -844 
L 1484 -844 
Q 1016 -109 783 600 
Q 550 1309 550 2009 
Q 550 2706 781 3412 
Q 1013 4119 1484 4856 
L 1984 4856 
z
" transform="scale(0.015625)"/>
       <path id="DejaVuSans-6a" d="M 603 3500 
L 1178 3500 
L 1178 -63 
Q 1178 -731 923 -1031 
Q 669 -1331 103 -1331 
L -116 -1331 
L -116 -844 
L 38 -844 
Q 366 -844 484 -692 
Q 603 -541 603 -63 
L 603 3500 
z
M 603 4863 
L 1178 4863 
L 1178 4134 
L 603 4134 
L 603 4863 
z
" transform="scale(0.015625)"/>
       <path id="DejaVuSans-6f" d="M 1959 3097 
Q 1497 3097 1228 2736 
Q 959 2375 959 1747 
Q 959 1119 1226 758 
Q 1494 397 1959 397 
Q 2419 397 2687 759 
Q 2956 1122 2956 1747 
Q 2956 2369 2687 2733 
Q 2419 3097 1959 3097 
z
M 1959 3584 
Q 2709 3584 3137 3096 
Q 3566 2609 3566 1747 
Q 3566 888 3137 398 
Q 2709 -91 1959 -91 
Q 1206 -91 779 398 
Q 353 888 353 1747 
Q 353 2609 779 3096 
Q 1206 3584 1959 3584 
z
" transform="scale(0.015625)"/>
       <path id="DejaVuSans-75" d="M 544 1381 
L 544 3500 
L 1119 3500 
L 1119 1403 
Q 1119 906 1312 657 
Q 1506 409 1894 409 
Q 2359 409 2629 706 
Q 2900 1003 2900 1516 
L 2900 3500 
L 3475 3500 
L 3475 0 
L 2900 0 
L 2900 538 
Q 2691 219 2414 64 
Q 2138 -91 1772 -91 
Q 1169 -91 856 284 
Q 544 659 544 1381 
z
M 1991 3584 
L 1991 3584 
z
" transform="scale(0.015625)"/>
       <path id="DejaVuSans-72" d="M 2631 2963 
Q 2534 3019 2420 3045 
Q 2306 3072 2169 3072 
Q 1681 3072 1420 2755 
Q 1159 2438 1159 1844 
L 1159 0 
L 581 0 
L 581 3500 
L 1159 3500 
L 1159 2956 
Q 1341 3275 1631 3429 
Q 1922 3584 2338 3584 
Q 2397 3584 2469 3576 
Q 2541 3569 2628 3553 
L 2631 2963 
z
" transform="scale(0.015625)"/>
       <path id="DejaVuSans-29" d="M 513 4856 
L 1013 4856 
Q 1481 4119 1714 3412 
Q 1947 2706 1947 2009 
Q 1947 1309 1714 600 
Q 1481 -109 1013 -844 
L 513 -844 
Q 928 -128 1133 580 
Q 1338 1288 1338 2009 
Q 1338 2731 1133 3434 
Q 928 4138 513 4856 
z
" transform="scale(0.015625)"/>
      </defs>
      <use xlink:href="#DejaVuSans-54"/>
      <use xlink:href="#DejaVuSans-65" x="44.083984"/>
      <use xlink:href="#DejaVuSans-6d" x="105.607422"/>
      <use xlink:href="#DejaVuSans-70" x="203.019531"/>
      <use xlink:href="#DejaVuSans-73" x="266.496094"/>
      <use xlink:href="#DejaVuSans-20" x="318.595703"/>
      <use xlink:href="#DejaVuSans-28" x="350.382812"/>
      <use xlink:href="#DejaVuSans-6a" x="389.396484"/>
      <use xlink:href="#DejaVuSans-6f" x="417.179688"/>
      <use xlink:href="#DejaVuSans-75" x="478.361328"/>
      <use xlink:href="#DejaVuSans-72" x="541.740234"/>
      <use xlink:href="#DejaVuSans-29" x="582.853516"/>
     </g>
    </g>
   </g>
   <g id="matplotlib.axis_2">
    <g id="ytick_1">
     <g id="line2d_8">
      <defs>
       <path id="m55f041398d" d="M 0 0 
L -3.5 0 
" style="stroke: #000000; stroke-width: 0.8"/>
      </defs>
      <g>
       <use xlink:href="#m55f041398d" x="44.57" y="303.64" style="stroke: #000000; stroke-width: 0.8"/>
      </g>
     </g>
     <g id="text_9">
      <!-- 0 -->
      <g transform="translate(31.2075 307.439219) scale(0.1 -0.1)">
       <use xlink:href="#DejaVuSans-30"/>
      </g>
     </g>
    </g>
    <g id="ytick_2">
     <g id="line2d_9">
      <g>
       <use xlink:href="#m55f041398d" x="44.57" y="262.45729" style="stroke: #000000; stroke-width: 0.8"/>
      </g>
     </g>
     <g id="text_10">
      <!-- 2 -->
      <g transform="translate(31.2075 266.256509) scale(0.1 -0.1)">
       <defs>
        <path id="DejaVuSans-32" d="M 1228 531 
L 3431 531 
L 3431 0 
L 469 0 
L 469 531 
Q 828 903 1448 1529 
Q 2069 2156 2228 2338 
Q 2531 2678 2651 2914 
Q 2772 3150 2772 3378 
Q 2772 3750 2511 3984 
Q 2250 4219 1831 4219 
Q 1534 4219 1204 4116 
Q 875 4013 500 3803 
L 500 4441 
Q 881 4594 1212 4672 
Q 1544 4750 1819 4750 
Q 2544 4750 2975 4387 
Q 3406 4025 3406 3419 
Q 3406 3131 3298 2873 
Q 3191 2616 2906 2266 
Q 2828 2175 2409 1742 
Q 1991 1309 1228 531 
z
" transform="scale(0.015625)"/>
       </defs>
       <use xlink:href="#DejaVuSans-32"/>
      </g>
     </g>
    </g>
    <g id="ytick_3">
     <g id="line2d_10">
      <g>
       <use xlink:href="#m55f041398d" x="44.57" y="221.27458" style="stroke: #000000; stroke-width: 0.8"/>
      </g>
     </g>
     <g id="text_11">
      <!-- 4 -->
      <g transform="translate(31.2075 225.073799) scale(0.1 -0.1)">
       <use xlink:href="#DejaVuSans-34"/>
      </g>
     </g>
    </g>
    <g id="ytick_4">
     <g id="line2d_11">
      <g>
       <use xlink:href="#m55f041398d" x="44.57" y="180.09187" style="stroke: #000000; stroke-width: 0.8"/>
      </g>
     </g>
     <g id="text_12">
      <!-- 6 -->
      <g transform="translate(31.2075 183.891089) scale(0.1 -0.1)">
       <defs>
        <path id="DejaVuSans-36" d="M 2113 2584 
Q 1688 2584 1439 2293 
Q 1191 2003 1191 1497 
Q 1191 994 1439 701 
Q 1688 409 2113 409 
Q 2538 409 2786 701 
Q 3034 994 3034 1497 
Q 3034 2003 2786 2293 
Q 2538 2584 2113 2584 
z
M 3366 4563 
L 3366 3988 
Q 3128 4100 2886 4159 
Q 2644 4219 2406 4219 
Q 1781 4219 1451 3797 
Q 1122 3375 1075 2522 
Q 1259 2794 1537 2939 
Q 1816 3084 2150 3084 
Q 2853 3084 3261 2657 
Q 3669 2231 3669 1497 
Q 3669 778 3244 343 
Q 2819 -91 2113 -91 
Q 1303 -91 875 529 
Q 447 1150 447 2328 
Q 447 3434 972 4092 
Q 1497 4750 2381 4750 
Q 2619 4750 2861 4703 
Q 3103 4656 3366 4563 
z
" transform="scale(0.015625)"/>
       </defs>
       <use xlink:href="#DejaVuSans-36"/>
      </g>
     </g>
    </g>
    <g id="ytick_5">
     <g id="line2d_12">
      <g>
       <use xlink:href="#m55f041398d" x="44.57" y="138.90916" style="stroke: #000000; stroke-width: 0.8"/>
      </g>
     </g>
     <g id="text_13">
      <!-- 8 -->
      <g transform="translate(31.2075 142.708379) scale(0.1 -0.1)">
       <use xlink:href="#DejaVuSans-38"/>
      </g>
     </g>
    </g>
    <g id="ytick_6">
     <g id="line2d_13">
      <g>
       <use xlink:href="#m55f041398d" x="44.57" y="97.72645" style="stroke: #000000; stroke-width: 0.8"/>
      </g>
     </g>
     <g id="text_14">
      <!-- 10 -->
      <g transform="translate(24.845 101.525669) scale(0.1 -0.1)">
       <use xlink:href="#DejaVuSans-31"/>
       <use xlink:href="#DejaVuSans-30" x="63.623047"/>
      </g>
     </g>
    </g>
    <g id="ytick_7">
     <g id="line2d_14">
      <g>
       <use xlink:href="#m55f041398d" x="44.57" y="56.54374" style="stroke: #000000; stroke-width: 0.8"/>
      </g>
     </g>
     <g id="text_15">
      <!-- 12 -->
      <g transform="translate(24.845 60.342959) scale(0.1 -0.1)">
       <use xlink:href="#DejaVuSans-31"/>
       <use xlink:href="#DejaVuSans-32" x="63.623047"/>
      </g>
     </g>
    </g>
    <g id="ytick_8">
     <g id="line2d_15">
      <g>
       <use xlink:href="#m55f041398d" x="44.57" y="15.36103" style="stroke: #000000; stroke-width: 0.8"/>
      </g>
     </g>
     <g id="text_16">
      <!-- 14 -->
      <g transform="translate(24.845 19.160249) scale(0.1 -0.1)">
       <use xlink:href="#DejaVuSans-31"/>
       <use xlink:href="#DejaVuSans-34" x="63.623047"/>
      </g>
     </g>
    </g>
    <g id="text_17">
     <!-- Abondance Relative (%) -->
     <g transform="translate(18.765313 217.27) rotate(-90) scale(0.1 -0.1)">
      <defs>
       <path id="DejaVuSans-41" d="M 2188 4044 
L 1331 1722 
L 3047 1722 
L 2188 4044 
z
M 1831 4666 
L 2547 4666 
L 4325 0 
L 3669 0 
L 3244 1197 
L 1141 1197 
L 716 0 
L 50 0 
L 1831 4666 
z
" transform="scale(0.015625)"/>
       <path id="DejaVuSans-62" d="M 3116 1747 
Q 3116 2381 2855 2742 
Q 2594 3103 2138 3103 
Q 1681 3103 1420 2742 
Q 1159 2381 1159 1747 
Q 1159 1113 1420 752 
Q 1681 391 2138 391 
Q 2594 391 2855 752 
Q 3116 1113 3116 1747 
z
M 1159 2969 
Q 1341 3281 1617 3432 
Q 1894 3584 2278 3584 
Q 2916 3584 3314 3078 
Q 3713 2572 3713 1747 
Q 3713 922 3314 415 
Q 2916 -91 2278 -91 
Q 1894 -91 1617 61 
Q 1341 213 1159 525 
L 1159 0 
L 581 0 
L 581 4863 
L 1159 4863 
L 1159 2969 
z
" transform="scale(0.015625)"/>
       <path id="DejaVuSans-6e" d="M 3513 2113 
L 3513 0 
L 2938 0 
L 2938 2094 
Q 2938 2591 2744 2837 
Q 2550 3084 2163 3084 
Q 1697 3084 1428 2787 
Q 1159 2491 1159 1978 
L 1159 0 
L 581 0 
L 581 3500 
L 1159 3500 
L 1159 2956 
Q 1366 3272 1645 3428 
Q 1925 3584 2291 3584 
Q 2894 3584 3203 3211 
Q 3513 2838 3513 2113 
z
" transform="scale(0.015625)"/>
       <path id="DejaVuSans-64" d="M 2906 2969 
L 2906 4863 
L 3481 4863 
L 3481 0 
L 2906 0 
L 2906 525 
Q 2725 213 2448 61 
Q 2172 -91 1784 -91 
Q 1150 -91 751 415 
Q 353 922 353 1747 
Q 353 2572 751 3078 
Q 1150 3584 1784 3584 
Q 2172 3584 2448 3432 
Q 2725 3281 2906 2969 
z
M 947 1747 
Q 947 1113 1208 752 
Q 1469 391 1925 391 
Q 2381 391 2643 752 
Q 2906 1113 2906 1747 
Q 2906 2381 2643 2742 
Q 2381 3103 1925 3103 
Q 1469 3103 1208 2742 
Q 947 2381 947 1747 
z
" transform="scale(0.015625)"/>
       <path id="DejaVuSans-61" d="M 2194 1759 
Q 1497 1759 1228 1600 
Q 959 1441 959 1056 
Q 959 750 1161 570 
Q 1363 391 1709 391 
Q 2188 391 2477 730 
Q 2766 1069 2766 1631 
L 2766 1759 
L 2194 1759 
z
M 3341 1997 
L 3341 0 
L 2766 0 
L 2766 531 
Q 2569 213 2275 61 
Q 1981 -91 1556 -91 
Q 1019 -91 701 211 
Q 384 513 384 1019 
Q 384 1609 779 1909 
Q 1175 2209 1959 2209 
L 2766 2209 
L 2766 2266 
Q 2766 2663 2505 2880 
Q 2244 3097 1772 3097 
Q 1472 3097 1187 3025 
Q 903 2953 641 2809 
L 641 3341 
Q 956 3463 1253 3523 
Q 1550 3584 1831 3584 
Q 2591 3584 2966 3190 
Q 3341 2797 3341 1997 
z
" transform="scale(0.015625)"/>
       <path id="DejaVuSans-63" d="M 3122 3366 
L 3122 2828 
Q 2878 2963 2633 3030 
Q 2388 3097 2138 3097 
Q 1578 3097 1268 2742 
Q 959 2388 959 1747 
Q 959 1106 1268 751 
Q 1578 397 2138 397 
Q 2388 397 2633 464 
Q 2878 531 3122 666 
L 3122 134 
Q 2881 22 2623 -34 
Q 2366 -91 2075 -91 
Q 1284 -91 818 406 
Q 353 903 353 1747 
Q 353 2603 823 3093 
Q 1294 3584 2113 3584 
Q 2378 3584 2631 3529 
Q 2884 3475 3122 3366 
z
" transform="scale(0.015625)"/>
       <path id="DejaVuSans-52" d="M 2841 2188 
Q 3044 2119 3236 1894 
Q 3428 1669 3622 1275 
L 4263 0 
L 3584 0 
L 2988 1197 
Q 2756 1666 2539 1819 
Q 2322 1972 1947 1972 
L 1259 1972 
L 1259 0 
L 628 0 
L 628 4666 
L 2053 4666 
Q 2853 4666 3247 4331 
Q 3641 3997 3641 3322 
Q 3641 2881 3436 2590 
Q 3231 2300 2841 2188 
z
M 1259 4147 
L 1259 2491 
L 2053 2491 
Q 2509 2491 2742 2702 
Q 2975 2913 2975 3322 
Q 2975 3731 2742 3939 
Q 2509 4147 2053 4147 
L 1259 4147 
z
" transform="scale(0.015625)"/>
       <path id="DejaVuSans-6c" d="M 603 4863 
L 1178 4863 
L 1178 0 
L 603 0 
L 603 4863 
z
" transform="scale(0.015625)"/>
       <path id="DejaVuSans-74" d="M 1172 4494 
L 1172 3500 
L 2356 3500 
L 2356 3053 
L 1172 3053 
L 1172 1153 
Q 1172 725 1289 603 
Q 1406 481 1766 481 
L 2356 481 
L 2356 0 
L 1766 0 
Q 1100 0 847 248 
Q 594 497 594 1153 
L 594 3053 
L 172 3053 
L 172 3500 
L 594 3500 
L 594 4494 
L 1172 4494 
z
" transform="scale(0.015625)"/>
       <path id="DejaVuSans-69" d="M 603 3500 
L 1178 3500 
L 1178 0 
L 603 0 
L 603 3500 
z
M 603 4863 
L 1178 4863 
L 1178 4134 
L 603 4134 
L 603 4863 
z
" transform="scale(0.015625)"/>
       <path id="DejaVuSans-76" d="M 191 3500 
L 800 3500 
L 1894 563 
L 2988 3500 
L 3597 3500 
L 2284 0 
L 1503 0 
L 191 3500 
z
" transform="scale(0.015625)"/>
       <path id="DejaVuSans-25" d="M 4653 2053 
Q 4381 2053 4226 1822 
Q 4072 1591 4072 1178 
Q 4072 772 4226 539 
Q 4381 306 4653 306 
Q 4919 306 5073 539 
Q 5228 772 5228 1178 
Q 5228 1588 5073 1820 
Q 4919 2053 4653 2053 
z
M 4653 2450 
Q 5147 2450 5437 2106 
Q 5728 1763 5728 1178 
Q 5728 594 5436 251 
Q 5144 -91 4653 -91 
Q 4153 -91 3862 251 
Q 3572 594 3572 1178 
Q 3572 1766 3864 2108 
Q 4156 2450 4653 2450 
z
M 1428 4353 
Q 1159 4353 1004 4120 
Q 850 3888 850 3481 
Q 850 3069 1003 2837 
Q 1156 2606 1428 2606 
Q 1700 2606 1854 2837 
Q 2009 3069 2009 3481 
Q 2009 3884 1853 4118 
Q 1697 4353 1428 4353 
z
M 4250 4750 
L 4750 4750 
L 1831 -91 
L 1331 -91 
L 4250 4750 
z
M 1428 4750 
Q 1922 4750 2215 4408 
Q 2509 4066 2509 3481 
Q 2509 2891 2217 2550 
Q 1925 2209 1428 2209 
Q 931 2209 642 2551 
Q 353 2894 353 3481 
Q 353 4063 643 4406 
Q 934 4750 1428 4750 
z
" transform="scale(0.015625)"/>
      </defs>
      <use xlink:href="#DejaVuSans-41"/>
      <use xlink:href="#DejaVuSans-62" x="68.408203"/>
      <use xlink:href="#DejaVuSans-6f" x="131.884766"/>
      <use xlink:href="#DejaVuSans-6e" x="193.066406"/>
      <use xlink:href="#DejaVuSans-64" x="256.445312"/>
      <use xlink:href="#DejaVuSans-61" x="319.921875"/>
      <use xlink:href="#DejaVuSans-6e" x="381.201172"/>
      <use xlink:href="#DejaVuSans-63" x="444.580078"/>
      <use xlink:href="#DejaVuSans-65" x="499.560547"/>
      <use xlink:href="#DejaVuSans-20" x="561.083984"/>
      <use xlink:href="#DejaVuSans-52" x="592.871094"/>
      <use xlink:href="#DejaVuSans-65" x="657.853516"/>
      <use xlink:href="#DejaVuSans-6c" x="719.376953"/>
      <use xlink:href="#DejaVuSans-61" x="747.160156"/>
      <use xlink:href="#DejaVuSans-74" x="808.439453"/>
      <use xlink:href="#DejaVuSans-69" x="847.648438"/>
      <use xlink:href="#DejaVuSans-76" x="875.431641"/>
      <use xlink:href="#DejaVuSans-65" x="934.611328"/>
      <use xlink:href="#DejaVuSans-20" x="996.134766"/>
      <use xlink:href="#DejaVuSans-28" x="1027.921875"/>
      <use xlink:href="#DejaVuSans-25" x="1066.935547"/>
      <use xlink:href="#DejaVuSans-29" x="1161.955078"/>
     </g>
    </g>
   </g>
   <g id="LineCollection_1">
    <path d="M 81.026872 113.709842 
L 81.026872 95.31271 
" clip-path="url(#pd8e441afd1)" style="fill: none; stroke: #8b0000; stroke-width: 1.5"/>
   </g>
   <g id="line2d_16">
    <defs>
     <path id="md997d371b4" d="M 4 0 
L -4 -0 
" style="stroke: #8b0000"/>
    </defs>
    <g clip-path="url(#pd8e441afd1)">
     <use xlink:href="#md997d371b4" x="81.026872" y="113.709842" style="fill: #8b0000; stroke: #8b0000"/>
    </g>
   </g>
   <g id="line2d_17">
    <g clip-path="url(#pd8e441afd1)">
     <use xlink:href="#md997d371b4" x="81.026872" y="95.31271" style="fill: #8b0000; stroke: #8b0000"/>
    </g>
   </g>
   <g id="LineCollection_2">
    <path d="M 130.292914 83.343386 
L 130.292914 62.138113 
" clip-path="url(#pd8e441afd1)" style="fill: none; stroke: #8b0000; stroke-width: 1.5"/>
   </g>
   <g id="line2d_18">
    <g clip-path="url(#pd8e441afd1)">
     <use xlink:href="#md997d371b4" x="130.292914" y="83.343386" style="fill: #8b0000; stroke: #8b0000"/>
    </g>
   </g>
   <g id="line2d_19">
    <g clip-path="url(#pd8e441afd1)">
     <use xlink:href="#md997d371b4" x="130.292914" y="62.138113" style="fill: #8b0000; stroke: #8b0000"/>
    </g>
   </g>
   <g id="LineCollection_3">
    <path d="M 179.558957 72.192285 
L 179.558957 53.11407 
" clip-path="url(#pd8e441afd1)" style="fill: none; stroke: #8b0000; stroke-width: 1.5"/>
   </g>
   <g id="line2d_20">
    <g clip-path="url(#pd8e441afd1)">
     <use xlink:href="#md997d371b4" x="179.558957" y="72.192285" style="fill: #8b0000; stroke: #8b0000"/>
    </g>
   </g>
   <g id="line2d_21">
    <g clip-path="url(#pd8e441afd1)">
     <use xlink:href="#md997d371b4" x="179.558957" y="53.11407" style="fill: #8b0000; stroke: #8b0000"/>
    </g>
   </g>
   <g id="LineCollection_4">
    <path d="M 228.825 258.830626 
L 228.825 250.697634 
" clip-path="url(#pd8e441afd1)" style="fill: none; stroke: #8b0000; stroke-width: 1.5"/>
   </g>
   <g id="line2d_22">
    <g clip-path="url(#pd8e441afd1)">
     <use xlink:href="#md997d371b4" x="228.825" y="258.830626" style="fill: #8b0000; stroke: #8b0000"/>
    </g>
   </g>
   <g id="line2d_23">
    <g clip-path="url(#pd8e441afd1)">
     <use xlink:href="#md997d371b4" x="228.825" y="250.697634" style="fill: #8b0000; stroke: #8b0000"/>
    </g>
   </g>
   <g id="LineCollection_5">
    <path d="M 278.091043 273.526743 
L 278.091043 269.046789 
" clip-path="url(#pd8e441afd1)" style="fill: none; stroke: #8b0000; stroke-width: 1.5"/>
   </g>
   <g id="line2d_24">
    <g clip-path="url(#pd8e441afd1)">
     <use xlink:href="#md997d371b4" x="278.091043" y="273.526743" style="fill: #8b0000; stroke: #8b0000"/>
    </g>
   </g>
   <g id="line2d_25">
    <g clip-path="url(#pd8e441afd1)">
     <use xlink:href="#md997d371b4" x="278.091043" y="269.046789" style="fill: #8b0000; stroke: #8b0000"/>
    </g>
   </g>
   <g id="LineCollection_6">
    <path d="M 327.357086 274.854156 
L 327.357086 268.696054 
" clip-path="url(#pd8e441afd1)" style="fill: none; stroke: #8b0000; stroke-width: 1.5"/>
   </g>
   <g id="line2d_26">
    <g clip-path="url(#pd8e441afd1)">
     <use xlink:href="#md997d371b4" x="327.357086" y="274.854156" style="fill: #8b0000; stroke: #8b0000"/>
    </g>
   </g>
   <g id="line2d_27">
    <g clip-path="url(#pd8e441afd1)">
     <use xlink:href="#md997d371b4" x="327.357086" y="268.696054" style="fill: #8b0000; stroke: #8b0000"/>
    </g>
   </g>
   <g id="LineCollection_7">
    <path d="M 376.623128 279.076065 
L 376.623128 275.609533 
" clip-path="url(#pd8e441afd1)" style="fill: none; stroke: #8b0000; stroke-width: 1.5"/>
   </g>
   <g id="line2d_28">
    <g clip-path="url(#pd8e441afd1)">
     <use xlink:href="#md997d371b4" x="376.623128" y="279.076065" style="fill: #8b0000; stroke: #8b0000"/>
    </g>
   </g>
   <g id="line2d_29">
    <g clip-path="url(#pd8e441afd1)">
     <use xlink:href="#md997d371b4" x="376.623128" y="275.609533" style="fill: #8b0000; stroke: #8b0000"/>
    </g>
   </g>
   <g id="LineCollection_8">
    <path d="M 81.026872 80.104334 
L 81.026872 76.124021 
" clip-path="url(#pd8e441afd1)" style="fill: none; stroke: #00008b; stroke-width: 1.5"/>
   </g>
   <g id="line2d_30">
    <defs>
     <path id="m55b3a522ee" d="M 4 0 
L -4 -0 
" style="stroke: #00008b"/>
    </defs>
    <g clip-path="url(#pd8e441afd1)">
     <use xlink:href="#m55b3a522ee" x="81.026872" y="80.104334" style="fill: #00008b; stroke: #00008b"/>
    </g>
   </g>
   <g id="line2d_31">
    <g clip-path="url(#pd8e441afd1)">
     <use xlink:href="#m55b3a522ee" x="81.026872" y="76.124021" style="fill: #00008b; stroke: #00008b"/>
    </g>
   </g>
   <g id="LineCollection_9">
    <path d="M 130.292914 42.082274 
L 130.292914 39.074318 
" clip-path="url(#pd8e441afd1)" style="fill: none; stroke: #00008b; stroke-width: 1.5"/>
   </g>
   <g id="line2d_32">
    <g clip-path="url(#pd8e441afd1)">
     <use xlink:href="#m55b3a522ee" x="130.292914" y="42.082274" style="fill: #00008b; stroke: #00008b"/>
    </g>
   </g>
   <g id="line2d_33">
    <g clip-path="url(#pd8e441afd1)">
     <use xlink:href="#m55b3a522ee" x="130.292914" y="39.074318" style="fill: #00008b; stroke: #00008b"/>
    </g>
   </g>
   <g id="LineCollection_10">
    <path d="M 179.558957 29.961813 
L 179.558957 24.744762 
" clip-path="url(#pd8e441afd1)" style="fill: none; stroke: #00008b; stroke-width: 1.5"/>
   </g>
   <g id="line2d_34">
    <g clip-path="url(#pd8e441afd1)">
     <use xlink:href="#m55b3a522ee" x="179.558957" y="29.961813" style="fill: #00008b; stroke: #00008b"/>
    </g>
   </g>
   <g id="line2d_35">
    <g clip-path="url(#pd8e441afd1)">
     <use xlink:href="#m55b3a522ee" x="179.558957" y="24.744762" style="fill: #00008b; stroke: #00008b"/>
    </g>
   </g>
   <g id="LineCollection_11">
    <path d="M 228.825 224.683664 
L 228.825 215.084276 
" clip-path="url(#pd8e441afd1)" style="fill: none; stroke: #00008b; stroke-width: 1.5"/>
   </g>
   <g id="line2d_36">
    <g clip-path="url(#pd8e441afd1)">
     <use xlink:href="#m55b3a522ee" x="228.825" y="224.683664" style="fill: #00008b; stroke: #00008b"/>
    </g>
   </g>
   <g id="line2d_37">
    <g clip-path="url(#pd8e441afd1)">
     <use xlink:href="#m55b3a522ee" x="228.825" y="215.084276" style="fill: #00008b; stroke: #00008b"/>
    </g>
   </g>
   <g id="LineCollection_12">
    <path d="M 278.091043 230.458123 
L 278.091043 220.499418 
" clip-path="url(#pd8e441afd1)" style="fill: none; stroke: #00008b; stroke-width: 1.5"/>
   </g>
   <g id="line2d_38">
    <g clip-path="url(#pd8e441afd1)">
     <use xlink:href="#m55b3a522ee" x="278.091043" y="230.458123" style="fill: #00008b; stroke: #00008b"/>
    </g>
   </g>
   <g id="line2d_39">
    <g clip-path="url(#pd8e441afd1)">
     <use xlink:href="#m55b3a522ee" x="278.091043" y="220.499418" style="fill: #00008b; stroke: #00008b"/>
    </g>
   </g>
   <g id="LineCollection_13">
    <path d="M 327.357086 238.955906 
L 327.357086 230.568222 
" clip-path="url(#pd8e441afd1)" style="fill: none; stroke: #00008b; stroke-width: 1.5"/>
   </g>
   <g id="line2d_40">
    <g clip-path="url(#pd8e441afd1)">
     <use xlink:href="#m55b3a522ee" x="327.357086" y="238.955906" style="fill: #00008b; stroke: #00008b"/>
    </g>
   </g>
   <g id="line2d_41">
    <g clip-path="url(#pd8e441afd1)">
     <use xlink:href="#m55b3a522ee" x="327.357086" y="230.568222" style="fill: #00008b; stroke: #00008b"/>
    </g>
   </g>
   <g id="LineCollection_14">
    <path d="M 376.623128 245.065124 
L 376.623128 235.717326 
" clip-path="url(#pd8e441afd1)" style="fill: none; stroke: #00008b; stroke-width: 1.5"/>
   </g>
   <g id="line2d_42">
    <g clip-path="url(#pd8e441afd1)">
     <use xlink:href="#m55b3a522ee" x="376.623128" y="245.065124" style="fill: #00008b; stroke: #00008b"/>
    </g>
   </g>
   <g id="line2d_43">
    <g clip-path="url(#pd8e441afd1)">
     <use xlink:href="#m55b3a522ee" x="376.623128" y="235.717326" style="fill: #00008b; stroke: #00008b"/>
    </g>
   </g>
   <g id="patch_19">
    <path d="M 44.57 303.64 
L 44.57 10.8 
" style="fill: none; stroke: #000000; stroke-width: 0.8; stroke-linejoin: miter; stroke-linecap: square"/>
   </g>
   <g id="patch_20">
    <path d="M 413.08 303.64 
L 413.08 10.8 
" style="fill: none; stroke: #000000; stroke-width: 0.8; stroke-linejoin: miter; stroke-linecap: square"/>
   </g>
   <g id="patch_21">
    <path d="M 44.57 303.64 
L 413.08 303.64 
" style="fill: none; stroke: #000000; stroke-width: 0.8; stroke-linejoin: miter; stroke-linecap: square"/>
   </g>
  </g>
  <g id="axes_2">
   <g id="matplotlib.axis_3">
    <g id="ytick_9">
     <g id="line2d_44">
      <defs>
       <path id="mde936e443e" d="M 0 0 
L 3.5 0 
" style="stroke: #000000; stroke-width: 0.8"/>
      </defs>
      <g>
       <use xlink:href="#mde936e443e" x="413.08" y="269.685644" style="stroke: #000000; stroke-width: 0.8"/>
      </g>
     </g>
     <g id="text_18">
      <!-- 0.2 -->
      <g style="fill: #006400" transform="translate(420.08 273.484863) scale(0.1 -0.1)">
       <use xlink:href="#DejaVuSans-30"/>
       <use xlink:href="#DejaVuSans-2e" x="63.623047"/>
       <use xlink:href="#DejaVuSans-32" x="95.410156"/>
      </g>
     </g>
    </g>
    <g id="ytick_10">
     <g id="line2d_45">
      <g>
       <use xlink:href="#mde936e443e" x="413.08" y="229.780363" style="stroke: #000000; stroke-width: 0.8"/>
      </g>
     </g>
     <g id="text_19">
      <!-- 0.4 -->
      <g style="fill: #006400" transform="translate(420.08 233.579582) scale(0.1 -0.1)">
       <use xlink:href="#DejaVuSans-30"/>
       <use xlink:href="#DejaVuSans-2e" x="63.623047"/>
       <use xlink:href="#DejaVuSans-34" x="95.410156"/>
      </g>
     </g>
    </g>
    <g id="ytick_11">
     <g id="line2d_46">
      <g>
       <use xlink:href="#mde936e443e" x="413.08" y="189.875081" style="stroke: #000000; stroke-width: 0.8"/>
      </g>
     </g>
     <g id="text_20">
      <!-- 0.6 -->
      <g style="fill: #006400" transform="translate(420.08 193.6743) scale(0.1 -0.1)">
       <use xlink:href="#DejaVuSans-30"/>
       <use xlink:href="#DejaVuSans-2e" x="63.623047"/>
       <use xlink:href="#DejaVuSans-36" x="95.410156"/>
      </g>
     </g>
    </g>
    <g id="ytick_12">
     <g id="line2d_47">
      <g>
       <use xlink:href="#mde936e443e" x="413.08" y="149.9698" style="stroke: #000000; stroke-width: 0.8"/>
      </g>
     </g>
     <g id="text_21">
      <!-- 0.8 -->
      <g style="fill: #006400" transform="translate(420.08 153.769019) scale(0.1 -0.1)">
       <use xlink:href="#DejaVuSans-30"/>
       <use xlink:href="#DejaVuSans-2e" x="63.623047"/>
       <use xlink:href="#DejaVuSans-38" x="95.410156"/>
      </g>
     </g>
    </g>
    <g id="ytick_13">
     <g id="line2d_48">
      <g>
       <use xlink:href="#mde936e443e" x="413.08" y="110.064518" style="stroke: #000000; stroke-width: 0.8"/>
      </g>
     </g>
     <g id="text_22">
      <!-- 1.0 -->
      <g style="fill: #006400" transform="translate(420.08 113.863737) scale(0.1 -0.1)">
       <use xlink:href="#DejaVuSans-31"/>
       <use xlink:href="#DejaVuSans-2e" x="63.623047"/>
       <use xlink:href="#DejaVuSans-30" x="95.410156"/>
      </g>
     </g>
    </g>
    <g id="ytick_14">
     <g id="line2d_49">
      <g>
       <use xlink:href="#mde936e443e" x="413.08" y="70.159237" style="stroke: #000000; stroke-width: 0.8"/>
      </g>
     </g>
     <g id="text_23">
      <!-- 1.2 -->
      <g style="fill: #006400" transform="translate(420.08 73.958455) scale(0.1 -0.1)">
       <use xlink:href="#DejaVuSans-31"/>
       <use xlink:href="#DejaVuSans-2e" x="63.623047"/>
       <use xlink:href="#DejaVuSans-32" x="95.410156"/>
      </g>
     </g>
    </g>
    <g id="ytick_15">
     <g id="line2d_50">
      <g>
       <use xlink:href="#mde936e443e" x="413.08" y="30.253955" style="stroke: #000000; stroke-width: 0.8"/>
      </g>
     </g>
     <g id="text_24">
      <!-- 1.4 -->
      <g style="fill: #006400" transform="translate(420.08 34.053174) scale(0.1 -0.1)">
       <use xlink:href="#DejaVuSans-31"/>
       <use xlink:href="#DejaVuSans-2e" x="63.623047"/>
       <use xlink:href="#DejaVuSans-34" x="95.410156"/>
      </g>
     </g>
    </g>
    <g id="text_25">
     <!-- Ratio MD/MSR -->
     <g style="fill: #006400" transform="translate(447.581563 192.454375) rotate(-90) scale(0.1 -0.1)">
      <defs>
       <path id="DejaVuSans-4d" d="M 628 4666 
L 1569 4666 
L 2759 1491 
L 3956 4666 
L 4897 4666 
L 4897 0 
L 4281 0 
L 4281 4097 
L 3078 897 
L 2444 897 
L 1241 4097 
L 1241 0 
L 628 0 
L 628 4666 
z
" transform="scale(0.015625)"/>
       <path id="DejaVuSans-44" d="M 1259 4147 
L 1259 519 
L 2022 519 
Q 2988 519 3436 956 
Q 3884 1394 3884 2338 
Q 3884 3275 3436 3711 
Q 2988 4147 2022 4147 
L 1259 4147 
z
M 628 4666 
L 1925 4666 
Q 3281 4666 3915 4102 
Q 4550 3538 4550 2338 
Q 4550 1131 3912 565 
Q 3275 0 1925 0 
L 628 0 
L 628 4666 
z
" transform="scale(0.015625)"/>
       <path id="DejaVuSans-2f" d="M 1625 4666 
L 2156 4666 
L 531 -594 
L 0 -594 
L 1625 4666 
z
" transform="scale(0.015625)"/>
       <path id="DejaVuSans-53" d="M 3425 4513 
L 3425 3897 
Q 3066 4069 2747 4153 
Q 2428 4238 2131 4238 
Q 1616 4238 1336 4038 
Q 1056 3838 1056 3469 
Q 1056 3159 1242 3001 
Q 1428 2844 1947 2747 
L 2328 2669 
Q 3034 2534 3370 2195 
Q 3706 1856 3706 1288 
Q 3706 609 3251 259 
Q 2797 -91 1919 -91 
Q 1588 -91 1214 -16 
Q 841 59 441 206 
L 441 856 
Q 825 641 1194 531 
Q 1563 422 1919 422 
Q 2459 422 2753 634 
Q 3047 847 3047 1241 
Q 3047 1584 2836 1778 
Q 2625 1972 2144 2069 
L 1759 2144 
Q 1053 2284 737 2584 
Q 422 2884 422 3419 
Q 422 4038 858 4394 
Q 1294 4750 2059 4750 
Q 2388 4750 2728 4690 
Q 3069 4631 3425 4513 
z
" transform="scale(0.015625)"/>
      </defs>
      <use xlink:href="#DejaVuSans-52"/>
      <use xlink:href="#DejaVuSans-61" x="67.232422"/>
      <use xlink:href="#DejaVuSans-74" x="128.511719"/>
      <use xlink:href="#DejaVuSans-69" x="167.720703"/>
      <use xlink:href="#DejaVuSans-6f" x="195.503906"/>
      <use xlink:href="#DejaVuSans-20" x="256.685547"/>
      <use xlink:href="#DejaVuSans-4d" x="288.472656"/>
      <use xlink:href="#DejaVuSans-44" x="374.751953"/>
      <use xlink:href="#DejaVuSans-2f" x="451.753906"/>
      <use xlink:href="#DejaVuSans-4d" x="485.445312"/>
      <use xlink:href="#DejaVuSans-53" x="571.724609"/>
      <use xlink:href="#DejaVuSans-52" x="635.201172"/>
     </g>
    </g>
   </g>
   <g id="line2d_51">
    <path d="M 81.026872 283.141109 
L 84.012692 280.381468 
L 86.998513 278.124155 
L 89.984334 276.33674 
L 92.970155 274.986792 
L 95.955976 274.041883 
L 98.941796 273.469582 
L 101.927617 273.237459 
L 104.913438 273.313084 
L 107.899259 273.664027 
L 110.885079 274.257858 
L 113.8709 275.062147 
L 116.856721 276.044464 
L 119.842542 277.17238 
L 122.828363 278.413464 
L 125.814183 279.735286 
L 128.800004 281.105417 
L 131.785825 282.491426 
L 134.771646 283.860883 
L 137.757466 285.181359 
L 140.743287 286.420424 
L 143.729108 287.545647 
L 146.714929 288.524598 
L 149.700749 289.324848 
L 152.68657 289.913967 
L 155.672391 290.259525 
L 158.658212 290.329091 
L 161.644033 290.090236 
L 164.629853 289.51053 
L 167.615674 288.557542 
L 170.601495 287.198844 
L 173.587316 285.402004 
L 176.573136 283.134593 
L 179.558957 280.364182 
L 182.544778 277.065917 
L 185.530599 273.245258 
L 188.51642 268.915242 
L 191.50224 264.088906 
L 194.488061 258.779287 
L 197.473882 252.999421 
L 200.459703 246.762347 
L 203.445523 240.0811 
L 206.431344 232.968718 
L 209.417165 225.438237 
L 212.402986 217.502696 
L 215.388807 209.175129 
L 218.374627 200.468576 
L 221.360448 191.396072 
L 224.346269 181.970654 
L 227.33209 172.20536 
L 230.31791 162.114903 
L 233.303731 151.752564 
L 236.289552 141.210192 
L 239.275373 130.58131 
L 242.261193 119.959445 
L 245.247014 109.43812 
L 248.232835 99.11086 
L 251.218656 89.071192 
L 254.204477 79.412638 
L 257.190297 70.228725 
L 260.176118 61.612976 
L 263.161939 53.658918 
L 266.14776 46.460074 
L 269.13358 40.109969 
L 272.119401 34.702129 
L 275.105222 30.330079 
L 278.091043 27.087342 
L 281.076864 25.03582 
L 284.062684 24.110909 
L 287.048505 24.216384 
L 290.034326 25.256019 
L 293.020147 27.133585 
L 296.005967 29.752858 
L 298.991788 33.01761 
L 301.977609 36.831614 
L 304.96343 41.098645 
L 307.949251 45.722474 
L 310.935071 50.606876 
L 313.920892 55.655625 
L 316.906713 60.772493 
L 319.892534 65.861253 
L 322.878354 70.82568 
L 325.864175 75.569546 
L 328.849996 79.996625 
L 331.835817 84.01069 
L 334.821637 87.515515 
L 337.807458 90.414873 
L 340.793279 92.612538 
L 343.7791 94.012282 
L 346.764921 94.517879 
L 349.750741 94.033103 
L 352.736562 92.461726 
L 355.722383 89.707523 
L 358.708204 85.674267 
L 361.694024 80.26573 
L 364.679845 73.385687 
L 367.665666 64.93791 
L 370.651487 54.826174 
L 373.637308 42.954251 
L 376.623128 29.225914 
" clip-path="url(#pd8e441afd1)" style="fill: none; stroke: #008000; stroke-width: 1.5; stroke-linecap: square"/>
   </g>
   <g id="LineCollection_15">
    <path d="M 81.026872 284.225275 
L 81.026872 282.056942 
" clip-path="url(#pd8e441afd1)" style="fill: none; stroke: #006400; stroke-width: 1.5"/>
   </g>
   <g id="line2d_52">
    <defs>
     <path id="mb97d8a5492" d="M 4 0 
L -4 -0 
" style="stroke: #006400"/>
    </defs>
    <g clip-path="url(#pd8e441afd1)">
     <use xlink:href="#mb97d8a5492" x="81.026872" y="284.225275" style="fill: #006400; stroke: #006400"/>
    </g>
   </g>
   <g id="line2d_53">
    <g clip-path="url(#pd8e441afd1)">
     <use xlink:href="#mb97d8a5492" x="81.026872" y="282.056942" style="fill: #006400; stroke: #006400"/>
    </g>
   </g>
   <g id="LineCollection_16">
    <path d="M 130.292914 282.971572 
L 130.292914 280.625355 
" clip-path="url(#pd8e441afd1)" style="fill: none; stroke: #006400; stroke-width: 1.5"/>
   </g>
   <g id="line2d_54">
    <g clip-path="url(#pd8e441afd1)">
     <use xlink:href="#mb97d8a5492" x="130.292914" y="282.971572" style="fill: #006400; stroke: #006400"/>
    </g>
   </g>
   <g id="line2d_55">
    <g clip-path="url(#pd8e441afd1)">
     <use xlink:href="#mb97d8a5492" x="130.292914" y="280.625355" style="fill: #006400; stroke: #006400"/>
    </g>
   </g>
   <g id="LineCollection_17">
    <path d="M 179.558957 281.541265 
L 179.558957 279.187099 
" clip-path="url(#pd8e441afd1)" style="fill: none; stroke: #006400; stroke-width: 1.5"/>
   </g>
   <g id="line2d_56">
    <g clip-path="url(#pd8e441afd1)">
     <use xlink:href="#mb97d8a5492" x="179.558957" y="281.541265" style="fill: #006400; stroke: #006400"/>
    </g>
   </g>
   <g id="line2d_57">
    <g clip-path="url(#pd8e441afd1)">
     <use xlink:href="#mb97d8a5492" x="179.558957" y="279.187099" style="fill: #006400; stroke: #006400"/>
    </g>
   </g>
   <g id="LineCollection_18">
    <path d="M 228.825 168.058451 
L 228.825 166.340216 
" clip-path="url(#pd8e441afd1)" style="fill: none; stroke: #006400; stroke-width: 1.5"/>
   </g>
   <g id="line2d_58">
    <g clip-path="url(#pd8e441afd1)">
     <use xlink:href="#mb97d8a5492" x="228.825" y="168.058451" style="fill: #006400; stroke: #006400"/>
    </g>
   </g>
   <g id="line2d_59">
    <g clip-path="url(#pd8e441afd1)">
     <use xlink:href="#mb97d8a5492" x="228.825" y="166.340216" style="fill: #006400; stroke: #006400"/>
    </g>
   </g>
   <g id="LineCollection_19">
    <path d="M 278.091043 27.786882 
L 278.091043 26.387803 
" clip-path="url(#pd8e441afd1)" style="fill: none; stroke: #006400; stroke-width: 1.5"/>
   </g>
   <g id="line2d_60">
    <g clip-path="url(#pd8e441afd1)">
     <use xlink:href="#mb97d8a5492" x="278.091043" y="27.786882" style="fill: #006400; stroke: #006400"/>
    </g>
   </g>
   <g id="line2d_61">
    <g clip-path="url(#pd8e441afd1)">
     <use xlink:href="#mb97d8a5492" x="278.091043" y="26.387803" style="fill: #006400; stroke: #006400"/>
    </g>
   </g>
   <g id="LineCollection_20">
    <path d="M 327.357086 78.533428 
L 327.357086 77.123968 
" clip-path="url(#pd8e441afd1)" style="fill: none; stroke: #006400; stroke-width: 1.5"/>
   </g>
   <g id="line2d_62">
    <g clip-path="url(#pd8e441afd1)">
     <use xlink:href="#mb97d8a5492" x="327.357086" y="78.533428" style="fill: #006400; stroke: #006400"/>
    </g>
   </g>
   <g id="line2d_63">
    <g clip-path="url(#pd8e441afd1)">
     <use xlink:href="#mb97d8a5492" x="327.357086" y="77.123968" style="fill: #006400; stroke: #006400"/>
    </g>
   </g>
   <g id="LineCollection_21">
    <path d="M 376.623128 29.846757 
L 376.623128 28.605072 
" clip-path="url(#pd8e441afd1)" style="fill: none; stroke: #006400; stroke-width: 1.5"/>
   </g>
   <g id="line2d_64">
    <g clip-path="url(#pd8e441afd1)">
     <use xlink:href="#mb97d8a5492" x="376.623128" y="29.846757" style="fill: #006400; stroke: #006400"/>
    </g>
   </g>
   <g id="line2d_65">
    <g clip-path="url(#pd8e441afd1)">
     <use xlink:href="#mb97d8a5492" x="376.623128" y="28.605072" style="fill: #006400; stroke: #006400"/>
    </g>
   </g>
   <g id="patch_22">
    <path d="M 44.57 303.64 
L 44.57 10.8 
" style="fill: none; stroke: #000000; stroke-width: 0.8; stroke-linejoin: miter; stroke-linecap: square"/>
   </g>
   <g id="patch_23">
    <path d="M 413.08 303.64 
L 413.08 10.8 
" style="fill: none; stroke: #000000; stroke-width: 0.8; stroke-linejoin: miter; stroke-linecap: square"/>
   </g>
   <g id="patch_24">
    <path d="M 44.57 303.64 
L 413.08 303.64 
" style="fill: none; stroke: #000000; stroke-width: 0.8; stroke-linejoin: miter; stroke-linecap: square"/>
   </g>
  </g>
 </g>
 <defs>
  <clipPath id="pd8e441afd1">
   <rect x="44.57" y="10.8" width="368.51" height="292.84"/>
  </clipPath>
 </defs>
</svg>
