<?xml version="1.0" encoding="utf-8" standalone="no"?>
<!DOCTYPE svg PUBLIC "-//W3C//DTD SVG 1.1//EN"
  "http://www.w3.org/Graphics/SVG/1.1/DTD/svg11.dtd">
<svg xmlns:xlink="http://www.w3.org/1999/xlink" width="460.8pt" height="345.6pt" viewBox="0 0 460.8 345.6" xmlns="http://www.w3.org/2000/svg" version="1.1">
 <metadata>
  <rdf:RDF xmlns:dc="http://purl.org/dc/elements/1.1/" xmlns:cc="http://creativecommons.org/ns#" xmlns:rdf="http://www.w3.org/1999/02/22-rdf-syntax-ns#">
   <cc:Work>
    <dc:type rdf:resource="http://purl.org/dc/dcmitype/StillImage"/>
    <dc:date>2024-06-07T13:56:39.021309</dc:date>
    <dc:format>image/svg+xml</dc:format>
    <dc:creator>
     <cc:Agent>
      <dc:title>Matplotlib v3.8.2, https://matplotlib.org/</dc:title>
     </cc:Agent>
    </dc:creator>
   </cc:Work>
  </rdf:RDF>
 </metadata>
 <defs>
  <style type="text/css">*{stroke-linejoin: round; stroke-linecap: butt}</style>
 </defs>
 <g id="figure_1">
  <g id="patch_1">
   <path d="M 0 345.6 
L 460.8 345.6 
L 460.8 0 
L 0 0 
L 0 345.6 
z
" style="fill: none"/>
  </g>
  <g id="patch_2">
   <path d="M 103.104 307.584 
L 369.216 307.584 
L 369.216 41.472 
L 103.104 41.472 
L 103.104 307.584 
z
" style="fill: none"/>
  </g>
  <g id="pane3d_1">
   <g id="patch_3">
    <path d="M 201.674057 138.701786 
L 347.924217 186.259404 
L 354.830775 95.393142 
L 199.326956 48.060157 
" style="fill: #f2f2f2; opacity: 0.5; stroke: #f2f2f2; stroke-linejoin: miter"/>
   </g>
  </g>
  <g id="pane3d_2">
   <g id="patch_4">
    <path d="M 201.674057 138.701786 
L 127.232572 244.795996 
L 119.739362 153.925418 
L 199.326956 48.060157 
" style="fill: #e6e6e6; opacity: 0.5; stroke: #e6e6e6; stroke-linejoin: miter"/>
   </g>
  </g>
  <g id="pane3d_3">
   <g id="patch_5">
    <path d="M 201.674057 138.701786 
L 127.232572 244.795996 
L 282.204727 299.941166 
L 347.924217 186.259404 
" style="fill: #ececec; opacity: 0.5; stroke: #ececec; stroke-linejoin: miter"/>
   </g>
  </g>
  <g id="grid3d_1">
   <g id="Line3DCollection_1">
    <path d="M 342.800866 195.121791 
L 195.857073 146.992168 
L 193.134515 56.297174 
" style="fill: none; stroke: #b0b0b0; stroke-width: 0.8"/>
    <path d="M 328.223311 220.338088 
L 179.318593 170.562855 
L 175.50394 79.748888 
" style="fill: none; stroke: #b0b0b0; stroke-width: 0.8"/>
    <path d="M 313.134294 246.439113 
L 162.219593 194.932397 
L 157.237436 104.046496 
" style="fill: none; stroke: #b0b0b0; stroke-width: 0.8"/>
    <path d="M 297.506417 273.472259 
L 144.531085 220.142108 
L 138.299965 129.236607 
" style="fill: none; stroke: #b0b0b0; stroke-width: 0.8"/>
   </g>
  </g>
  <g id="grid3d_2">
   <g id="Line3DCollection_2">
    <path d="M 224.99419 55.87287 
L 225.855981 146.565262 
L 152.802051 253.894619 
" style="fill: none; stroke: #b0b0b0; stroke-width: 0.8"/>
    <path d="M 256.526535 65.470834 
L 255.540805 156.218172 
L 184.219713 265.074255 
" style="fill: none; stroke: #b0b0b0; stroke-width: 0.8"/>
    <path d="M 288.519603 75.209035 
L 285.633691 166.003774 
L 216.102522 276.419409 
" style="fill: none; stroke: #b0b0b0; stroke-width: 0.8"/>
    <path d="M 320.983567 85.09057 
L 316.143109 175.924825 
L 248.460883 287.933783 
" style="fill: none; stroke: #b0b0b0; stroke-width: 0.8"/>
   </g>
  </g>
  <g id="grid3d_3">
   <g id="Line3DCollection_3">
    <path d="M 127.066762 242.78521 
L 201.621883 136.686904 
L 348.07743 184.243646 
" style="fill: none; stroke: #b0b0b0; stroke-width: 0.8"/>
    <path d="M 126.192492 232.182888 
L 201.346963 126.069871 
L 348.884995 173.618908 
" style="fill: none; stroke: #b0b0b0; stroke-width: 0.8"/>
    <path d="M 125.304551 221.414769 
L 201.06805 115.298645 
L 349.704691 162.83456 
" style="fill: none; stroke: #b0b0b0; stroke-width: 0.8"/>
    <path d="M 124.402614 210.476934 
L 200.785056 104.36984 
L 350.536794 151.886977 
" style="fill: none; stroke: #b0b0b0; stroke-width: 0.8"/>
    <path d="M 123.486349 199.365338 
L 200.497892 93.279975 
L 351.381589 140.772426 
" style="fill: none; stroke: #b0b0b0; stroke-width: 0.8"/>
    <path d="M 122.555412 188.075808 
L 200.206464 82.025461 
L 352.239366 129.487057 
" style="fill: none; stroke: #b0b0b0; stroke-width: 0.8"/>
    <path d="M 121.609446 176.604034 
L 199.910677 70.602605 
L 353.110429 118.026901 
" style="fill: none; stroke: #b0b0b0; stroke-width: 0.8"/>
    <path d="M 120.648086 164.945569 
L 199.610433 59.007602 
L 353.995089 106.387867 
" style="fill: none; stroke: #b0b0b0; stroke-width: 0.8"/>
   </g>
  </g>
  <g id="axis3d_1">
   <g id="line2d_1">
    <path d="M 347.924217 186.259404 
L 282.204727 299.941166 
" style="fill: none; stroke: #000000; stroke-width: 0.8; stroke-linecap: square"/>
   </g>
   <g id="xtick_1">
    <g id="line2d_2">
     <path d="M 341.585647 194.723761 
L 345.233289 195.918501 
" style="fill: none; stroke: #000000; stroke-width: 0.8; stroke-linecap: square"/>
    </g>
    <g id="text_1">
     <!-- −0.2 -->
     <g transform="translate(342.723958 213.910782) scale(0.1 -0.1)">
      <defs>
       <path id="DejaVuSans-2212" d="M 678 2272 
L 4684 2272 
L 4684 1741 
L 678 1741 
L 678 2272 
z
" transform="scale(0.015625)"/>
       <path id="DejaVuSans-30" d="M 2034 4250 
Q 1547 4250 1301 3770 
Q 1056 3291 1056 2328 
Q 1056 1369 1301 889 
Q 1547 409 2034 409 
Q 2525 409 2770 889 
Q 3016 1369 3016 2328 
Q 3016 3291 2770 3770 
Q 2525 4250 2034 4250 
z
M 2034 4750 
Q 2819 4750 3233 4129 
Q 3647 3509 3647 2328 
Q 3647 1150 3233 529 
Q 2819 -91 2034 -91 
Q 1250 -91 836 529 
Q 422 1150 422 2328 
Q 422 3509 836 4129 
Q 1250 4750 2034 4750 
z
" transform="scale(0.015625)"/>
       <path id="DejaVuSans-2e" d="M 684 794 
L 1344 794 
L 1344 0 
L 684 0 
L 684 794 
z
" transform="scale(0.015625)"/>
       <path id="DejaVuSans-32" d="M 1228 531 
L 3431 531 
L 3431 0 
L 469 0 
L 469 531 
Q 828 903 1448 1529 
Q 2069 2156 2228 2338 
Q 2531 2678 2651 2914 
Q 2772 3150 2772 3378 
Q 2772 3750 2511 3984 
Q 2250 4219 1831 4219 
Q 1534 4219 1204 4116 
Q 875 4013 500 3803 
L 500 4441 
Q 881 4594 1212 4672 
Q 1544 4750 1819 4750 
Q 2544 4750 2975 4387 
Q 3406 4025 3406 3419 
Q 3406 3131 3298 2873 
Q 3191 2616 2906 2266 
Q 2828 2175 2409 1742 
Q 1991 1309 1228 531 
z
" transform="scale(0.015625)"/>
      </defs>
      <use xlink:href="#DejaVuSans-2212"/>
      <use xlink:href="#DejaVuSans-30" x="83.789062"/>
      <use xlink:href="#DejaVuSans-2e" x="147.412109"/>
      <use xlink:href="#DejaVuSans-32" x="179.199219"/>
     </g>
    </g>
   </g>
   <g id="xtick_2">
    <g id="line2d_3">
     <path d="M 326.991183 219.926217 
L 330.689615 221.162514 
" style="fill: none; stroke: #000000; stroke-width: 0.8; stroke-linecap: square"/>
    </g>
    <g id="text_2">
     <!-- 0.0 -->
     <g transform="translate(332.57614 239.263605) scale(0.1 -0.1)">
      <use xlink:href="#DejaVuSans-30"/>
      <use xlink:href="#DejaVuSans-2e" x="63.623047"/>
      <use xlink:href="#DejaVuSans-30" x="95.410156"/>
     </g>
    </g>
   </g>
   <g id="xtick_3">
    <g id="line2d_4">
     <path d="M 311.884807 246.012667 
L 315.635381 247.292726 
" style="fill: none; stroke: #000000; stroke-width: 0.8; stroke-linecap: square"/>
    </g>
    <g id="text_3">
     <!-- 0.2 -->
     <g transform="translate(317.736569 265.503938) scale(0.1 -0.1)">
      <use xlink:href="#DejaVuSans-30"/>
      <use xlink:href="#DejaVuSans-2e" x="63.623047"/>
      <use xlink:href="#DejaVuSans-32" x="95.410156"/>
     </g>
    </g>
   </g>
   <g id="xtick_4">
    <g id="line2d_5">
     <path d="M 296.239106 273.03045 
L 300.04322 274.356638 
" style="fill: none; stroke: #000000; stroke-width: 0.8; stroke-linecap: square"/>
    </g>
    <g id="text_4">
     <!-- 0.4 -->
     <g transform="translate(302.368264 292.679212) scale(0.1 -0.1)">
      <defs>
       <path id="DejaVuSans-34" d="M 2419 4116 
L 825 1625 
L 2419 1625 
L 2419 4116 
z
M 2253 4666 
L 3047 4666 
L 3047 1625 
L 3713 1625 
L 3713 1100 
L 3047 1100 
L 3047 0 
L 2419 0 
L 2419 1100 
L 313 1100 
L 313 1709 
L 2253 4666 
z
" transform="scale(0.015625)"/>
      </defs>
      <use xlink:href="#DejaVuSans-30"/>
      <use xlink:href="#DejaVuSans-2e" x="63.623047"/>
      <use xlink:href="#DejaVuSans-34" x="95.410156"/>
     </g>
    </g>
   </g>
   <g id="text_5">
    <!-- PC1: 50.43% -->
    <g transform="translate(329.766663 294.86688) rotate(-59.967769) scale(0.1 -0.1)">
     <defs>
      <path id="DejaVuSans-50" d="M 1259 4147 
L 1259 2394 
L 2053 2394 
Q 2494 2394 2734 2622 
Q 2975 2850 2975 3272 
Q 2975 3691 2734 3919 
Q 2494 4147 2053 4147 
L 1259 4147 
z
M 628 4666 
L 2053 4666 
Q 2838 4666 3239 4311 
Q 3641 3956 3641 3272 
Q 3641 2581 3239 2228 
Q 2838 1875 2053 1875 
L 1259 1875 
L 1259 0 
L 628 0 
L 628 4666 
z
" transform="scale(0.015625)"/>
      <path id="DejaVuSans-43" d="M 4122 4306 
L 4122 3641 
Q 3803 3938 3442 4084 
Q 3081 4231 2675 4231 
Q 1875 4231 1450 3742 
Q 1025 3253 1025 2328 
Q 1025 1406 1450 917 
Q 1875 428 2675 428 
Q 3081 428 3442 575 
Q 3803 722 4122 1019 
L 4122 359 
Q 3791 134 3420 21 
Q 3050 -91 2638 -91 
Q 1578 -91 968 557 
Q 359 1206 359 2328 
Q 359 3453 968 4101 
Q 1578 4750 2638 4750 
Q 3056 4750 3426 4639 
Q 3797 4528 4122 4306 
z
" transform="scale(0.015625)"/>
      <path id="DejaVuSans-31" d="M 794 531 
L 1825 531 
L 1825 4091 
L 703 3866 
L 703 4441 
L 1819 4666 
L 2450 4666 
L 2450 531 
L 3481 531 
L 3481 0 
L 794 0 
L 794 531 
z
" transform="scale(0.015625)"/>
      <path id="DejaVuSans-3a" d="M 750 794 
L 1409 794 
L 1409 0 
L 750 0 
L 750 794 
z
M 750 3309 
L 1409 3309 
L 1409 2516 
L 750 2516 
L 750 3309 
z
" transform="scale(0.015625)"/>
      <path id="DejaVuSans-20" transform="scale(0.015625)"/>
      <path id="DejaVuSans-35" d="M 691 4666 
L 3169 4666 
L 3169 4134 
L 1269 4134 
L 1269 2991 
Q 1406 3038 1543 3061 
Q 1681 3084 1819 3084 
Q 2600 3084 3056 2656 
Q 3513 2228 3513 1497 
Q 3513 744 3044 326 
Q 2575 -91 1722 -91 
Q 1428 -91 1123 -41 
Q 819 9 494 109 
L 494 744 
Q 775 591 1075 516 
Q 1375 441 1709 441 
Q 2250 441 2565 725 
Q 2881 1009 2881 1497 
Q 2881 1984 2565 2268 
Q 2250 2553 1709 2553 
Q 1456 2553 1204 2497 
Q 953 2441 691 2322 
L 691 4666 
z
" transform="scale(0.015625)"/>
      <path id="DejaVuSans-33" d="M 2597 2516 
Q 3050 2419 3304 2112 
Q 3559 1806 3559 1356 
Q 3559 666 3084 287 
Q 2609 -91 1734 -91 
Q 1441 -91 1130 -33 
Q 819 25 488 141 
L 488 750 
Q 750 597 1062 519 
Q 1375 441 1716 441 
Q 2309 441 2620 675 
Q 2931 909 2931 1356 
Q 2931 1769 2642 2001 
Q 2353 2234 1838 2234 
L 1294 2234 
L 1294 2753 
L 1863 2753 
Q 2328 2753 2575 2939 
Q 2822 3125 2822 3475 
Q 2822 3834 2567 4026 
Q 2313 4219 1838 4219 
Q 1578 4219 1281 4162 
Q 984 4106 628 3988 
L 628 4550 
Q 988 4650 1302 4700 
Q 1616 4750 1894 4750 
Q 2613 4750 3031 4423 
Q 3450 4097 3450 3541 
Q 3450 3153 3228 2886 
Q 3006 2619 2597 2516 
z
" transform="scale(0.015625)"/>
      <path id="DejaVuSans-25" d="M 4653 2053 
Q 4381 2053 4226 1822 
Q 4072 1591 4072 1178 
Q 4072 772 4226 539 
Q 4381 306 4653 306 
Q 4919 306 5073 539 
Q 5228 772 5228 1178 
Q 5228 1588 5073 1820 
Q 4919 2053 4653 2053 
z
M 4653 2450 
Q 5147 2450 5437 2106 
Q 5728 1763 5728 1178 
Q 5728 594 5436 251 
Q 5144 -91 4653 -91 
Q 4153 -91 3862 251 
Q 3572 594 3572 1178 
Q 3572 1766 3864 2108 
Q 4156 2450 4653 2450 
z
M 1428 4353 
Q 1159 4353 1004 4120 
Q 850 3888 850 3481 
Q 850 3069 1003 2837 
Q 1156 2606 1428 2606 
Q 1700 2606 1854 2837 
Q 2009 3069 2009 3481 
Q 2009 3884 1853 4118 
Q 1697 4353 1428 4353 
z
M 4250 4750 
L 4750 4750 
L 1831 -91 
L 1331 -91 
L 4250 4750 
z
M 1428 4750 
Q 1922 4750 2215 4408 
Q 2509 4066 2509 3481 
Q 2509 2891 2217 2550 
Q 1925 2209 1428 2209 
Q 931 2209 642 2551 
Q 353 2894 353 3481 
Q 353 4063 643 4406 
Q 934 4750 1428 4750 
z
" transform="scale(0.015625)"/>
     </defs>
     <use xlink:href="#DejaVuSans-50"/>
     <use xlink:href="#DejaVuSans-43" x="60.302734"/>
     <use xlink:href="#DejaVuSans-31" x="130.126953"/>
     <use xlink:href="#DejaVuSans-3a" x="193.75"/>
     <use xlink:href="#DejaVuSans-20" x="227.441406"/>
     <use xlink:href="#DejaVuSans-35" x="259.228516"/>
     <use xlink:href="#DejaVuSans-30" x="322.851562"/>
     <use xlink:href="#DejaVuSans-2e" x="386.474609"/>
     <use xlink:href="#DejaVuSans-34" x="418.261719"/>
     <use xlink:href="#DejaVuSans-33" x="481.884766"/>
     <use xlink:href="#DejaVuSans-25" x="545.507812"/>
    </g>
   </g>
  </g>
  <g id="axis3d_2">
   <g id="line2d_6">
    <path d="M 127.232572 244.795996 
L 282.204727 299.941166 
" style="fill: none; stroke: #000000; stroke-width: 0.8; stroke-linecap: square"/>
   </g>
   <g id="xtick_5">
    <g id="line2d_7">
     <path d="M 153.43046 252.971374 
L 151.542942 255.744477 
" style="fill: none; stroke: #000000; stroke-width: 0.8; stroke-linecap: square"/>
    </g>
    <g id="text_6">
     <!-- −0.2 -->
     <g transform="translate(134.585668 278.156611) scale(0.1 -0.1)">
      <use xlink:href="#DejaVuSans-2212"/>
      <use xlink:href="#DejaVuSans-30" x="83.789062"/>
      <use xlink:href="#DejaVuSans-2e" x="147.412109"/>
      <use xlink:href="#DejaVuSans-32" x="179.199219"/>
     </g>
    </g>
   </g>
   <g id="xtick_6">
    <g id="line2d_8">
     <path d="M 184.833531 264.137396 
L 182.989822 266.951417 
" style="fill: none; stroke: #000000; stroke-width: 0.8; stroke-linecap: square"/>
    </g>
    <g id="text_7">
     <!-- −0.1 -->
     <g transform="translate(165.993053 289.471074) scale(0.1 -0.1)">
      <use xlink:href="#DejaVuSans-2212"/>
      <use xlink:href="#DejaVuSans-30" x="83.789062"/>
      <use xlink:href="#DejaVuSans-2e" x="147.412109"/>
      <use xlink:href="#DejaVuSans-31" x="179.199219"/>
     </g>
    </g>
   </g>
   <g id="xtick_7">
    <g id="line2d_9">
     <path d="M 216.701247 275.468632 
L 214.902855 278.324482 
" style="fill: none; stroke: #000000; stroke-width: 0.8; stroke-linecap: square"/>
    </g>
    <g id="text_8">
     <!-- 0.0 -->
     <g transform="translate(202.055789 300.953235) scale(0.1 -0.1)">
      <use xlink:href="#DejaVuSans-30"/>
      <use xlink:href="#DejaVuSans-2e" x="63.623047"/>
      <use xlink:href="#DejaVuSans-30" x="95.410156"/>
     </g>
    </g>
   </g>
   <g id="xtick_8">
    <g id="line2d_10">
     <path d="M 249.043995 286.968776 
L 247.292484 289.867395 
" style="fill: none; stroke: #000000; stroke-width: 0.8; stroke-linecap: square"/>
    </g>
    <g id="text_9">
     <!-- 0.1 -->
     <g transform="translate(234.404615 312.606851) scale(0.1 -0.1)">
      <use xlink:href="#DejaVuSans-30"/>
      <use xlink:href="#DejaVuSans-2e" x="63.623047"/>
      <use xlink:href="#DejaVuSans-31" x="95.410156"/>
     </g>
    </g>
   </g>
   <g id="text_10">
    <!-- PC2: 13.00% -->
    <g transform="translate(158.974685 300.482184) rotate(-340.412447) scale(0.1 -0.1)">
     <use xlink:href="#DejaVuSans-50"/>
     <use xlink:href="#DejaVuSans-43" x="60.302734"/>
     <use xlink:href="#DejaVuSans-32" x="130.126953"/>
     <use xlink:href="#DejaVuSans-3a" x="193.75"/>
     <use xlink:href="#DejaVuSans-20" x="227.441406"/>
     <use xlink:href="#DejaVuSans-31" x="259.228516"/>
     <use xlink:href="#DejaVuSans-33" x="322.851562"/>
     <use xlink:href="#DejaVuSans-2e" x="386.474609"/>
     <use xlink:href="#DejaVuSans-30" x="418.261719"/>
     <use xlink:href="#DejaVuSans-30" x="481.884766"/>
     <use xlink:href="#DejaVuSans-25" x="545.507812"/>
    </g>
   </g>
  </g>
  <g id="axis3d_3">
   <g id="line2d_11">
    <path d="M 127.232572 244.795996 
L 119.739362 153.925418 
" style="fill: none; stroke: #000000; stroke-width: 0.8; stroke-linecap: square"/>
   </g>
   <g id="xtick_9">
    <g id="line2d_12">
     <path d="M 127.707882 241.872843 
L 125.782196 244.613258 
" style="fill: none; stroke: #000000; stroke-width: 0.8; stroke-linecap: square"/>
    </g>
    <g id="text_11">
     <!-- −0.20 -->
     <g transform="translate(92.602769 255.453827) scale(0.1 -0.1)">
      <use xlink:href="#DejaVuSans-2212"/>
      <use xlink:href="#DejaVuSans-30" x="83.789062"/>
      <use xlink:href="#DejaVuSans-2e" x="147.412109"/>
      <use xlink:href="#DejaVuSans-32" x="179.199219"/>
      <use xlink:href="#DejaVuSans-30" x="242.822266"/>
     </g>
    </g>
   </g>
   <g id="xtick_10">
    <g id="line2d_13">
     <path d="M 126.839115 231.269901 
L 124.896881 234.012203 
" style="fill: none; stroke: #000000; stroke-width: 0.8; stroke-linecap: square"/>
    </g>
    <g id="text_12">
     <!-- −0.15 -->
     <g transform="translate(91.576536 244.855104) scale(0.1 -0.1)">
      <use xlink:href="#DejaVuSans-2212"/>
      <use xlink:href="#DejaVuSans-30" x="83.789062"/>
      <use xlink:href="#DejaVuSans-2e" x="147.412109"/>
      <use xlink:href="#DejaVuSans-31" x="179.199219"/>
      <use xlink:href="#DejaVuSans-35" x="242.822266"/>
     </g>
    </g>
   </g>
   <g id="xtick_11">
    <g id="line2d_14">
     <path d="M 125.956771 220.501255 
L 123.997705 223.245168 
" style="fill: none; stroke: #000000; stroke-width: 0.8; stroke-linecap: square"/>
    </g>
    <g id="text_13">
     <!-- −0.10 -->
     <g transform="translate(90.5342 234.090075) scale(0.1 -0.1)">
      <use xlink:href="#DejaVuSans-2212"/>
      <use xlink:href="#DejaVuSans-30" x="83.789062"/>
      <use xlink:href="#DejaVuSans-2e" x="147.412109"/>
      <use xlink:href="#DejaVuSans-31" x="179.199219"/>
      <use xlink:href="#DejaVuSans-30" x="242.822266"/>
     </g>
    </g>
   </g>
   <g id="xtick_12">
    <g id="line2d_15">
     <path d="M 125.060528 209.562989 
L 123.08434 212.308222 
" style="fill: none; stroke: #000000; stroke-width: 0.8; stroke-linecap: square"/>
    </g>
    <g id="text_14">
     <!-- −0.05 -->
     <g transform="translate(89.475379 223.154796) scale(0.1 -0.1)">
      <use xlink:href="#DejaVuSans-2212"/>
      <use xlink:href="#DejaVuSans-30" x="83.789062"/>
      <use xlink:href="#DejaVuSans-2e" x="147.412109"/>
      <use xlink:href="#DejaVuSans-30" x="179.199219"/>
      <use xlink:href="#DejaVuSans-35" x="242.822266"/>
     </g>
    </g>
   </g>
   <g id="xtick_13">
    <g id="line2d_16">
     <path d="M 124.150057 198.451063 
L 122.156446 201.197313 
" style="fill: none; stroke: #000000; stroke-width: 0.8; stroke-linecap: square"/>
    </g>
    <g id="text_15">
     <!-- 0.00 -->
     <g transform="translate(92.589523 212.045194) scale(0.1 -0.1)">
      <use xlink:href="#DejaVuSans-30"/>
      <use xlink:href="#DejaVuSans-2e" x="63.623047"/>
      <use xlink:href="#DejaVuSans-30" x="95.410156"/>
      <use xlink:href="#DejaVuSans-30" x="159.033203"/>
     </g>
    </g>
   </g>
   <g id="xtick_14">
    <g id="line2d_17">
     <path d="M 123.225015 187.16131 
L 121.213675 189.908257 
" style="fill: none; stroke: #000000; stroke-width: 0.8; stroke-linecap: square"/>
    </g>
    <g id="text_16">
     <!-- 0.05 -->
     <g transform="translate(91.496538 200.757069) scale(0.1 -0.1)">
      <use xlink:href="#DejaVuSans-30"/>
      <use xlink:href="#DejaVuSans-2e" x="63.623047"/>
      <use xlink:href="#DejaVuSans-30" x="95.410156"/>
      <use xlink:href="#DejaVuSans-35" x="159.033203"/>
     </g>
    </g>
   </g>
   <g id="xtick_15">
    <g id="line2d_18">
     <path d="M 122.28505 175.689425 
L 120.255666 178.436734 
" style="fill: none; stroke: #000000; stroke-width: 0.8; stroke-linecap: square"/>
    </g>
    <g id="text_17">
     <!-- 0.10 -->
     <g transform="translate(90.385847 189.286082) scale(0.1 -0.1)">
      <use xlink:href="#DejaVuSans-30"/>
      <use xlink:href="#DejaVuSans-2e" x="63.623047"/>
      <use xlink:href="#DejaVuSans-31" x="95.410156"/>
      <use xlink:href="#DejaVuSans-30" x="159.033203"/>
     </g>
    </g>
   </g>
   <g id="xtick_16">
    <g id="line2d_19">
     <path d="M 121.329798 164.030966 
L 119.282046 166.778284 
" style="fill: none; stroke: #000000; stroke-width: 0.8; stroke-linecap: square"/>
    </g>
    <g id="text_18">
     <!-- 0.15 -->
     <g transform="translate(89.257016 177.627753) scale(0.1 -0.1)">
      <use xlink:href="#DejaVuSans-30"/>
      <use xlink:href="#DejaVuSans-2e" x="63.623047"/>
      <use xlink:href="#DejaVuSans-31" x="95.410156"/>
      <use xlink:href="#DejaVuSans-35" x="159.033203"/>
     </g>
    </g>
   </g>
   <g id="text_19">
    <!-- PC3: 7.47% -->
    <g transform="translate(75.391391 183.395712) rotate(-274.713959) scale(0.1 -0.1)">
     <defs>
      <path id="DejaVuSans-37" d="M 525 4666 
L 3525 4666 
L 3525 4397 
L 1831 0 
L 1172 0 
L 2766 4134 
L 525 4134 
L 525 4666 
z
" transform="scale(0.015625)"/>
     </defs>
     <use xlink:href="#DejaVuSans-50"/>
     <use xlink:href="#DejaVuSans-43" x="60.302734"/>
     <use xlink:href="#DejaVuSans-33" x="130.126953"/>
     <use xlink:href="#DejaVuSans-3a" x="193.75"/>
     <use xlink:href="#DejaVuSans-20" x="227.441406"/>
     <use xlink:href="#DejaVuSans-37" x="259.228516"/>
     <use xlink:href="#DejaVuSans-2e" x="322.851562"/>
     <use xlink:href="#DejaVuSans-34" x="354.638672"/>
     <use xlink:href="#DejaVuSans-37" x="418.261719"/>
     <use xlink:href="#DejaVuSans-25" x="481.884766"/>
    </g>
   </g>
  </g>
  <g id="axes_1">
   <g id="Path3DCollection_1">
    <defs>
     <path id="mf6d290135d" d="M 0 2.236068 
C 0.593012 2.236068 1.161816 2.000462 1.581139 1.581139 
C 2.000462 1.161816 2.236068 0.593012 2.236068 0 
C 2.236068 -0.593012 2.000462 -1.161816 1.581139 -1.581139 
C 1.161816 -2.000462 0.593012 -2.236068 0 -2.236068 
C -0.593012 -2.236068 -1.161816 -2.000462 -1.581139 -1.581139 
C -2.000462 -1.161816 -2.236068 -0.593012 -2.236068 0 
C -2.236068 0.593012 -2.000462 1.161816 -1.581139 1.581139 
C -1.161816 2.000462 -0.593012 2.236068 0 2.236068 
z
" style="stroke: #0000ff"/>
    </defs>
    <g clip-path="url(#pbf5f646263)">
     <use xlink:href="#mf6d290135d" x="204.947437" y="114.921257" style="fill: #0000ff; stroke: #0000ff"/>
    </g>
   </g>
   <g id="Path3DCollection_2">
    <defs>
     <path id="m8dcbf79bbb" d="M -2.236068 2.236068 
L 2.236068 2.236068 
L 2.236068 -2.236068 
L -2.236068 -2.236068 
z
" style="stroke: #ff0000"/>
    </defs>
    <g clip-path="url(#pbf5f646263)">
     <use xlink:href="#m8dcbf79bbb" x="209.739312" y="119.152525" style="fill: #ff0000; stroke: #ff0000"/>
    </g>
   </g>
   <g id="Path3DCollection_3">
    <g clip-path="url(#pbf5f646263)">
     <use xlink:href="#m8dcbf79bbb" x="208.413509" y="112.942292" style="fill: #ff0000; stroke: #ff0000"/>
    </g>
   </g>
   <g id="Path3DCollection_4">
    <g clip-path="url(#pbf5f646263)">
     <use xlink:href="#m8dcbf79bbb" x="207.531615" y="111.428662" style="fill: #ff0000; stroke: #ff0000"/>
    </g>
   </g>
   <g id="Path3DCollection_5">
    <defs>
     <path id="m5db7fc0e22" d="M -2.236068 2.236068 
L 2.236068 2.236068 
L 2.236068 -2.236068 
L -2.236068 -2.236068 
z
" style="stroke: #0000ff"/>
    </defs>
    <g clip-path="url(#pbf5f646263)">
     <use xlink:href="#m5db7fc0e22" x="221.065555" y="125.277773" style="fill: #0000ff; stroke: #0000ff"/>
    </g>
   </g>
   <g id="Path3DCollection_6">
    <defs>
     <path id="m67751b489a" d="M 0 2.236068 
C 0.593012 2.236068 1.161816 2.000462 1.581139 1.581139 
C 2.000462 1.161816 2.236068 0.593012 2.236068 0 
C 2.236068 -0.593012 2.000462 -1.161816 1.581139 -1.581139 
C 1.161816 -2.000462 0.593012 -2.236068 0 -2.236068 
C -0.593012 -2.236068 -1.161816 -2.000462 -1.581139 -1.581139 
C -2.000462 -1.161816 -2.236068 -0.593012 -2.236068 0 
C -2.236068 0.593012 -2.000462 1.161816 -1.581139 1.581139 
C -1.161816 2.000462 -0.593012 2.236068 0 2.236068 
z
" style="stroke: #ff0000"/>
    </defs>
    <g clip-path="url(#pbf5f646263)">
     <use xlink:href="#m67751b489a" x="271.185195" y="193.878035" style="fill: #ff0000; stroke: #ff0000"/>
    </g>
   </g>
   <g id="Path3DCollection_7">
    <defs>
     <path id="m387acb2cf6" d="M -2.236068 2.236068 
L 2.236068 2.236068 
L 2.236068 -2.236068 
L -2.236068 -2.236068 
z
" style="stroke: #008000"/>
    </defs>
    <g clip-path="url(#pbf5f646263)">
     <use xlink:href="#m387acb2cf6" x="262.000071" y="143.485539" style="fill: #008000; stroke: #008000"/>
    </g>
   </g>
   <g id="Path3DCollection_8">
    <defs>
     <path id="m16c0904a0a" d="M 0 -2.236068 
L -2.236068 2.236068 
L 2.236068 2.236068 
z
" style="stroke: #ff0000"/>
    </defs>
    <g clip-path="url(#pbf5f646263)">
     <use xlink:href="#m16c0904a0a" x="288.099335" y="188.26483" style="fill: #ff0000; stroke: #ff0000"/>
    </g>
   </g>
   <g id="Path3DCollection_9">
    <g clip-path="url(#pbf5f646263)">
     <use xlink:href="#m8dcbf79bbb" x="242.577494" y="122.10811" style="fill: #ff0000; stroke: #ff0000"/>
    </g>
   </g>
   <g id="Path3DCollection_10">
    <g clip-path="url(#pbf5f646263)">
     <use xlink:href="#mf6d290135d" x="230.693407" y="100.278561" style="fill: #0000ff; stroke: #0000ff"/>
    </g>
   </g>
   <g id="Path3DCollection_11">
    <g clip-path="url(#pbf5f646263)">
     <use xlink:href="#m387acb2cf6" x="287.220708" y="156.006904" style="fill: #008000; stroke: #008000"/>
    </g>
   </g>
   <g id="Path3DCollection_12">
    <g clip-path="url(#pbf5f646263)">
     <use xlink:href="#m67751b489a" x="263.400271" y="133.066612" style="fill: #ff0000; stroke: #ff0000"/>
    </g>
   </g>
   <g id="Path3DCollection_13">
    <g clip-path="url(#pbf5f646263)">
     <use xlink:href="#m67751b489a" x="259.612783" y="117.860041" style="fill: #ff0000; stroke: #ff0000"/>
    </g>
   </g>
   <g id="Path3DCollection_14">
    <g clip-path="url(#pbf5f646263)">
     <use xlink:href="#m387acb2cf6" x="299.210366" y="165.827316" style="fill: #008000; stroke: #008000"/>
    </g>
   </g>
   <g id="Path3DCollection_15">
    <g clip-path="url(#pbf5f646263)">
     <use xlink:href="#m16c0904a0a" x="291.736235" y="156.781042" style="fill: #ff0000; stroke: #ff0000"/>
    </g>
   </g>
   <g id="Path3DCollection_16">
    <g clip-path="url(#pbf5f646263)">
     <use xlink:href="#m5db7fc0e22" x="281.399527" y="142.467245" style="fill: #0000ff; stroke: #0000ff"/>
    </g>
   </g>
   <g id="Path3DCollection_17">
    <g clip-path="url(#pbf5f646263)">
     <use xlink:href="#m67751b489a" x="300.101149" y="172.082048" style="fill: #ff0000; stroke: #ff0000"/>
    </g>
   </g>
   <g id="Path3DCollection_18">
    <g clip-path="url(#pbf5f646263)">
     <use xlink:href="#m5db7fc0e22" x="305.107466" y="188.188575" style="fill: #0000ff; stroke: #0000ff"/>
    </g>
   </g>
   <g id="Path3DCollection_19">
    <g clip-path="url(#pbf5f646263)">
     <use xlink:href="#mf6d290135d" x="298.489063" y="167.423052" style="fill: #0000ff; stroke: #0000ff"/>
    </g>
   </g>
   <g id="Path3DCollection_20">
    <defs>
     <path id="mc3c0781001" d="M 0 2.236068 
C 0.593012 2.236068 1.161816 2.000462 1.581139 1.581139 
C 2.000462 1.161816 2.236068 0.593012 2.236068 0 
C 2.236068 -0.593012 2.000462 -1.161816 1.581139 -1.581139 
C 1.161816 -2.000462 0.593012 -2.236068 0 -2.236068 
C -0.593012 -2.236068 -1.161816 -2.000462 -1.581139 -1.581139 
C -2.000462 -1.161816 -2.236068 -0.593012 -2.236068 0 
C -2.236068 0.593012 -2.000462 1.161816 -1.581139 1.581139 
C -1.161816 2.000462 -0.593012 2.236068 0 2.236068 
z
" style="stroke: #008000"/>
    </defs>
    <g clip-path="url(#pbf5f646263)">
     <use xlink:href="#mc3c0781001" x="297.93861" y="200.326665" style="fill: #008000; stroke: #008000"/>
    </g>
   </g>
   <g id="Path3DCollection_21">
    <g clip-path="url(#pbf5f646263)">
     <use xlink:href="#m5db7fc0e22" x="303.449519" y="201.503998" style="fill: #0000ff; stroke: #0000ff"/>
    </g>
   </g>
   <g id="Path3DCollection_22">
    <g clip-path="url(#pbf5f646263)">
     <use xlink:href="#m16c0904a0a" x="309.058959" y="173.271991" style="fill: #ff0000; stroke: #ff0000"/>
    </g>
   </g>
   <g id="Path3DCollection_23">
    <g clip-path="url(#pbf5f646263)">
     <use xlink:href="#m387acb2cf6" x="307.011301" y="198.608739" style="fill: #008000; stroke: #008000"/>
    </g>
   </g>
   <g id="Path3DCollection_24">
    <g clip-path="url(#pbf5f646263)">
     <use xlink:href="#mc3c0781001" x="249.602508" y="91.415685" style="fill: #008000; stroke: #008000"/>
    </g>
   </g>
   <g id="Path3DCollection_25">
    <g clip-path="url(#pbf5f646263)">
     <use xlink:href="#m16c0904a0a" x="312.384032" y="183.945556" style="fill: #ff0000; stroke: #ff0000"/>
    </g>
   </g>
   <g id="Path3DCollection_26">
    <g clip-path="url(#pbf5f646263)">
     <use xlink:href="#m67751b489a" x="283.450211" y="122.030624" style="fill: #ff0000; stroke: #ff0000"/>
    </g>
   </g>
   <g id="Path3DCollection_27">
    <g clip-path="url(#pbf5f646263)">
     <use xlink:href="#m67751b489a" x="282.15902" y="114.035854" style="fill: #ff0000; stroke: #ff0000"/>
    </g>
   </g>
   <g id="Path3DCollection_28">
    <g clip-path="url(#pbf5f646263)">
     <use xlink:href="#mc3c0781001" x="263.668829" y="89.082456" style="fill: #008000; stroke: #008000"/>
    </g>
   </g>
   <g id="Path3DCollection_29">
    <g clip-path="url(#pbf5f646263)">
     <use xlink:href="#mf6d290135d" x="271.629203" y="95.164313" style="fill: #0000ff; stroke: #0000ff"/>
    </g>
   </g>
   <g id="Path3DCollection_30">
    <g clip-path="url(#pbf5f646263)">
     <use xlink:href="#mc3c0781001" x="287.036097" y="111.01651" style="fill: #008000; stroke: #008000"/>
    </g>
   </g>
   <g id="Path3DCollection_31">
    <g clip-path="url(#pbf5f646263)">
     <use xlink:href="#mc3c0781001" x="323.692039" y="163.251649" style="fill: #008000; stroke: #008000"/>
    </g>
   </g>
   <g id="Path3DCollection_32">
    <g clip-path="url(#pbf5f646263)">
     <use xlink:href="#mf6d290135d" x="308.033154" y="127.869838" style="fill: #0000ff; stroke: #0000ff"/>
    </g>
   </g>
   <g id="Path3DCollection_33">
    <g clip-path="url(#pbf5f646263)">
     <use xlink:href="#m67751b489a" x="305.271233" y="124.118786" style="fill: #ff0000; stroke: #ff0000"/>
    </g>
   </g>
   <g id="Path3DCollection_34">
    <g clip-path="url(#pbf5f646263)">
     <use xlink:href="#mf6d290135d" x="315.92659" y="166.364831" style="fill: #0000ff; stroke: #0000ff"/>
    </g>
   </g>
   <g id="Path3DCollection_35">
    <g clip-path="url(#pbf5f646263)">
     <use xlink:href="#mc3c0781001" x="316.941083" y="118.851425" style="fill: #008000; stroke: #008000"/>
    </g>
   </g>
   <g id="Path3DCollection_36">
    <g clip-path="url(#pbf5f646263)">
     <use xlink:href="#mc3c0781001" x="324.675125" y="140.39394" style="fill: #008000; stroke: #008000"/>
    </g>
   </g>
   <g id="Path3DCollection_37">
    <g clip-path="url(#pbf5f646263)">
     <use xlink:href="#mf6d290135d" x="325.724967" y="133.257495" style="fill: #0000ff; stroke: #0000ff"/>
    </g>
   </g>
   <g id="Path3DCollection_38">
    <defs>
     <path id="m32b4eef8c4" d="M 0 -2.236068 
L -2.236068 2.236068 
L 2.236068 2.236068 
z
" style="stroke: #008000"/>
    </defs>
    <g clip-path="url(#pbf5f646263)">
     <use xlink:href="#m32b4eef8c4" x="208.665297" y="206.65503" style="fill: #008000; stroke: #008000"/>
    </g>
   </g>
   <g id="Path3DCollection_39">
    <g clip-path="url(#pbf5f646263)">
     <use xlink:href="#m32b4eef8c4" x="197.565741" y="208.216211" style="fill: #008000; stroke: #008000"/>
    </g>
   </g>
   <g id="Path3DCollection_40">
    <g clip-path="url(#pbf5f646263)">
     <use xlink:href="#m32b4eef8c4" x="192.276785" y="208.497255" style="fill: #008000; stroke: #008000"/>
    </g>
   </g>
   <g id="Path3DCollection_41">
    <defs>
     <path id="md265f2b6ff" d="M 0 -2.236068 
L -2.236068 2.236068 
L 2.236068 2.236068 
z
" style="stroke: #0000ff"/>
    </defs>
    <g clip-path="url(#pbf5f646263)">
     <use xlink:href="#md265f2b6ff" x="185.602884" y="209.845144" style="fill: #0000ff; stroke: #0000ff"/>
    </g>
   </g>
   <g id="Path3DCollection_42">
    <g clip-path="url(#pbf5f646263)">
     <use xlink:href="#md265f2b6ff" x="186.715803" y="208.651879" style="fill: #0000ff; stroke: #0000ff"/>
    </g>
   </g>
   <g id="Path3DCollection_43">
    <g clip-path="url(#pbf5f646263)">
     <use xlink:href="#md265f2b6ff" x="226.597192" y="200.49044" style="fill: #0000ff; stroke: #0000ff"/>
    </g>
   </g>
   <g id="Path3DCollection_44">
    <g clip-path="url(#pbf5f646263)">
     <use xlink:href="#m32b4eef8c4" x="216.24833" y="203.310541" style="fill: #008000; stroke: #008000"/>
    </g>
   </g>
   <g id="Path3DCollection_45">
    <g clip-path="url(#pbf5f646263)">
     <use xlink:href="#md265f2b6ff" x="213.468846" y="202.38414" style="fill: #0000ff; stroke: #0000ff"/>
    </g>
   </g>
  </g>
 </g>
 <defs>
  <clipPath id="pbf5f646263">
   <rect x="103.104" y="41.472" width="266.112" height="266.112"/>
  </clipPath>
 </defs>
</svg>
