<?xml version="1.0" encoding="utf-8" standalone="no"?>
<!DOCTYPE svg PUBLIC "-//W3C//DTD SVG 1.1//EN"
  "http://www.w3.org/Graphics/SVG/1.1/DTD/svg11.dtd">
<svg xmlns:xlink="http://www.w3.org/1999/xlink" width="460.8pt" height="345.6pt" viewBox="0 0 460.8 345.6" xmlns="http://www.w3.org/2000/svg" version="1.1">
 <metadata>
  <rdf:RDF xmlns:dc="http://purl.org/dc/elements/1.1/" xmlns:cc="http://creativecommons.org/ns#" xmlns:rdf="http://www.w3.org/1999/02/22-rdf-syntax-ns#">
   <cc:Work>
    <dc:type rdf:resource="http://purl.org/dc/dcmitype/StillImage"/>
    <dc:date>2024-06-07T14:15:09.388180</dc:date>
    <dc:format>image/svg+xml</dc:format>
    <dc:creator>
     <cc:Agent>
      <dc:title>Matplotlib v3.8.2, https://matplotlib.org/</dc:title>
     </cc:Agent>
    </dc:creator>
   </cc:Work>
  </rdf:RDF>
 </metadata>
 <defs>
  <style type="text/css">*{stroke-linejoin: round; stroke-linecap: butt}</style>
 </defs>
 <g id="figure_1">
  <g id="patch_1">
   <path d="M 0 345.6 
L 460.8 345.6 
L 460.8 0 
L 0 0 
L 0 345.6 
z
" style="fill: none"/>
  </g>
  <g id="axes_1">
   <g id="patch_2">
    <path d="M 47.72 303.64 
L 422.53 303.64 
L 422.53 10.8 
L 47.72 10.8 
L 47.72 303.64 
z
" style="fill: none"/>
   </g>
   <g id="patch_3">
    <path d="M 64.756818 303.64 
L 104.843449 303.64 
L 104.843449 222.381968 
L 64.756818 222.381968 
z
" clip-path="url(#p58f7f843dc)" style="fill: #ffd700"/>
   </g>
   <g id="patch_4">
    <path d="M 114.865107 303.64 
L 154.951738 303.64 
L 154.951738 193.885493 
L 114.865107 193.885493 
z
" clip-path="url(#p58f7f843dc)" style="fill: #ffd700"/>
   </g>
   <g id="patch_5">
    <path d="M 164.973396 303.64 
L 205.060027 303.64 
L 205.060027 202.87422 
L 164.973396 202.87422 
z
" clip-path="url(#p58f7f843dc)" style="fill: #ffd700"/>
   </g>
   <g id="patch_6">
    <path d="M 215.081684 303.64 
L 255.168316 303.64 
L 255.168316 269.351896 
L 215.081684 269.351896 
z
" clip-path="url(#p58f7f843dc)" style="fill: #ffd700"/>
   </g>
   <g id="patch_7">
    <path d="M 265.189973 303.64 
L 305.276604 303.64 
L 305.276604 235.144558 
L 265.189973 235.144558 
z
" clip-path="url(#p58f7f843dc)" style="fill: #ffd700"/>
   </g>
   <g id="patch_8">
    <path d="M 315.298262 303.64 
L 355.384893 303.64 
L 355.384893 266.407511 
L 315.298262 266.407511 
z
" clip-path="url(#p58f7f843dc)" style="fill: #ffd700"/>
   </g>
   <g id="patch_9">
    <path d="M 365.406551 303.64 
L 405.493182 303.64 
L 405.493182 266.511915 
L 365.406551 266.511915 
z
" clip-path="url(#p58f7f843dc)" style="fill: #ffd700"/>
   </g>
   <g id="patch_10">
    <path d="M 64.756818 222.381968 
L 104.843449 222.381968 
L 104.843449 113.025119 
L 64.756818 113.025119 
z
" clip-path="url(#p58f7f843dc)" style="fill: #0000ff"/>
   </g>
   <g id="patch_11">
    <path d="M 114.865107 193.885493 
L 154.951738 193.885493 
L 154.951738 60.644165 
L 114.865107 60.644165 
z
" clip-path="url(#p58f7f843dc)" style="fill: #0000ff"/>
   </g>
   <g id="patch_12">
    <path d="M 164.973396 202.87422 
L 205.060027 202.87422 
L 205.060027 56.635244 
L 164.973396 56.635244 
z
" clip-path="url(#p58f7f843dc)" style="fill: #0000ff"/>
   </g>
   <g id="patch_13">
    <path d="M 215.081684 269.351896 
L 255.168316 269.351896 
L 255.168316 124.851762 
L 215.081684 124.851762 
z
" clip-path="url(#p58f7f843dc)" style="fill: #0000ff"/>
   </g>
   <g id="patch_14">
    <path d="M 265.189973 235.144558 
L 305.276604 235.144558 
L 305.276604 45.373025 
L 265.189973 45.373025 
z
" clip-path="url(#p58f7f843dc)" style="fill: #0000ff"/>
   </g>
   <g id="patch_15">
    <path d="M 315.298262 266.407511 
L 355.384893 266.407511 
L 355.384893 113.071363 
L 315.298262 113.071363 
z
" clip-path="url(#p58f7f843dc)" style="fill: #0000ff"/>
   </g>
   <g id="patch_16">
    <path d="M 365.406551 266.511915 
L 405.493182 266.511915 
L 405.493182 113.430405 
L 365.406551 113.430405 
z
" clip-path="url(#p58f7f843dc)" style="fill: #0000ff"/>
   </g>
   <g id="patch_17">
    <path d="M 185.016711 303.64 
L 185.016711 10.8 
L 235.125 10.8 
L 235.125 303.64 
z
" clip-path="url(#p58f7f843dc)" style="fill: #808080; opacity: 0.25; stroke: #808080; stroke-linejoin: miter"/>
   </g>
   <g id="patch_18">
    <path d="M 285.233289 303.64 
L 285.233289 10.8 
L 335.341578 10.8 
L 335.341578 303.64 
z
" clip-path="url(#p58f7f843dc)" style="fill: #808080; opacity: 0.25; stroke: #808080; stroke-linejoin: miter"/>
   </g>
   <g id="matplotlib.axis_1">
    <g id="xtick_1">
     <g id="line2d_1">
      <defs>
       <path id="m4d64d7dde1" d="M 0 0 
L 0 3.5 
" style="stroke: #000000; stroke-width: 0.8"/>
      </defs>
      <g>
       <use xlink:href="#m4d64d7dde1" x="84.800134" y="303.64" style="stroke: #000000; stroke-width: 0.8"/>
      </g>
     </g>
     <g id="text_1">
      <!-- 5 -->
      <g transform="translate(81.618884 318.238437) scale(0.1 -0.1)">
       <defs>
        <path id="DejaVuSans-35" d="M 691 4666 
L 3169 4666 
L 3169 4134 
L 1269 4134 
L 1269 2991 
Q 1406 3038 1543 3061 
Q 1681 3084 1819 3084 
Q 2600 3084 3056 2656 
Q 3513 2228 3513 1497 
Q 3513 744 3044 326 
Q 2575 -91 1722 -91 
Q 1428 -91 1123 -41 
Q 819 9 494 109 
L 494 744 
Q 775 591 1075 516 
Q 1375 441 1709 441 
Q 2250 441 2565 725 
Q 2881 1009 2881 1497 
Q 2881 1984 2565 2268 
Q 2250 2553 1709 2553 
Q 1456 2553 1204 2497 
Q 953 2441 691 2322 
L 691 4666 
z
" transform="scale(0.015625)"/>
       </defs>
       <use xlink:href="#DejaVuSans-35"/>
      </g>
     </g>
    </g>
    <g id="xtick_2">
     <g id="line2d_2">
      <g>
       <use xlink:href="#m4d64d7dde1" x="134.908422" y="303.64" style="stroke: #000000; stroke-width: 0.8"/>
      </g>
     </g>
     <g id="text_2">
      <!-- 5.4 -->
      <g transform="translate(126.95686 318.238437) scale(0.1 -0.1)">
       <defs>
        <path id="DejaVuSans-2e" d="M 684 794 
L 1344 794 
L 1344 0 
L 684 0 
L 684 794 
z
" transform="scale(0.015625)"/>
        <path id="DejaVuSans-34" d="M 2419 4116 
L 825 1625 
L 2419 1625 
L 2419 4116 
z
M 2253 4666 
L 3047 4666 
L 3047 1625 
L 3713 1625 
L 3713 1100 
L 3047 1100 
L 3047 0 
L 2419 0 
L 2419 1100 
L 313 1100 
L 313 1709 
L 2253 4666 
z
" transform="scale(0.015625)"/>
       </defs>
       <use xlink:href="#DejaVuSans-35"/>
       <use xlink:href="#DejaVuSans-2e" x="63.623047"/>
       <use xlink:href="#DejaVuSans-34" x="95.410156"/>
      </g>
     </g>
    </g>
    <g id="xtick_3">
     <g id="line2d_3">
      <g>
       <use xlink:href="#m4d64d7dde1" x="185.016711" y="303.64" style="stroke: #000000; stroke-width: 0.8"/>
      </g>
     </g>
     <g id="text_3">
      <!-- 7 -->
      <g transform="translate(181.835461 318.238437) scale(0.1 -0.1)">
       <defs>
        <path id="DejaVuSans-37" d="M 525 4666 
L 3525 4666 
L 3525 4397 
L 1831 0 
L 1172 0 
L 2766 4134 
L 525 4134 
L 525 4666 
z
" transform="scale(0.015625)"/>
       </defs>
       <use xlink:href="#DejaVuSans-37"/>
      </g>
     </g>
    </g>
    <g id="xtick_4">
     <g id="line2d_4">
      <g>
       <use xlink:href="#m4d64d7dde1" x="235.125" y="303.64" style="stroke: #000000; stroke-width: 0.8"/>
      </g>
     </g>
     <g id="text_4">
      <!-- 8 -->
      <g transform="translate(231.94375 318.238437) scale(0.1 -0.1)">
       <defs>
        <path id="DejaVuSans-38" d="M 2034 2216 
Q 1584 2216 1326 1975 
Q 1069 1734 1069 1313 
Q 1069 891 1326 650 
Q 1584 409 2034 409 
Q 2484 409 2743 651 
Q 3003 894 3003 1313 
Q 3003 1734 2745 1975 
Q 2488 2216 2034 2216 
z
M 1403 2484 
Q 997 2584 770 2862 
Q 544 3141 544 3541 
Q 544 4100 942 4425 
Q 1341 4750 2034 4750 
Q 2731 4750 3128 4425 
Q 3525 4100 3525 3541 
Q 3525 3141 3298 2862 
Q 3072 2584 2669 2484 
Q 3125 2378 3379 2068 
Q 3634 1759 3634 1313 
Q 3634 634 3220 271 
Q 2806 -91 2034 -91 
Q 1263 -91 848 271 
Q 434 634 434 1313 
Q 434 1759 690 2068 
Q 947 2378 1403 2484 
z
M 1172 3481 
Q 1172 3119 1398 2916 
Q 1625 2713 2034 2713 
Q 2441 2713 2670 2916 
Q 2900 3119 2900 3481 
Q 2900 3844 2670 4047 
Q 2441 4250 2034 4250 
Q 1625 4250 1398 4047 
Q 1172 3844 1172 3481 
z
" transform="scale(0.015625)"/>
       </defs>
       <use xlink:href="#DejaVuSans-38"/>
      </g>
     </g>
    </g>
    <g id="xtick_5">
     <g id="line2d_5">
      <g>
       <use xlink:href="#m4d64d7dde1" x="285.233289" y="303.64" style="stroke: #000000; stroke-width: 0.8"/>
      </g>
     </g>
     <g id="text_5">
      <!-- 10 -->
      <g transform="translate(278.870789 318.238437) scale(0.1 -0.1)">
       <defs>
        <path id="DejaVuSans-31" d="M 794 531 
L 1825 531 
L 1825 4091 
L 703 3866 
L 703 4441 
L 1819 4666 
L 2450 4666 
L 2450 531 
L 3481 531 
L 3481 0 
L 794 0 
L 794 531 
z
" transform="scale(0.015625)"/>
        <path id="DejaVuSans-30" d="M 2034 4250 
Q 1547 4250 1301 3770 
Q 1056 3291 1056 2328 
Q 1056 1369 1301 889 
Q 1547 409 2034 409 
Q 2525 409 2770 889 
Q 3016 1369 3016 2328 
Q 3016 3291 2770 3770 
Q 2525 4250 2034 4250 
z
M 2034 4750 
Q 2819 4750 3233 4129 
Q 3647 3509 3647 2328 
Q 3647 1150 3233 529 
Q 2819 -91 2034 -91 
Q 1250 -91 836 529 
Q 422 1150 422 2328 
Q 422 3509 836 4129 
Q 1250 4750 2034 4750 
z
" transform="scale(0.015625)"/>
       </defs>
       <use xlink:href="#DejaVuSans-31"/>
       <use xlink:href="#DejaVuSans-30" x="63.623047"/>
      </g>
     </g>
    </g>
    <g id="xtick_6">
     <g id="line2d_6">
      <g>
       <use xlink:href="#m4d64d7dde1" x="335.341578" y="303.64" style="stroke: #000000; stroke-width: 0.8"/>
      </g>
     </g>
     <g id="text_6">
      <!-- 11 -->
      <g transform="translate(328.979078 318.238437) scale(0.1 -0.1)">
       <use xlink:href="#DejaVuSans-31"/>
       <use xlink:href="#DejaVuSans-31" x="63.623047"/>
      </g>
     </g>
    </g>
    <g id="xtick_7">
     <g id="line2d_7">
      <g>
       <use xlink:href="#m4d64d7dde1" x="385.449866" y="303.64" style="stroke: #000000; stroke-width: 0.8"/>
      </g>
     </g>
     <g id="text_7">
      <!-- 15 -->
      <g transform="translate(379.087366 318.238437) scale(0.1 -0.1)">
       <use xlink:href="#DejaVuSans-31"/>
       <use xlink:href="#DejaVuSans-35" x="63.623047"/>
      </g>
     </g>
    </g>
    <g id="text_8">
     <!-- Time (day) -->
     <g transform="translate(208.203125 331.916562) scale(0.1 -0.1)">
      <defs>
       <path id="DejaVuSans-54" d="M -19 4666 
L 3928 4666 
L 3928 4134 
L 2272 4134 
L 2272 0 
L 1638 0 
L 1638 4134 
L -19 4134 
L -19 4666 
z
" transform="scale(0.015625)"/>
       <path id="DejaVuSans-69" d="M 603 3500 
L 1178 3500 
L 1178 0 
L 603 0 
L 603 3500 
z
M 603 4863 
L 1178 4863 
L 1178 4134 
L 603 4134 
L 603 4863 
z
" transform="scale(0.015625)"/>
       <path id="DejaVuSans-6d" d="M 3328 2828 
Q 3544 3216 3844 3400 
Q 4144 3584 4550 3584 
Q 5097 3584 5394 3201 
Q 5691 2819 5691 2113 
L 5691 0 
L 5113 0 
L 5113 2094 
Q 5113 2597 4934 2840 
Q 4756 3084 4391 3084 
Q 3944 3084 3684 2787 
Q 3425 2491 3425 1978 
L 3425 0 
L 2847 0 
L 2847 2094 
Q 2847 2600 2669 2842 
Q 2491 3084 2119 3084 
Q 1678 3084 1418 2786 
Q 1159 2488 1159 1978 
L 1159 0 
L 581 0 
L 581 3500 
L 1159 3500 
L 1159 2956 
Q 1356 3278 1631 3431 
Q 1906 3584 2284 3584 
Q 2666 3584 2933 3390 
Q 3200 3197 3328 2828 
z
" transform="scale(0.015625)"/>
       <path id="DejaVuSans-65" d="M 3597 1894 
L 3597 1613 
L 953 1613 
Q 991 1019 1311 708 
Q 1631 397 2203 397 
Q 2534 397 2845 478 
Q 3156 559 3463 722 
L 3463 178 
Q 3153 47 2828 -22 
Q 2503 -91 2169 -91 
Q 1331 -91 842 396 
Q 353 884 353 1716 
Q 353 2575 817 3079 
Q 1281 3584 2069 3584 
Q 2775 3584 3186 3129 
Q 3597 2675 3597 1894 
z
M 3022 2063 
Q 3016 2534 2758 2815 
Q 2500 3097 2075 3097 
Q 1594 3097 1305 2825 
Q 1016 2553 972 2059 
L 3022 2063 
z
" transform="scale(0.015625)"/>
       <path id="DejaVuSans-20" transform="scale(0.015625)"/>
       <path id="DejaVuSans-28" d="M 1984 4856 
Q 1566 4138 1362 3434 
Q 1159 2731 1159 2009 
Q 1159 1288 1364 580 
Q 1569 -128 1984 -844 
L 1484 -844 
Q 1016 -109 783 600 
Q 550 1309 550 2009 
Q 550 2706 781 3412 
Q 1013 4119 1484 4856 
L 1984 4856 
z
" transform="scale(0.015625)"/>
       <path id="DejaVuSans-64" d="M 2906 2969 
L 2906 4863 
L 3481 4863 
L 3481 0 
L 2906 0 
L 2906 525 
Q 2725 213 2448 61 
Q 2172 -91 1784 -91 
Q 1150 -91 751 415 
Q 353 922 353 1747 
Q 353 2572 751 3078 
Q 1150 3584 1784 3584 
Q 2172 3584 2448 3432 
Q 2725 3281 2906 2969 
z
M 947 1747 
Q 947 1113 1208 752 
Q 1469 391 1925 391 
Q 2381 391 2643 752 
Q 2906 1113 2906 1747 
Q 2906 2381 2643 2742 
Q 2381 3103 1925 3103 
Q 1469 3103 1208 2742 
Q 947 2381 947 1747 
z
" transform="scale(0.015625)"/>
       <path id="DejaVuSans-61" d="M 2194 1759 
Q 1497 1759 1228 1600 
Q 959 1441 959 1056 
Q 959 750 1161 570 
Q 1363 391 1709 391 
Q 2188 391 2477 730 
Q 2766 1069 2766 1631 
L 2766 1759 
L 2194 1759 
z
M 3341 1997 
L 3341 0 
L 2766 0 
L 2766 531 
Q 2569 213 2275 61 
Q 1981 -91 1556 -91 
Q 1019 -91 701 211 
Q 384 513 384 1019 
Q 384 1609 779 1909 
Q 1175 2209 1959 2209 
L 2766 2209 
L 2766 2266 
Q 2766 2663 2505 2880 
Q 2244 3097 1772 3097 
Q 1472 3097 1187 3025 
Q 903 2953 641 2809 
L 641 3341 
Q 956 3463 1253 3523 
Q 1550 3584 1831 3584 
Q 2591 3584 2966 3190 
Q 3341 2797 3341 1997 
z
" transform="scale(0.015625)"/>
       <path id="DejaVuSans-79" d="M 2059 -325 
Q 1816 -950 1584 -1140 
Q 1353 -1331 966 -1331 
L 506 -1331 
L 506 -850 
L 844 -850 
Q 1081 -850 1212 -737 
Q 1344 -625 1503 -206 
L 1606 56 
L 191 3500 
L 800 3500 
L 1894 763 
L 2988 3500 
L 3597 3500 
L 2059 -325 
z
" transform="scale(0.015625)"/>
       <path id="DejaVuSans-29" d="M 513 4856 
L 1013 4856 
Q 1481 4119 1714 3412 
Q 1947 2706 1947 2009 
Q 1947 1309 1714 600 
Q 1481 -109 1013 -844 
L 513 -844 
Q 928 -128 1133 580 
Q 1338 1288 1338 2009 
Q 1338 2731 1133 3434 
Q 928 4138 513 4856 
z
" transform="scale(0.015625)"/>
      </defs>
      <use xlink:href="#DejaVuSans-54"/>
      <use xlink:href="#DejaVuSans-69" x="57.958984"/>
      <use xlink:href="#DejaVuSans-6d" x="85.742188"/>
      <use xlink:href="#DejaVuSans-65" x="183.154297"/>
      <use xlink:href="#DejaVuSans-20" x="244.677734"/>
      <use xlink:href="#DejaVuSans-28" x="276.464844"/>
      <use xlink:href="#DejaVuSans-64" x="315.478516"/>
      <use xlink:href="#DejaVuSans-61" x="378.955078"/>
      <use xlink:href="#DejaVuSans-79" x="440.234375"/>
      <use xlink:href="#DejaVuSans-29" x="499.414062"/>
     </g>
    </g>
   </g>
   <g id="matplotlib.axis_2">
    <g id="ytick_1">
     <g id="line2d_8">
      <defs>
       <path id="m573d0306d7" d="M 0 0 
L -3.5 0 
" style="stroke: #000000; stroke-width: 0.8"/>
      </defs>
      <g>
       <use xlink:href="#m573d0306d7" x="47.72" y="303.64" style="stroke: #000000; stroke-width: 0.8"/>
      </g>
     </g>
     <g id="text_9">
      <!-- 0.0 -->
      <g transform="translate(24.816875 307.439219) scale(0.1 -0.1)">
       <use xlink:href="#DejaVuSans-30"/>
       <use xlink:href="#DejaVuSans-2e" x="63.623047"/>
       <use xlink:href="#DejaVuSans-30" x="95.410156"/>
      </g>
     </g>
    </g>
    <g id="ytick_2">
     <g id="line2d_9">
      <g>
       <use xlink:href="#m573d0306d7" x="47.72" y="260.987478" style="stroke: #000000; stroke-width: 0.8"/>
      </g>
     </g>
     <g id="text_10">
      <!-- 0.5 -->
      <g transform="translate(24.816875 264.786697) scale(0.1 -0.1)">
       <use xlink:href="#DejaVuSans-30"/>
       <use xlink:href="#DejaVuSans-2e" x="63.623047"/>
       <use xlink:href="#DejaVuSans-35" x="95.410156"/>
      </g>
     </g>
    </g>
    <g id="ytick_3">
     <g id="line2d_10">
      <g>
       <use xlink:href="#m573d0306d7" x="47.72" y="218.334956" style="stroke: #000000; stroke-width: 0.8"/>
      </g>
     </g>
     <g id="text_11">
      <!-- 1.0 -->
      <g transform="translate(24.816875 222.134175) scale(0.1 -0.1)">
       <use xlink:href="#DejaVuSans-31"/>
       <use xlink:href="#DejaVuSans-2e" x="63.623047"/>
       <use xlink:href="#DejaVuSans-30" x="95.410156"/>
      </g>
     </g>
    </g>
    <g id="ytick_4">
     <g id="line2d_11">
      <g>
       <use xlink:href="#m573d0306d7" x="47.72" y="175.682434" style="stroke: #000000; stroke-width: 0.8"/>
      </g>
     </g>
     <g id="text_12">
      <!-- 1.5 -->
      <g transform="translate(24.816875 179.481653) scale(0.1 -0.1)">
       <use xlink:href="#DejaVuSans-31"/>
       <use xlink:href="#DejaVuSans-2e" x="63.623047"/>
       <use xlink:href="#DejaVuSans-35" x="95.410156"/>
      </g>
     </g>
    </g>
    <g id="ytick_5">
     <g id="line2d_12">
      <g>
       <use xlink:href="#m573d0306d7" x="47.72" y="133.029913" style="stroke: #000000; stroke-width: 0.8"/>
      </g>
     </g>
     <g id="text_13">
      <!-- 2.0 -->
      <g transform="translate(24.816875 136.829131) scale(0.1 -0.1)">
       <defs>
        <path id="DejaVuSans-32" d="M 1228 531 
L 3431 531 
L 3431 0 
L 469 0 
L 469 531 
Q 828 903 1448 1529 
Q 2069 2156 2228 2338 
Q 2531 2678 2651 2914 
Q 2772 3150 2772 3378 
Q 2772 3750 2511 3984 
Q 2250 4219 1831 4219 
Q 1534 4219 1204 4116 
Q 875 4013 500 3803 
L 500 4441 
Q 881 4594 1212 4672 
Q 1544 4750 1819 4750 
Q 2544 4750 2975 4387 
Q 3406 4025 3406 3419 
Q 3406 3131 3298 2873 
Q 3191 2616 2906 2266 
Q 2828 2175 2409 1742 
Q 1991 1309 1228 531 
z
" transform="scale(0.015625)"/>
       </defs>
       <use xlink:href="#DejaVuSans-32"/>
       <use xlink:href="#DejaVuSans-2e" x="63.623047"/>
       <use xlink:href="#DejaVuSans-30" x="95.410156"/>
      </g>
     </g>
    </g>
    <g id="ytick_6">
     <g id="line2d_13">
      <g>
       <use xlink:href="#m573d0306d7" x="47.72" y="90.377391" style="stroke: #000000; stroke-width: 0.8"/>
      </g>
     </g>
     <g id="text_14">
      <!-- 2.5 -->
      <g transform="translate(24.816875 94.17661) scale(0.1 -0.1)">
       <use xlink:href="#DejaVuSans-32"/>
       <use xlink:href="#DejaVuSans-2e" x="63.623047"/>
       <use xlink:href="#DejaVuSans-35" x="95.410156"/>
      </g>
     </g>
    </g>
    <g id="ytick_7">
     <g id="line2d_14">
      <g>
       <use xlink:href="#m573d0306d7" x="47.72" y="47.724869" style="stroke: #000000; stroke-width: 0.8"/>
      </g>
     </g>
     <g id="text_15">
      <!-- 3.0 -->
      <g transform="translate(24.816875 51.524088) scale(0.1 -0.1)">
       <defs>
        <path id="DejaVuSans-33" d="M 2597 2516 
Q 3050 2419 3304 2112 
Q 3559 1806 3559 1356 
Q 3559 666 3084 287 
Q 2609 -91 1734 -91 
Q 1441 -91 1130 -33 
Q 819 25 488 141 
L 488 750 
Q 750 597 1062 519 
Q 1375 441 1716 441 
Q 2309 441 2620 675 
Q 2931 909 2931 1356 
Q 2931 1769 2642 2001 
Q 2353 2234 1838 2234 
L 1294 2234 
L 1294 2753 
L 1863 2753 
Q 2328 2753 2575 2939 
Q 2822 3125 2822 3475 
Q 2822 3834 2567 4026 
Q 2313 4219 1838 4219 
Q 1578 4219 1281 4162 
Q 984 4106 628 3988 
L 628 4550 
Q 988 4650 1302 4700 
Q 1616 4750 1894 4750 
Q 2613 4750 3031 4423 
Q 3450 4097 3450 3541 
Q 3450 3153 3228 2886 
Q 3006 2619 2597 2516 
z
" transform="scale(0.015625)"/>
       </defs>
       <use xlink:href="#DejaVuSans-33"/>
       <use xlink:href="#DejaVuSans-2e" x="63.623047"/>
       <use xlink:href="#DejaVuSans-30" x="95.410156"/>
      </g>
     </g>
    </g>
    <g id="text_16">
     <!-- Relative Abundance (%) -->
     <g transform="translate(18.737188 217.379375) rotate(-90) scale(0.1 -0.1)">
      <defs>
       <path id="DejaVuSans-52" d="M 2841 2188 
Q 3044 2119 3236 1894 
Q 3428 1669 3622 1275 
L 4263 0 
L 3584 0 
L 2988 1197 
Q 2756 1666 2539 1819 
Q 2322 1972 1947 1972 
L 1259 1972 
L 1259 0 
L 628 0 
L 628 4666 
L 2053 4666 
Q 2853 4666 3247 4331 
Q 3641 3997 3641 3322 
Q 3641 2881 3436 2590 
Q 3231 2300 2841 2188 
z
M 1259 4147 
L 1259 2491 
L 2053 2491 
Q 2509 2491 2742 2702 
Q 2975 2913 2975 3322 
Q 2975 3731 2742 3939 
Q 2509 4147 2053 4147 
L 1259 4147 
z
" transform="scale(0.015625)"/>
       <path id="DejaVuSans-6c" d="M 603 4863 
L 1178 4863 
L 1178 0 
L 603 0 
L 603 4863 
z
" transform="scale(0.015625)"/>
       <path id="DejaVuSans-74" d="M 1172 4494 
L 1172 3500 
L 2356 3500 
L 2356 3053 
L 1172 3053 
L 1172 1153 
Q 1172 725 1289 603 
Q 1406 481 1766 481 
L 2356 481 
L 2356 0 
L 1766 0 
Q 1100 0 847 248 
Q 594 497 594 1153 
L 594 3053 
L 172 3053 
L 172 3500 
L 594 3500 
L 594 4494 
L 1172 4494 
z
" transform="scale(0.015625)"/>
       <path id="DejaVuSans-76" d="M 191 3500 
L 800 3500 
L 1894 563 
L 2988 3500 
L 3597 3500 
L 2284 0 
L 1503 0 
L 191 3500 
z
" transform="scale(0.015625)"/>
       <path id="DejaVuSans-41" d="M 2188 4044 
L 1331 1722 
L 3047 1722 
L 2188 4044 
z
M 1831 4666 
L 2547 4666 
L 4325 0 
L 3669 0 
L 3244 1197 
L 1141 1197 
L 716 0 
L 50 0 
L 1831 4666 
z
" transform="scale(0.015625)"/>
       <path id="DejaVuSans-62" d="M 3116 1747 
Q 3116 2381 2855 2742 
Q 2594 3103 2138 3103 
Q 1681 3103 1420 2742 
Q 1159 2381 1159 1747 
Q 1159 1113 1420 752 
Q 1681 391 2138 391 
Q 2594 391 2855 752 
Q 3116 1113 3116 1747 
z
M 1159 2969 
Q 1341 3281 1617 3432 
Q 1894 3584 2278 3584 
Q 2916 3584 3314 3078 
Q 3713 2572 3713 1747 
Q 3713 922 3314 415 
Q 2916 -91 2278 -91 
Q 1894 -91 1617 61 
Q 1341 213 1159 525 
L 1159 0 
L 581 0 
L 581 4863 
L 1159 4863 
L 1159 2969 
z
" transform="scale(0.015625)"/>
       <path id="DejaVuSans-75" d="M 544 1381 
L 544 3500 
L 1119 3500 
L 1119 1403 
Q 1119 906 1312 657 
Q 1506 409 1894 409 
Q 2359 409 2629 706 
Q 2900 1003 2900 1516 
L 2900 3500 
L 3475 3500 
L 3475 0 
L 2900 0 
L 2900 538 
Q 2691 219 2414 64 
Q 2138 -91 1772 -91 
Q 1169 -91 856 284 
Q 544 659 544 1381 
z
M 1991 3584 
L 1991 3584 
z
" transform="scale(0.015625)"/>
       <path id="DejaVuSans-6e" d="M 3513 2113 
L 3513 0 
L 2938 0 
L 2938 2094 
Q 2938 2591 2744 2837 
Q 2550 3084 2163 3084 
Q 1697 3084 1428 2787 
Q 1159 2491 1159 1978 
L 1159 0 
L 581 0 
L 581 3500 
L 1159 3500 
L 1159 2956 
Q 1366 3272 1645 3428 
Q 1925 3584 2291 3584 
Q 2894 3584 3203 3211 
Q 3513 2838 3513 2113 
z
" transform="scale(0.015625)"/>
       <path id="DejaVuSans-63" d="M 3122 3366 
L 3122 2828 
Q 2878 2963 2633 3030 
Q 2388 3097 2138 3097 
Q 1578 3097 1268 2742 
Q 959 2388 959 1747 
Q 959 1106 1268 751 
Q 1578 397 2138 397 
Q 2388 397 2633 464 
Q 2878 531 3122 666 
L 3122 134 
Q 2881 22 2623 -34 
Q 2366 -91 2075 -91 
Q 1284 -91 818 406 
Q 353 903 353 1747 
Q 353 2603 823 3093 
Q 1294 3584 2113 3584 
Q 2378 3584 2631 3529 
Q 2884 3475 3122 3366 
z
" transform="scale(0.015625)"/>
       <path id="DejaVuSans-25" d="M 4653 2053 
Q 4381 2053 4226 1822 
Q 4072 1591 4072 1178 
Q 4072 772 4226 539 
Q 4381 306 4653 306 
Q 4919 306 5073 539 
Q 5228 772 5228 1178 
Q 5228 1588 5073 1820 
Q 4919 2053 4653 2053 
z
M 4653 2450 
Q 5147 2450 5437 2106 
Q 5728 1763 5728 1178 
Q 5728 594 5436 251 
Q 5144 -91 4653 -91 
Q 4153 -91 3862 251 
Q 3572 594 3572 1178 
Q 3572 1766 3864 2108 
Q 4156 2450 4653 2450 
z
M 1428 4353 
Q 1159 4353 1004 4120 
Q 850 3888 850 3481 
Q 850 3069 1003 2837 
Q 1156 2606 1428 2606 
Q 1700 2606 1854 2837 
Q 2009 3069 2009 3481 
Q 2009 3884 1853 4118 
Q 1697 4353 1428 4353 
z
M 4250 4750 
L 4750 4750 
L 1831 -91 
L 1331 -91 
L 4250 4750 
z
M 1428 4750 
Q 1922 4750 2215 4408 
Q 2509 4066 2509 3481 
Q 2509 2891 2217 2550 
Q 1925 2209 1428 2209 
Q 931 2209 642 2551 
Q 353 2894 353 3481 
Q 353 4063 643 4406 
Q 934 4750 1428 4750 
z
" transform="scale(0.015625)"/>
      </defs>
      <use xlink:href="#DejaVuSans-52"/>
      <use xlink:href="#DejaVuSans-65" x="64.982422"/>
      <use xlink:href="#DejaVuSans-6c" x="126.505859"/>
      <use xlink:href="#DejaVuSans-61" x="154.289062"/>
      <use xlink:href="#DejaVuSans-74" x="215.568359"/>
      <use xlink:href="#DejaVuSans-69" x="254.777344"/>
      <use xlink:href="#DejaVuSans-76" x="282.560547"/>
      <use xlink:href="#DejaVuSans-65" x="341.740234"/>
      <use xlink:href="#DejaVuSans-20" x="403.263672"/>
      <use xlink:href="#DejaVuSans-41" x="435.050781"/>
      <use xlink:href="#DejaVuSans-62" x="503.458984"/>
      <use xlink:href="#DejaVuSans-75" x="566.935547"/>
      <use xlink:href="#DejaVuSans-6e" x="630.314453"/>
      <use xlink:href="#DejaVuSans-64" x="693.693359"/>
      <use xlink:href="#DejaVuSans-61" x="757.169922"/>
      <use xlink:href="#DejaVuSans-6e" x="818.449219"/>
      <use xlink:href="#DejaVuSans-63" x="881.828125"/>
      <use xlink:href="#DejaVuSans-65" x="936.808594"/>
      <use xlink:href="#DejaVuSans-20" x="998.332031"/>
      <use xlink:href="#DejaVuSans-28" x="1030.119141"/>
      <use xlink:href="#DejaVuSans-25" x="1069.132812"/>
      <use xlink:href="#DejaVuSans-29" x="1164.152344"/>
     </g>
    </g>
   </g>
   <g id="LineCollection_1">
    <path d="M 84.800134 241.573095 
L 84.800134 203.190842 
" clip-path="url(#p58f7f843dc)" style="fill: none; stroke: #ffa500; stroke-width: 1.5"/>
   </g>
   <g id="line2d_15">
    <defs>
     <path id="m4e38d992e8" d="M 4 0 
L -4 -0 
" style="stroke: #ffa500"/>
    </defs>
    <g clip-path="url(#p58f7f843dc)">
     <use xlink:href="#m4e38d992e8" x="84.800134" y="241.573095" style="fill: #ffa500; stroke: #ffa500"/>
    </g>
   </g>
   <g id="line2d_16">
    <g clip-path="url(#p58f7f843dc)">
     <use xlink:href="#m4e38d992e8" x="84.800134" y="203.190842" style="fill: #ffa500; stroke: #ffa500"/>
    </g>
   </g>
   <g id="LineCollection_2">
    <path d="M 134.908422 213.270105 
L 134.908422 174.500881 
" clip-path="url(#p58f7f843dc)" style="fill: none; stroke: #ffa500; stroke-width: 1.5"/>
   </g>
   <g id="line2d_17">
    <g clip-path="url(#p58f7f843dc)">
     <use xlink:href="#m4e38d992e8" x="134.908422" y="213.270105" style="fill: #ffa500; stroke: #ffa500"/>
    </g>
   </g>
   <g id="line2d_18">
    <g clip-path="url(#p58f7f843dc)">
     <use xlink:href="#m4e38d992e8" x="134.908422" y="174.500881" style="fill: #ffa500; stroke: #ffa500"/>
    </g>
   </g>
   <g id="LineCollection_3">
    <path d="M 185.016711 235.977165 
L 185.016711 169.771275 
" clip-path="url(#p58f7f843dc)" style="fill: none; stroke: #ffa500; stroke-width: 1.5"/>
   </g>
   <g id="line2d_19">
    <g clip-path="url(#p58f7f843dc)">
     <use xlink:href="#m4e38d992e8" x="185.016711" y="235.977165" style="fill: #ffa500; stroke: #ffa500"/>
    </g>
   </g>
   <g id="line2d_20">
    <g clip-path="url(#p58f7f843dc)">
     <use xlink:href="#m4e38d992e8" x="185.016711" y="169.771275" style="fill: #ffa500; stroke: #ffa500"/>
    </g>
   </g>
   <g id="LineCollection_4">
    <path d="M 235.125 281.720327 
L 235.125 256.983466 
" clip-path="url(#p58f7f843dc)" style="fill: none; stroke: #ffa500; stroke-width: 1.5"/>
   </g>
   <g id="line2d_21">
    <g clip-path="url(#p58f7f843dc)">
     <use xlink:href="#m4e38d992e8" x="235.125" y="281.720327" style="fill: #ffa500; stroke: #ffa500"/>
    </g>
   </g>
   <g id="line2d_22">
    <g clip-path="url(#p58f7f843dc)">
     <use xlink:href="#m4e38d992e8" x="235.125" y="256.983466" style="fill: #ffa500; stroke: #ffa500"/>
    </g>
   </g>
   <g id="LineCollection_5">
    <path d="M 285.233289 266.2185 
L 285.233289 204.070616 
" clip-path="url(#p58f7f843dc)" style="fill: none; stroke: #ffa500; stroke-width: 1.5"/>
   </g>
   <g id="line2d_23">
    <g clip-path="url(#p58f7f843dc)">
     <use xlink:href="#m4e38d992e8" x="285.233289" y="266.2185" style="fill: #ffa500; stroke: #ffa500"/>
    </g>
   </g>
   <g id="line2d_24">
    <g clip-path="url(#p58f7f843dc)">
     <use xlink:href="#m4e38d992e8" x="285.233289" y="204.070616" style="fill: #ffa500; stroke: #ffa500"/>
    </g>
   </g>
   <g id="LineCollection_6">
    <path d="M 335.341578 280.983328 
L 335.341578 251.831694 
" clip-path="url(#p58f7f843dc)" style="fill: none; stroke: #ffa500; stroke-width: 1.5"/>
   </g>
   <g id="line2d_25">
    <g clip-path="url(#p58f7f843dc)">
     <use xlink:href="#m4e38d992e8" x="335.341578" y="280.983328" style="fill: #ffa500; stroke: #ffa500"/>
    </g>
   </g>
   <g id="line2d_26">
    <g clip-path="url(#p58f7f843dc)">
     <use xlink:href="#m4e38d992e8" x="335.341578" y="251.831694" style="fill: #ffa500; stroke: #ffa500"/>
    </g>
   </g>
   <g id="LineCollection_7">
    <path d="M 385.449866 283.046882 
L 385.449866 249.976947 
" clip-path="url(#p58f7f843dc)" style="fill: none; stroke: #ffa500; stroke-width: 1.5"/>
   </g>
   <g id="line2d_27">
    <g clip-path="url(#p58f7f843dc)">
     <use xlink:href="#m4e38d992e8" x="385.449866" y="283.046882" style="fill: #ffa500; stroke: #ffa500"/>
    </g>
   </g>
   <g id="line2d_28">
    <g clip-path="url(#p58f7f843dc)">
     <use xlink:href="#m4e38d992e8" x="385.449866" y="249.976947" style="fill: #ffa500; stroke: #ffa500"/>
    </g>
   </g>
   <g id="LineCollection_8">
    <path d="M 84.800134 121.26986 
L 84.800134 104.780379 
" clip-path="url(#p58f7f843dc)" style="fill: none; stroke: #00008b; stroke-width: 1.5"/>
   </g>
   <g id="line2d_29">
    <defs>
     <path id="me802ae1480" d="M 4 0 
L -4 -0 
" style="stroke: #00008b"/>
    </defs>
    <g clip-path="url(#p58f7f843dc)">
     <use xlink:href="#me802ae1480" x="84.800134" y="121.26986" style="fill: #00008b; stroke: #00008b"/>
    </g>
   </g>
   <g id="line2d_30">
    <g clip-path="url(#p58f7f843dc)">
     <use xlink:href="#me802ae1480" x="84.800134" y="104.780379" style="fill: #00008b; stroke: #00008b"/>
    </g>
   </g>
   <g id="LineCollection_9">
    <path d="M 134.908422 66.874786 
L 134.908422 54.413544 
" clip-path="url(#p58f7f843dc)" style="fill: none; stroke: #00008b; stroke-width: 1.5"/>
   </g>
   <g id="line2d_31">
    <g clip-path="url(#p58f7f843dc)">
     <use xlink:href="#me802ae1480" x="134.908422" y="66.874786" style="fill: #00008b; stroke: #00008b"/>
    </g>
   </g>
   <g id="line2d_32">
    <g clip-path="url(#p58f7f843dc)">
     <use xlink:href="#me802ae1480" x="134.908422" y="54.413544" style="fill: #00008b; stroke: #00008b"/>
    </g>
   </g>
   <g id="LineCollection_10">
    <path d="M 185.016711 67.441739 
L 185.016711 45.828749 
" clip-path="url(#p58f7f843dc)" style="fill: none; stroke: #00008b; stroke-width: 1.5"/>
   </g>
   <g id="line2d_33">
    <g clip-path="url(#p58f7f843dc)">
     <use xlink:href="#me802ae1480" x="185.016711" y="67.441739" style="fill: #00008b; stroke: #00008b"/>
    </g>
   </g>
   <g id="line2d_34">
    <g clip-path="url(#p58f7f843dc)">
     <use xlink:href="#me802ae1480" x="185.016711" y="45.828749" style="fill: #00008b; stroke: #00008b"/>
    </g>
   </g>
   <g id="LineCollection_11">
    <path d="M 235.125 144.735742 
L 235.125 104.967781 
" clip-path="url(#p58f7f843dc)" style="fill: none; stroke: #00008b; stroke-width: 1.5"/>
   </g>
   <g id="line2d_35">
    <g clip-path="url(#p58f7f843dc)">
     <use xlink:href="#me802ae1480" x="235.125" y="144.735742" style="fill: #00008b; stroke: #00008b"/>
    </g>
   </g>
   <g id="line2d_36">
    <g clip-path="url(#p58f7f843dc)">
     <use xlink:href="#me802ae1480" x="235.125" y="104.967781" style="fill: #00008b; stroke: #00008b"/>
    </g>
   </g>
   <g id="LineCollection_12">
    <path d="M 285.233289 66.001288 
L 285.233289 24.744762 
" clip-path="url(#p58f7f843dc)" style="fill: none; stroke: #00008b; stroke-width: 1.5"/>
   </g>
   <g id="line2d_37">
    <g clip-path="url(#p58f7f843dc)">
     <use xlink:href="#me802ae1480" x="285.233289" y="66.001288" style="fill: #00008b; stroke: #00008b"/>
    </g>
   </g>
   <g id="line2d_38">
    <g clip-path="url(#p58f7f843dc)">
     <use xlink:href="#me802ae1480" x="285.233289" y="24.744762" style="fill: #00008b; stroke: #00008b"/>
    </g>
   </g>
   <g id="LineCollection_13">
    <path d="M 335.341578 130.445445 
L 335.341578 95.697281 
" clip-path="url(#p58f7f843dc)" style="fill: none; stroke: #00008b; stroke-width: 1.5"/>
   </g>
   <g id="line2d_39">
    <g clip-path="url(#p58f7f843dc)">
     <use xlink:href="#me802ae1480" x="335.341578" y="130.445445" style="fill: #00008b; stroke: #00008b"/>
    </g>
   </g>
   <g id="line2d_40">
    <g clip-path="url(#p58f7f843dc)">
     <use xlink:href="#me802ae1480" x="335.341578" y="95.697281" style="fill: #00008b; stroke: #00008b"/>
    </g>
   </g>
   <g id="LineCollection_14">
    <path d="M 385.449866 132.793247 
L 385.449866 94.067563 
" clip-path="url(#p58f7f843dc)" style="fill: none; stroke: #00008b; stroke-width: 1.5"/>
   </g>
   <g id="line2d_41">
    <g clip-path="url(#p58f7f843dc)">
     <use xlink:href="#me802ae1480" x="385.449866" y="132.793247" style="fill: #00008b; stroke: #00008b"/>
    </g>
   </g>
   <g id="line2d_42">
    <g clip-path="url(#p58f7f843dc)">
     <use xlink:href="#me802ae1480" x="385.449866" y="94.067563" style="fill: #00008b; stroke: #00008b"/>
    </g>
   </g>
   <g id="patch_19">
    <path d="M 47.72 303.64 
L 47.72 10.8 
" style="fill: none; stroke: #000000; stroke-width: 0.8; stroke-linejoin: miter; stroke-linecap: square"/>
   </g>
   <g id="patch_20">
    <path d="M 422.53 303.64 
L 422.53 10.8 
" style="fill: none; stroke: #000000; stroke-width: 0.8; stroke-linejoin: miter; stroke-linecap: square"/>
   </g>
   <g id="patch_21">
    <path d="M 47.72 303.64 
L 422.53 303.64 
" style="fill: none; stroke: #000000; stroke-width: 0.8; stroke-linejoin: miter; stroke-linecap: square"/>
   </g>
  </g>
  <g id="axes_2">
   <g id="matplotlib.axis_3">
    <g id="ytick_8">
     <g id="line2d_43">
      <defs>
       <path id="m209acb02ed" d="M 0 0 
L 3.5 0 
" style="stroke: #000000; stroke-width: 0.8"/>
      </defs>
      <g>
       <use xlink:href="#m209acb02ed" x="422.53" y="283.415434" style="stroke: #000000; stroke-width: 0.8"/>
      </g>
     </g>
     <g id="text_17">
      <!-- 0 -->
      <g style="fill: #9400d3" transform="translate(429.53 287.214653) scale(0.1 -0.1)">
       <use xlink:href="#DejaVuSans-30"/>
      </g>
     </g>
    </g>
    <g id="ytick_9">
     <g id="line2d_44">
      <g>
       <use xlink:href="#m209acb02ed" x="422.53" y="225.616596" style="stroke: #000000; stroke-width: 0.8"/>
      </g>
     </g>
     <g id="text_18">
      <!-- 1 -->
      <g style="fill: #9400d3" transform="translate(429.53 229.415814) scale(0.1 -0.1)">
       <use xlink:href="#DejaVuSans-31"/>
      </g>
     </g>
    </g>
    <g id="ytick_10">
     <g id="line2d_45">
      <g>
       <use xlink:href="#m209acb02ed" x="422.53" y="167.817757" style="stroke: #000000; stroke-width: 0.8"/>
      </g>
     </g>
     <g id="text_19">
      <!-- 2 -->
      <g style="fill: #9400d3" transform="translate(429.53 171.616976) scale(0.1 -0.1)">
       <use xlink:href="#DejaVuSans-32"/>
      </g>
     </g>
    </g>
    <g id="ytick_11">
     <g id="line2d_46">
      <g>
       <use xlink:href="#m209acb02ed" x="422.53" y="110.018919" style="stroke: #000000; stroke-width: 0.8"/>
      </g>
     </g>
     <g id="text_20">
      <!-- 3 -->
      <g style="fill: #9400d3" transform="translate(429.53 113.818138) scale(0.1 -0.1)">
       <use xlink:href="#DejaVuSans-33"/>
      </g>
     </g>
    </g>
    <g id="ytick_12">
     <g id="line2d_47">
      <g>
       <use xlink:href="#m209acb02ed" x="422.53" y="52.220081" style="stroke: #000000; stroke-width: 0.8"/>
      </g>
     </g>
     <g id="text_21">
      <!-- 4 -->
      <g style="fill: #9400d3" transform="translate(429.53 56.0193) scale(0.1 -0.1)">
       <use xlink:href="#DejaVuSans-34"/>
      </g>
     </g>
    </g>
    <g id="text_22">
     <!-- SRB Expression Rate -->
     <g style="fill: #9400d3" transform="translate(447.490938 209.078594) rotate(-90) scale(0.1 -0.1)">
      <defs>
       <path id="DejaVuSans-53" d="M 3425 4513 
L 3425 3897 
Q 3066 4069 2747 4153 
Q 2428 4238 2131 4238 
Q 1616 4238 1336 4038 
Q 1056 3838 1056 3469 
Q 1056 3159 1242 3001 
Q 1428 2844 1947 2747 
L 2328 2669 
Q 3034 2534 3370 2195 
Q 3706 1856 3706 1288 
Q 3706 609 3251 259 
Q 2797 -91 1919 -91 
Q 1588 -91 1214 -16 
Q 841 59 441 206 
L 441 856 
Q 825 641 1194 531 
Q 1563 422 1919 422 
Q 2459 422 2753 634 
Q 3047 847 3047 1241 
Q 3047 1584 2836 1778 
Q 2625 1972 2144 2069 
L 1759 2144 
Q 1053 2284 737 2584 
Q 422 2884 422 3419 
Q 422 4038 858 4394 
Q 1294 4750 2059 4750 
Q 2388 4750 2728 4690 
Q 3069 4631 3425 4513 
z
" transform="scale(0.015625)"/>
       <path id="DejaVuSans-42" d="M 1259 2228 
L 1259 519 
L 2272 519 
Q 2781 519 3026 730 
Q 3272 941 3272 1375 
Q 3272 1813 3026 2020 
Q 2781 2228 2272 2228 
L 1259 2228 
z
M 1259 4147 
L 1259 2741 
L 2194 2741 
Q 2656 2741 2882 2914 
Q 3109 3088 3109 3444 
Q 3109 3797 2882 3972 
Q 2656 4147 2194 4147 
L 1259 4147 
z
M 628 4666 
L 2241 4666 
Q 2963 4666 3353 4366 
Q 3744 4066 3744 3513 
Q 3744 3084 3544 2831 
Q 3344 2578 2956 2516 
Q 3422 2416 3680 2098 
Q 3938 1781 3938 1306 
Q 3938 681 3513 340 
Q 3088 0 2303 0 
L 628 0 
L 628 4666 
z
" transform="scale(0.015625)"/>
       <path id="DejaVuSans-45" d="M 628 4666 
L 3578 4666 
L 3578 4134 
L 1259 4134 
L 1259 2753 
L 3481 2753 
L 3481 2222 
L 1259 2222 
L 1259 531 
L 3634 531 
L 3634 0 
L 628 0 
L 628 4666 
z
" transform="scale(0.015625)"/>
       <path id="DejaVuSans-78" d="M 3513 3500 
L 2247 1797 
L 3578 0 
L 2900 0 
L 1881 1375 
L 863 0 
L 184 0 
L 1544 1831 
L 300 3500 
L 978 3500 
L 1906 2253 
L 2834 3500 
L 3513 3500 
z
" transform="scale(0.015625)"/>
       <path id="DejaVuSans-70" d="M 1159 525 
L 1159 -1331 
L 581 -1331 
L 581 3500 
L 1159 3500 
L 1159 2969 
Q 1341 3281 1617 3432 
Q 1894 3584 2278 3584 
Q 2916 3584 3314 3078 
Q 3713 2572 3713 1747 
Q 3713 922 3314 415 
Q 2916 -91 2278 -91 
Q 1894 -91 1617 61 
Q 1341 213 1159 525 
z
M 3116 1747 
Q 3116 2381 2855 2742 
Q 2594 3103 2138 3103 
Q 1681 3103 1420 2742 
Q 1159 2381 1159 1747 
Q 1159 1113 1420 752 
Q 1681 391 2138 391 
Q 2594 391 2855 752 
Q 3116 1113 3116 1747 
z
" transform="scale(0.015625)"/>
       <path id="DejaVuSans-72" d="M 2631 2963 
Q 2534 3019 2420 3045 
Q 2306 3072 2169 3072 
Q 1681 3072 1420 2755 
Q 1159 2438 1159 1844 
L 1159 0 
L 581 0 
L 581 3500 
L 1159 3500 
L 1159 2956 
Q 1341 3275 1631 3429 
Q 1922 3584 2338 3584 
Q 2397 3584 2469 3576 
Q 2541 3569 2628 3553 
L 2631 2963 
z
" transform="scale(0.015625)"/>
       <path id="DejaVuSans-73" d="M 2834 3397 
L 2834 2853 
Q 2591 2978 2328 3040 
Q 2066 3103 1784 3103 
Q 1356 3103 1142 2972 
Q 928 2841 928 2578 
Q 928 2378 1081 2264 
Q 1234 2150 1697 2047 
L 1894 2003 
Q 2506 1872 2764 1633 
Q 3022 1394 3022 966 
Q 3022 478 2636 193 
Q 2250 -91 1575 -91 
Q 1294 -91 989 -36 
Q 684 19 347 128 
L 347 722 
Q 666 556 975 473 
Q 1284 391 1588 391 
Q 1994 391 2212 530 
Q 2431 669 2431 922 
Q 2431 1156 2273 1281 
Q 2116 1406 1581 1522 
L 1381 1569 
Q 847 1681 609 1914 
Q 372 2147 372 2553 
Q 372 3047 722 3315 
Q 1072 3584 1716 3584 
Q 2034 3584 2315 3537 
Q 2597 3491 2834 3397 
z
" transform="scale(0.015625)"/>
       <path id="DejaVuSans-6f" d="M 1959 3097 
Q 1497 3097 1228 2736 
Q 959 2375 959 1747 
Q 959 1119 1226 758 
Q 1494 397 1959 397 
Q 2419 397 2687 759 
Q 2956 1122 2956 1747 
Q 2956 2369 2687 2733 
Q 2419 3097 1959 3097 
z
M 1959 3584 
Q 2709 3584 3137 3096 
Q 3566 2609 3566 1747 
Q 3566 888 3137 398 
Q 2709 -91 1959 -91 
Q 1206 -91 779 398 
Q 353 888 353 1747 
Q 353 2609 779 3096 
Q 1206 3584 1959 3584 
z
" transform="scale(0.015625)"/>
      </defs>
      <use xlink:href="#DejaVuSans-53"/>
      <use xlink:href="#DejaVuSans-52" x="63.476562"/>
      <use xlink:href="#DejaVuSans-42" x="132.958984"/>
      <use xlink:href="#DejaVuSans-20" x="201.5625"/>
      <use xlink:href="#DejaVuSans-45" x="233.349609"/>
      <use xlink:href="#DejaVuSans-78" x="296.533203"/>
      <use xlink:href="#DejaVuSans-70" x="355.712891"/>
      <use xlink:href="#DejaVuSans-72" x="419.189453"/>
      <use xlink:href="#DejaVuSans-65" x="458.052734"/>
      <use xlink:href="#DejaVuSans-73" x="519.576172"/>
      <use xlink:href="#DejaVuSans-73" x="571.675781"/>
      <use xlink:href="#DejaVuSans-69" x="623.775391"/>
      <use xlink:href="#DejaVuSans-6f" x="651.558594"/>
      <use xlink:href="#DejaVuSans-6e" x="712.740234"/>
      <use xlink:href="#DejaVuSans-20" x="776.119141"/>
      <use xlink:href="#DejaVuSans-52" x="807.90625"/>
      <use xlink:href="#DejaVuSans-61" x="875.138672"/>
      <use xlink:href="#DejaVuSans-74" x="936.417969"/>
      <use xlink:href="#DejaVuSans-65" x="975.626953"/>
     </g>
    </g>
   </g>
   <g id="line2d_48">
    <path d="M 84.800134 132.930815 
L 87.837 134.684622 
L 90.873866 135.290589 
L 93.910732 134.833066 
L 96.947598 133.3964 
L 99.984464 131.06494 
L 103.02133 127.923033 
L 106.058196 124.055029 
L 109.095062 119.545276 
L 112.131928 114.478122 
L 115.168794 108.937915 
L 118.20566 103.009004 
L 121.242526 96.775737 
L 124.279392 90.322463 
L 127.316257 83.733529 
L 130.353123 77.093285 
L 133.389989 70.486078 
L 136.426855 63.996257 
L 139.463721 57.70817 
L 142.500587 51.706166 
L 145.537453 46.074593 
L 148.574319 40.897799 
L 151.611185 36.260133 
L 154.648051 32.245943 
L 157.684917 28.939577 
L 160.721783 26.425384 
L 163.758649 24.787712 
L 166.795515 24.110909 
L 169.832381 24.479324 
L 172.869247 25.977305 
L 175.906113 28.689201 
L 178.942979 32.69936 
L 181.979845 38.092129 
L 185.016711 44.951859 
L 188.053577 53.315713 
L 191.090443 63.032127 
L 194.127309 73.902351 
L 197.164175 85.727637 
L 200.201041 98.309236 
L 203.237907 111.4484 
L 206.274773 124.94638 
L 209.311639 138.604427 
L 212.348505 152.223793 
L 215.385371 165.605729 
L 218.422237 178.551486 
L 221.459103 190.862316 
L 224.495969 202.33947 
L 227.532835 212.7842 
L 230.569701 221.997756 
L 233.606567 229.78139 
L 236.643433 235.943862 
L 239.680299 240.466618 
L 242.717165 243.503792 
L 245.754031 245.217028 
L 248.790897 245.767967 
L 251.827763 245.31825 
L 254.864629 244.029522 
L 257.901495 242.063424 
L 260.938361 239.581597 
L 263.975227 236.745685 
L 267.012093 233.71733 
L 270.048959 230.658174 
L 273.085825 227.72986 
L 276.122691 225.094029 
L 279.159557 222.912323 
L 282.196423 221.346386 
L 285.233289 220.55786 
L 288.270155 220.667371 
L 291.307021 221.631485 
L 294.343887 223.365755 
L 297.380753 225.78573 
L 300.417619 228.806962 
L 303.454485 232.345001 
L 306.491351 236.315399 
L 309.528217 240.633707 
L 312.565083 245.215476 
L 315.601949 249.976256 
L 318.638815 254.831599 
L 321.675681 259.697055 
L 324.712547 264.488176 
L 327.749413 269.120513 
L 330.786279 273.509617 
L 333.823145 277.571038 
L 336.860011 281.220328 
L 339.896877 284.373037 
L 342.933743 286.944717 
L 345.970608 288.850919 
L 349.007474 290.007193 
L 352.04434 290.329091 
L 355.081206 289.732163 
L 358.118072 288.131961 
L 361.154938 285.444036 
L 364.191804 281.583938 
L 367.22867 276.467219 
L 370.265536 270.00943 
L 373.302402 262.126121 
L 376.339268 252.732843 
L 379.376134 241.745148 
L 382.413 229.078587 
L 385.449866 214.64871 
" clip-path="url(#p58f7f843dc)" style="fill: none; stroke: #ee82ee; stroke-width: 1.5; stroke-linecap: square"/>
   </g>
   <g id="patch_22">
    <path d="M 47.72 303.64 
L 47.72 10.8 
" style="fill: none; stroke: #000000; stroke-width: 0.8; stroke-linejoin: miter; stroke-linecap: square"/>
   </g>
   <g id="patch_23">
    <path d="M 422.53 303.64 
L 422.53 10.8 
" style="fill: none; stroke: #000000; stroke-width: 0.8; stroke-linejoin: miter; stroke-linecap: square"/>
   </g>
   <g id="patch_24">
    <path d="M 47.72 303.64 
L 422.53 303.64 
" style="fill: none; stroke: #000000; stroke-width: 0.8; stroke-linejoin: miter; stroke-linecap: square"/>
   </g>
  </g>
 </g>
 <defs>
  <clipPath id="p58f7f843dc">
   <rect x="47.72" y="10.8" width="374.81" height="292.84"/>
  </clipPath>
 </defs>
</svg>
