<?xml version="1.0" encoding="utf-8" standalone="no"?>
<!DOCTYPE svg PUBLIC "-//W3C//DTD SVG 1.1//EN"
  "http://www.w3.org/Graphics/SVG/1.1/DTD/svg11.dtd">
<svg xmlns:xlink="http://www.w3.org/1999/xlink" width="460.8pt" height="345.6pt" viewBox="0 0 460.8 345.6" xmlns="http://www.w3.org/2000/svg" version="1.1">
 <metadata>
  <rdf:RDF xmlns:dc="http://purl.org/dc/elements/1.1/" xmlns:cc="http://creativecommons.org/ns#" xmlns:rdf="http://www.w3.org/1999/02/22-rdf-syntax-ns#">
   <cc:Work>
    <dc:type rdf:resource="http://purl.org/dc/dcmitype/StillImage"/>
    <dc:date>2024-05-22T18:57:19.088605</dc:date>
    <dc:format>image/svg+xml</dc:format>
    <dc:creator>
     <cc:Agent>
      <dc:title>Matplotlib v3.8.4, https://matplotlib.org/</dc:title>
     </cc:Agent>
    </dc:creator>
   </cc:Work>
  </rdf:RDF>
 </metadata>
 <defs>
  <style type="text/css">*{stroke-linejoin: round; stroke-linecap: butt}</style>
 </defs>
 <g id="figure_1">
  <g id="patch_1">
   <path d="M 0 345.6 
L 460.8 345.6 
L 460.8 0 
L 0 0 
L 0 345.6 
z
" style="fill: none"/>
  </g>
  <g id="axes_1">
   <g id="patch_2">
    <path d="M 47.72 303.64 
L 450 303.64 
L 450 10.8 
L 47.72 10.8 
L 47.72 303.64 
z
" style="fill: none"/>
   </g>
   <g id="patch_3">
    <path d="M 187.908485 303.64 
L 187.908485 10.8 
L 248.86 10.8 
L 248.86 303.64 
z
" clip-path="url(#p6a4b4fe863)" style="fill: #808080; opacity: 0.25; stroke: #808080; stroke-linejoin: miter"/>
   </g>
   <g id="patch_4">
    <path d="M 309.811515 303.64 
L 309.811515 10.8 
L 370.76303 10.8 
L 370.76303 303.64 
z
" clip-path="url(#p6a4b4fe863)" style="fill: #808080; opacity: 0.25; stroke: #808080; stroke-linejoin: miter"/>
   </g>
   <g id="matplotlib.axis_1">
    <g id="xtick_1">
     <g id="line2d_1">
      <defs>
       <path id="md1dbc0e16b" d="M 0 0 
L 0 3.5 
" style="stroke: #000000; stroke-width: 0.8"/>
      </defs>
      <g>
       <use xlink:href="#md1dbc0e16b" x="66.005455" y="303.64" style="stroke: #000000; stroke-width: 0.8"/>
      </g>
     </g>
     <g id="text_1">
      <!-- 5 -->
      <g transform="translate(62.824205 318.238437) scale(0.1 -0.1)">
       <defs>
        <path id="DejaVuSans-35" d="M 691 4666 
L 3169 4666 
L 3169 4134 
L 1269 4134 
L 1269 2991 
Q 1406 3038 1543 3061 
Q 1681 3084 1819 3084 
Q 2600 3084 3056 2656 
Q 3513 2228 3513 1497 
Q 3513 744 3044 326 
Q 2575 -91 1722 -91 
Q 1428 -91 1123 -41 
Q 819 9 494 109 
L 494 744 
Q 775 591 1075 516 
Q 1375 441 1709 441 
Q 2250 441 2565 725 
Q 2881 1009 2881 1497 
Q 2881 1984 2565 2268 
Q 2250 2553 1709 2553 
Q 1456 2553 1204 2497 
Q 953 2441 691 2322 
L 691 4666 
z
" transform="scale(0.015625)"/>
       </defs>
       <use xlink:href="#DejaVuSans-35"/>
      </g>
     </g>
    </g>
    <g id="xtick_2">
     <g id="line2d_2">
      <g>
       <use xlink:href="#md1dbc0e16b" x="126.95697" y="303.64" style="stroke: #000000; stroke-width: 0.8"/>
      </g>
     </g>
     <g id="text_2">
      <!-- 5.4 -->
      <g transform="translate(119.005407 318.238437) scale(0.1 -0.1)">
       <defs>
        <path id="DejaVuSans-2e" d="M 684 794 
L 1344 794 
L 1344 0 
L 684 0 
L 684 794 
z
" transform="scale(0.015625)"/>
        <path id="DejaVuSans-34" d="M 2419 4116 
L 825 1625 
L 2419 1625 
L 2419 4116 
z
M 2253 4666 
L 3047 4666 
L 3047 1625 
L 3713 1625 
L 3713 1100 
L 3047 1100 
L 3047 0 
L 2419 0 
L 2419 1100 
L 313 1100 
L 313 1709 
L 2253 4666 
z
" transform="scale(0.015625)"/>
       </defs>
       <use xlink:href="#DejaVuSans-35"/>
       <use xlink:href="#DejaVuSans-2e" x="63.623047"/>
       <use xlink:href="#DejaVuSans-34" x="95.410156"/>
      </g>
     </g>
    </g>
    <g id="xtick_3">
     <g id="line2d_3">
      <g>
       <use xlink:href="#md1dbc0e16b" x="187.908485" y="303.64" style="stroke: #000000; stroke-width: 0.8"/>
      </g>
     </g>
     <g id="text_3">
      <!-- 7 -->
      <g transform="translate(184.727235 318.238437) scale(0.1 -0.1)">
       <defs>
        <path id="DejaVuSans-37" d="M 525 4666 
L 3525 4666 
L 3525 4397 
L 1831 0 
L 1172 0 
L 2766 4134 
L 525 4134 
L 525 4666 
z
" transform="scale(0.015625)"/>
       </defs>
       <use xlink:href="#DejaVuSans-37"/>
      </g>
     </g>
    </g>
    <g id="xtick_4">
     <g id="line2d_4">
      <g>
       <use xlink:href="#md1dbc0e16b" x="248.86" y="303.64" style="stroke: #000000; stroke-width: 0.8"/>
      </g>
     </g>
     <g id="text_4">
      <!-- 8 -->
      <g transform="translate(245.67875 318.238437) scale(0.1 -0.1)">
       <defs>
        <path id="DejaVuSans-38" d="M 2034 2216 
Q 1584 2216 1326 1975 
Q 1069 1734 1069 1313 
Q 1069 891 1326 650 
Q 1584 409 2034 409 
Q 2484 409 2743 651 
Q 3003 894 3003 1313 
Q 3003 1734 2745 1975 
Q 2488 2216 2034 2216 
z
M 1403 2484 
Q 997 2584 770 2862 
Q 544 3141 544 3541 
Q 544 4100 942 4425 
Q 1341 4750 2034 4750 
Q 2731 4750 3128 4425 
Q 3525 4100 3525 3541 
Q 3525 3141 3298 2862 
Q 3072 2584 2669 2484 
Q 3125 2378 3379 2068 
Q 3634 1759 3634 1313 
Q 3634 634 3220 271 
Q 2806 -91 2034 -91 
Q 1263 -91 848 271 
Q 434 634 434 1313 
Q 434 1759 690 2068 
Q 947 2378 1403 2484 
z
M 1172 3481 
Q 1172 3119 1398 2916 
Q 1625 2713 2034 2713 
Q 2441 2713 2670 2916 
Q 2900 3119 2900 3481 
Q 2900 3844 2670 4047 
Q 2441 4250 2034 4250 
Q 1625 4250 1398 4047 
Q 1172 3844 1172 3481 
z
" transform="scale(0.015625)"/>
       </defs>
       <use xlink:href="#DejaVuSans-38"/>
      </g>
     </g>
    </g>
    <g id="xtick_5">
     <g id="line2d_5">
      <g>
       <use xlink:href="#md1dbc0e16b" x="309.811515" y="303.64" style="stroke: #000000; stroke-width: 0.8"/>
      </g>
     </g>
     <g id="text_5">
      <!-- 10 -->
      <g transform="translate(303.449015 318.238437) scale(0.1 -0.1)">
       <defs>
        <path id="DejaVuSans-31" d="M 794 531 
L 1825 531 
L 1825 4091 
L 703 3866 
L 703 4441 
L 1819 4666 
L 2450 4666 
L 2450 531 
L 3481 531 
L 3481 0 
L 794 0 
L 794 531 
z
" transform="scale(0.015625)"/>
        <path id="DejaVuSans-30" d="M 2034 4250 
Q 1547 4250 1301 3770 
Q 1056 3291 1056 2328 
Q 1056 1369 1301 889 
Q 1547 409 2034 409 
Q 2525 409 2770 889 
Q 3016 1369 3016 2328 
Q 3016 3291 2770 3770 
Q 2525 4250 2034 4250 
z
M 2034 4750 
Q 2819 4750 3233 4129 
Q 3647 3509 3647 2328 
Q 3647 1150 3233 529 
Q 2819 -91 2034 -91 
Q 1250 -91 836 529 
Q 422 1150 422 2328 
Q 422 3509 836 4129 
Q 1250 4750 2034 4750 
z
" transform="scale(0.015625)"/>
       </defs>
       <use xlink:href="#DejaVuSans-31"/>
       <use xlink:href="#DejaVuSans-30" x="63.623047"/>
      </g>
     </g>
    </g>
    <g id="xtick_6">
     <g id="line2d_6">
      <g>
       <use xlink:href="#md1dbc0e16b" x="370.76303" y="303.64" style="stroke: #000000; stroke-width: 0.8"/>
      </g>
     </g>
     <g id="text_6">
      <!-- 11 -->
      <g transform="translate(364.40053 318.238437) scale(0.1 -0.1)">
       <use xlink:href="#DejaVuSans-31"/>
       <use xlink:href="#DejaVuSans-31" x="63.623047"/>
      </g>
     </g>
    </g>
    <g id="xtick_7">
     <g id="line2d_7">
      <g>
       <use xlink:href="#md1dbc0e16b" x="431.714545" y="303.64" style="stroke: #000000; stroke-width: 0.8"/>
      </g>
     </g>
     <g id="text_7">
      <!-- 15 -->
      <g transform="translate(425.352045 318.238437) scale(0.1 -0.1)">
       <use xlink:href="#DejaVuSans-31"/>
       <use xlink:href="#DejaVuSans-35" x="63.623047"/>
      </g>
     </g>
    </g>
    <g id="text_8">
     <!-- Temps (jour) -->
     <g transform="translate(217.767031 331.916562) scale(0.1 -0.1)">
      <defs>
       <path id="DejaVuSans-54" d="M -19 4666 
L 3928 4666 
L 3928 4134 
L 2272 4134 
L 2272 0 
L 1638 0 
L 1638 4134 
L -19 4134 
L -19 4666 
z
" transform="scale(0.015625)"/>
       <path id="DejaVuSans-65" d="M 3597 1894 
L 3597 1613 
L 953 1613 
Q 991 1019 1311 708 
Q 1631 397 2203 397 
Q 2534 397 2845 478 
Q 3156 559 3463 722 
L 3463 178 
Q 3153 47 2828 -22 
Q 2503 -91 2169 -91 
Q 1331 -91 842 396 
Q 353 884 353 1716 
Q 353 2575 817 3079 
Q 1281 3584 2069 3584 
Q 2775 3584 3186 3129 
Q 3597 2675 3597 1894 
z
M 3022 2063 
Q 3016 2534 2758 2815 
Q 2500 3097 2075 3097 
Q 1594 3097 1305 2825 
Q 1016 2553 972 2059 
L 3022 2063 
z
" transform="scale(0.015625)"/>
       <path id="DejaVuSans-6d" d="M 3328 2828 
Q 3544 3216 3844 3400 
Q 4144 3584 4550 3584 
Q 5097 3584 5394 3201 
Q 5691 2819 5691 2113 
L 5691 0 
L 5113 0 
L 5113 2094 
Q 5113 2597 4934 2840 
Q 4756 3084 4391 3084 
Q 3944 3084 3684 2787 
Q 3425 2491 3425 1978 
L 3425 0 
L 2847 0 
L 2847 2094 
Q 2847 2600 2669 2842 
Q 2491 3084 2119 3084 
Q 1678 3084 1418 2786 
Q 1159 2488 1159 1978 
L 1159 0 
L 581 0 
L 581 3500 
L 1159 3500 
L 1159 2956 
Q 1356 3278 1631 3431 
Q 1906 3584 2284 3584 
Q 2666 3584 2933 3390 
Q 3200 3197 3328 2828 
z
" transform="scale(0.015625)"/>
       <path id="DejaVuSans-70" d="M 1159 525 
L 1159 -1331 
L 581 -1331 
L 581 3500 
L 1159 3500 
L 1159 2969 
Q 1341 3281 1617 3432 
Q 1894 3584 2278 3584 
Q 2916 3584 3314 3078 
Q 3713 2572 3713 1747 
Q 3713 922 3314 415 
Q 2916 -91 2278 -91 
Q 1894 -91 1617 61 
Q 1341 213 1159 525 
z
M 3116 1747 
Q 3116 2381 2855 2742 
Q 2594 3103 2138 3103 
Q 1681 3103 1420 2742 
Q 1159 2381 1159 1747 
Q 1159 1113 1420 752 
Q 1681 391 2138 391 
Q 2594 391 2855 752 
Q 3116 1113 3116 1747 
z
" transform="scale(0.015625)"/>
       <path id="DejaVuSans-73" d="M 2834 3397 
L 2834 2853 
Q 2591 2978 2328 3040 
Q 2066 3103 1784 3103 
Q 1356 3103 1142 2972 
Q 928 2841 928 2578 
Q 928 2378 1081 2264 
Q 1234 2150 1697 2047 
L 1894 2003 
Q 2506 1872 2764 1633 
Q 3022 1394 3022 966 
Q 3022 478 2636 193 
Q 2250 -91 1575 -91 
Q 1294 -91 989 -36 
Q 684 19 347 128 
L 347 722 
Q 666 556 975 473 
Q 1284 391 1588 391 
Q 1994 391 2212 530 
Q 2431 669 2431 922 
Q 2431 1156 2273 1281 
Q 2116 1406 1581 1522 
L 1381 1569 
Q 847 1681 609 1914 
Q 372 2147 372 2553 
Q 372 3047 722 3315 
Q 1072 3584 1716 3584 
Q 2034 3584 2315 3537 
Q 2597 3491 2834 3397 
z
" transform="scale(0.015625)"/>
       <path id="DejaVuSans-20" transform="scale(0.015625)"/>
       <path id="DejaVuSans-28" d="M 1984 4856 
Q 1566 4138 1362 3434 
Q 1159 2731 1159 2009 
Q 1159 1288 1364 580 
Q 1569 -128 1984 -844 
L 1484 -844 
Q 1016 -109 783 600 
Q 550 1309 550 2009 
Q 550 2706 781 3412 
Q 1013 4119 1484 4856 
L 1984 4856 
z
" transform="scale(0.015625)"/>
       <path id="DejaVuSans-6a" d="M 603 3500 
L 1178 3500 
L 1178 -63 
Q 1178 -731 923 -1031 
Q 669 -1331 103 -1331 
L -116 -1331 
L -116 -844 
L 38 -844 
Q 366 -844 484 -692 
Q 603 -541 603 -63 
L 603 3500 
z
M 603 4863 
L 1178 4863 
L 1178 4134 
L 603 4134 
L 603 4863 
z
" transform="scale(0.015625)"/>
       <path id="DejaVuSans-6f" d="M 1959 3097 
Q 1497 3097 1228 2736 
Q 959 2375 959 1747 
Q 959 1119 1226 758 
Q 1494 397 1959 397 
Q 2419 397 2687 759 
Q 2956 1122 2956 1747 
Q 2956 2369 2687 2733 
Q 2419 3097 1959 3097 
z
M 1959 3584 
Q 2709 3584 3137 3096 
Q 3566 2609 3566 1747 
Q 3566 888 3137 398 
Q 2709 -91 1959 -91 
Q 1206 -91 779 398 
Q 353 888 353 1747 
Q 353 2609 779 3096 
Q 1206 3584 1959 3584 
z
" transform="scale(0.015625)"/>
       <path id="DejaVuSans-75" d="M 544 1381 
L 544 3500 
L 1119 3500 
L 1119 1403 
Q 1119 906 1312 657 
Q 1506 409 1894 409 
Q 2359 409 2629 706 
Q 2900 1003 2900 1516 
L 2900 3500 
L 3475 3500 
L 3475 0 
L 2900 0 
L 2900 538 
Q 2691 219 2414 64 
Q 2138 -91 1772 -91 
Q 1169 -91 856 284 
Q 544 659 544 1381 
z
M 1991 3584 
L 1991 3584 
z
" transform="scale(0.015625)"/>
       <path id="DejaVuSans-72" d="M 2631 2963 
Q 2534 3019 2420 3045 
Q 2306 3072 2169 3072 
Q 1681 3072 1420 2755 
Q 1159 2438 1159 1844 
L 1159 0 
L 581 0 
L 581 3500 
L 1159 3500 
L 1159 2956 
Q 1341 3275 1631 3429 
Q 1922 3584 2338 3584 
Q 2397 3584 2469 3576 
Q 2541 3569 2628 3553 
L 2631 2963 
z
" transform="scale(0.015625)"/>
       <path id="DejaVuSans-29" d="M 513 4856 
L 1013 4856 
Q 1481 4119 1714 3412 
Q 1947 2706 1947 2009 
Q 1947 1309 1714 600 
Q 1481 -109 1013 -844 
L 513 -844 
Q 928 -128 1133 580 
Q 1338 1288 1338 2009 
Q 1338 2731 1133 3434 
Q 928 4138 513 4856 
z
" transform="scale(0.015625)"/>
      </defs>
      <use xlink:href="#DejaVuSans-54"/>
      <use xlink:href="#DejaVuSans-65" x="44.083984"/>
      <use xlink:href="#DejaVuSans-6d" x="105.607422"/>
      <use xlink:href="#DejaVuSans-70" x="203.019531"/>
      <use xlink:href="#DejaVuSans-73" x="266.496094"/>
      <use xlink:href="#DejaVuSans-20" x="318.595703"/>
      <use xlink:href="#DejaVuSans-28" x="350.382812"/>
      <use xlink:href="#DejaVuSans-6a" x="389.396484"/>
      <use xlink:href="#DejaVuSans-6f" x="417.179688"/>
      <use xlink:href="#DejaVuSans-75" x="478.361328"/>
      <use xlink:href="#DejaVuSans-72" x="541.740234"/>
      <use xlink:href="#DejaVuSans-29" x="582.853516"/>
     </g>
    </g>
   </g>
   <g id="matplotlib.axis_2">
    <g id="ytick_1">
     <g id="line2d_8">
      <defs>
       <path id="m8967cca2f1" d="M 0 0 
L -3.5 0 
" style="stroke: #000000; stroke-width: 0.8"/>
      </defs>
      <g>
       <use xlink:href="#m8967cca2f1" x="47.72" y="295.436607" style="stroke: #000000; stroke-width: 0.8"/>
      </g>
     </g>
     <g id="text_9">
      <!-- 0.0 -->
      <g transform="translate(24.816875 299.235826) scale(0.1 -0.1)">
       <use xlink:href="#DejaVuSans-30"/>
       <use xlink:href="#DejaVuSans-2e" x="63.623047"/>
       <use xlink:href="#DejaVuSans-30" x="95.410156"/>
      </g>
     </g>
    </g>
    <g id="ytick_2">
     <g id="line2d_9">
      <g>
       <use xlink:href="#m8967cca2f1" x="47.72" y="255.521953" style="stroke: #000000; stroke-width: 0.8"/>
      </g>
     </g>
     <g id="text_10">
      <!-- 0.2 -->
      <g transform="translate(24.816875 259.321172) scale(0.1 -0.1)">
       <defs>
        <path id="DejaVuSans-32" d="M 1228 531 
L 3431 531 
L 3431 0 
L 469 0 
L 469 531 
Q 828 903 1448 1529 
Q 2069 2156 2228 2338 
Q 2531 2678 2651 2914 
Q 2772 3150 2772 3378 
Q 2772 3750 2511 3984 
Q 2250 4219 1831 4219 
Q 1534 4219 1204 4116 
Q 875 4013 500 3803 
L 500 4441 
Q 881 4594 1212 4672 
Q 1544 4750 1819 4750 
Q 2544 4750 2975 4387 
Q 3406 4025 3406 3419 
Q 3406 3131 3298 2873 
Q 3191 2616 2906 2266 
Q 2828 2175 2409 1742 
Q 1991 1309 1228 531 
z
" transform="scale(0.015625)"/>
       </defs>
       <use xlink:href="#DejaVuSans-30"/>
       <use xlink:href="#DejaVuSans-2e" x="63.623047"/>
       <use xlink:href="#DejaVuSans-32" x="95.410156"/>
      </g>
     </g>
    </g>
    <g id="ytick_3">
     <g id="line2d_10">
      <g>
       <use xlink:href="#m8967cca2f1" x="47.72" y="215.6073" style="stroke: #000000; stroke-width: 0.8"/>
      </g>
     </g>
     <g id="text_11">
      <!-- 0.4 -->
      <g transform="translate(24.816875 219.406518) scale(0.1 -0.1)">
       <use xlink:href="#DejaVuSans-30"/>
       <use xlink:href="#DejaVuSans-2e" x="63.623047"/>
       <use xlink:href="#DejaVuSans-34" x="95.410156"/>
      </g>
     </g>
    </g>
    <g id="ytick_4">
     <g id="line2d_11">
      <g>
       <use xlink:href="#m8967cca2f1" x="47.72" y="175.692646" style="stroke: #000000; stroke-width: 0.8"/>
      </g>
     </g>
     <g id="text_12">
      <!-- 0.6 -->
      <g transform="translate(24.816875 179.491865) scale(0.1 -0.1)">
       <defs>
        <path id="DejaVuSans-36" d="M 2113 2584 
Q 1688 2584 1439 2293 
Q 1191 2003 1191 1497 
Q 1191 994 1439 701 
Q 1688 409 2113 409 
Q 2538 409 2786 701 
Q 3034 994 3034 1497 
Q 3034 2003 2786 2293 
Q 2538 2584 2113 2584 
z
M 3366 4563 
L 3366 3988 
Q 3128 4100 2886 4159 
Q 2644 4219 2406 4219 
Q 1781 4219 1451 3797 
Q 1122 3375 1075 2522 
Q 1259 2794 1537 2939 
Q 1816 3084 2150 3084 
Q 2853 3084 3261 2657 
Q 3669 2231 3669 1497 
Q 3669 778 3244 343 
Q 2819 -91 2113 -91 
Q 1303 -91 875 529 
Q 447 1150 447 2328 
Q 447 3434 972 4092 
Q 1497 4750 2381 4750 
Q 2619 4750 2861 4703 
Q 3103 4656 3366 4563 
z
" transform="scale(0.015625)"/>
       </defs>
       <use xlink:href="#DejaVuSans-30"/>
       <use xlink:href="#DejaVuSans-2e" x="63.623047"/>
       <use xlink:href="#DejaVuSans-36" x="95.410156"/>
      </g>
     </g>
    </g>
    <g id="ytick_5">
     <g id="line2d_12">
      <g>
       <use xlink:href="#m8967cca2f1" x="47.72" y="135.777992" style="stroke: #000000; stroke-width: 0.8"/>
      </g>
     </g>
     <g id="text_13">
      <!-- 0.8 -->
      <g transform="translate(24.816875 139.577211) scale(0.1 -0.1)">
       <use xlink:href="#DejaVuSans-30"/>
       <use xlink:href="#DejaVuSans-2e" x="63.623047"/>
       <use xlink:href="#DejaVuSans-38" x="95.410156"/>
      </g>
     </g>
    </g>
    <g id="ytick_6">
     <g id="line2d_13">
      <g>
       <use xlink:href="#m8967cca2f1" x="47.72" y="95.863338" style="stroke: #000000; stroke-width: 0.8"/>
      </g>
     </g>
     <g id="text_14">
      <!-- 1.0 -->
      <g transform="translate(24.816875 99.662557) scale(0.1 -0.1)">
       <use xlink:href="#DejaVuSans-31"/>
       <use xlink:href="#DejaVuSans-2e" x="63.623047"/>
       <use xlink:href="#DejaVuSans-30" x="95.410156"/>
      </g>
     </g>
    </g>
    <g id="ytick_7">
     <g id="line2d_14">
      <g>
       <use xlink:href="#m8967cca2f1" x="47.72" y="55.948685" style="stroke: #000000; stroke-width: 0.8"/>
      </g>
     </g>
     <g id="text_15">
      <!-- 1.2 -->
      <g transform="translate(24.816875 59.747903) scale(0.1 -0.1)">
       <use xlink:href="#DejaVuSans-31"/>
       <use xlink:href="#DejaVuSans-2e" x="63.623047"/>
       <use xlink:href="#DejaVuSans-32" x="95.410156"/>
      </g>
     </g>
    </g>
    <g id="ytick_8">
     <g id="line2d_15">
      <g>
       <use xlink:href="#m8967cca2f1" x="47.72" y="16.034031" style="stroke: #000000; stroke-width: 0.8"/>
      </g>
     </g>
     <g id="text_16">
      <!-- 1.4 -->
      <g transform="translate(24.816875 19.833249) scale(0.1 -0.1)">
       <use xlink:href="#DejaVuSans-31"/>
       <use xlink:href="#DejaVuSans-2e" x="63.623047"/>
       <use xlink:href="#DejaVuSans-34" x="95.410156"/>
      </g>
     </g>
    </g>
    <g id="text_17">
     <!-- Relative Abundance % -->
     <g transform="translate(18.737188 213.477812) rotate(-90) scale(0.1 -0.1)">
      <defs>
       <path id="DejaVuSans-52" d="M 2841 2188 
Q 3044 2119 3236 1894 
Q 3428 1669 3622 1275 
L 4263 0 
L 3584 0 
L 2988 1197 
Q 2756 1666 2539 1819 
Q 2322 1972 1947 1972 
L 1259 1972 
L 1259 0 
L 628 0 
L 628 4666 
L 2053 4666 
Q 2853 4666 3247 4331 
Q 3641 3997 3641 3322 
Q 3641 2881 3436 2590 
Q 3231 2300 2841 2188 
z
M 1259 4147 
L 1259 2491 
L 2053 2491 
Q 2509 2491 2742 2702 
Q 2975 2913 2975 3322 
Q 2975 3731 2742 3939 
Q 2509 4147 2053 4147 
L 1259 4147 
z
" transform="scale(0.015625)"/>
       <path id="DejaVuSans-6c" d="M 603 4863 
L 1178 4863 
L 1178 0 
L 603 0 
L 603 4863 
z
" transform="scale(0.015625)"/>
       <path id="DejaVuSans-61" d="M 2194 1759 
Q 1497 1759 1228 1600 
Q 959 1441 959 1056 
Q 959 750 1161 570 
Q 1363 391 1709 391 
Q 2188 391 2477 730 
Q 2766 1069 2766 1631 
L 2766 1759 
L 2194 1759 
z
M 3341 1997 
L 3341 0 
L 2766 0 
L 2766 531 
Q 2569 213 2275 61 
Q 1981 -91 1556 -91 
Q 1019 -91 701 211 
Q 384 513 384 1019 
Q 384 1609 779 1909 
Q 1175 2209 1959 2209 
L 2766 2209 
L 2766 2266 
Q 2766 2663 2505 2880 
Q 2244 3097 1772 3097 
Q 1472 3097 1187 3025 
Q 903 2953 641 2809 
L 641 3341 
Q 956 3463 1253 3523 
Q 1550 3584 1831 3584 
Q 2591 3584 2966 3190 
Q 3341 2797 3341 1997 
z
" transform="scale(0.015625)"/>
       <path id="DejaVuSans-74" d="M 1172 4494 
L 1172 3500 
L 2356 3500 
L 2356 3053 
L 1172 3053 
L 1172 1153 
Q 1172 725 1289 603 
Q 1406 481 1766 481 
L 2356 481 
L 2356 0 
L 1766 0 
Q 1100 0 847 248 
Q 594 497 594 1153 
L 594 3053 
L 172 3053 
L 172 3500 
L 594 3500 
L 594 4494 
L 1172 4494 
z
" transform="scale(0.015625)"/>
       <path id="DejaVuSans-69" d="M 603 3500 
L 1178 3500 
L 1178 0 
L 603 0 
L 603 3500 
z
M 603 4863 
L 1178 4863 
L 1178 4134 
L 603 4134 
L 603 4863 
z
" transform="scale(0.015625)"/>
       <path id="DejaVuSans-76" d="M 191 3500 
L 800 3500 
L 1894 563 
L 2988 3500 
L 3597 3500 
L 2284 0 
L 1503 0 
L 191 3500 
z
" transform="scale(0.015625)"/>
       <path id="DejaVuSans-41" d="M 2188 4044 
L 1331 1722 
L 3047 1722 
L 2188 4044 
z
M 1831 4666 
L 2547 4666 
L 4325 0 
L 3669 0 
L 3244 1197 
L 1141 1197 
L 716 0 
L 50 0 
L 1831 4666 
z
" transform="scale(0.015625)"/>
       <path id="DejaVuSans-62" d="M 3116 1747 
Q 3116 2381 2855 2742 
Q 2594 3103 2138 3103 
Q 1681 3103 1420 2742 
Q 1159 2381 1159 1747 
Q 1159 1113 1420 752 
Q 1681 391 2138 391 
Q 2594 391 2855 752 
Q 3116 1113 3116 1747 
z
M 1159 2969 
Q 1341 3281 1617 3432 
Q 1894 3584 2278 3584 
Q 2916 3584 3314 3078 
Q 3713 2572 3713 1747 
Q 3713 922 3314 415 
Q 2916 -91 2278 -91 
Q 1894 -91 1617 61 
Q 1341 213 1159 525 
L 1159 0 
L 581 0 
L 581 4863 
L 1159 4863 
L 1159 2969 
z
" transform="scale(0.015625)"/>
       <path id="DejaVuSans-6e" d="M 3513 2113 
L 3513 0 
L 2938 0 
L 2938 2094 
Q 2938 2591 2744 2837 
Q 2550 3084 2163 3084 
Q 1697 3084 1428 2787 
Q 1159 2491 1159 1978 
L 1159 0 
L 581 0 
L 581 3500 
L 1159 3500 
L 1159 2956 
Q 1366 3272 1645 3428 
Q 1925 3584 2291 3584 
Q 2894 3584 3203 3211 
Q 3513 2838 3513 2113 
z
" transform="scale(0.015625)"/>
       <path id="DejaVuSans-64" d="M 2906 2969 
L 2906 4863 
L 3481 4863 
L 3481 0 
L 2906 0 
L 2906 525 
Q 2725 213 2448 61 
Q 2172 -91 1784 -91 
Q 1150 -91 751 415 
Q 353 922 353 1747 
Q 353 2572 751 3078 
Q 1150 3584 1784 3584 
Q 2172 3584 2448 3432 
Q 2725 3281 2906 2969 
z
M 947 1747 
Q 947 1113 1208 752 
Q 1469 391 1925 391 
Q 2381 391 2643 752 
Q 2906 1113 2906 1747 
Q 2906 2381 2643 2742 
Q 2381 3103 1925 3103 
Q 1469 3103 1208 2742 
Q 947 2381 947 1747 
z
" transform="scale(0.015625)"/>
       <path id="DejaVuSans-63" d="M 3122 3366 
L 3122 2828 
Q 2878 2963 2633 3030 
Q 2388 3097 2138 3097 
Q 1578 3097 1268 2742 
Q 959 2388 959 1747 
Q 959 1106 1268 751 
Q 1578 397 2138 397 
Q 2388 397 2633 464 
Q 2878 531 3122 666 
L 3122 134 
Q 2881 22 2623 -34 
Q 2366 -91 2075 -91 
Q 1284 -91 818 406 
Q 353 903 353 1747 
Q 353 2603 823 3093 
Q 1294 3584 2113 3584 
Q 2378 3584 2631 3529 
Q 2884 3475 3122 3366 
z
" transform="scale(0.015625)"/>
       <path id="DejaVuSans-25" d="M 4653 2053 
Q 4381 2053 4226 1822 
Q 4072 1591 4072 1178 
Q 4072 772 4226 539 
Q 4381 306 4653 306 
Q 4919 306 5073 539 
Q 5228 772 5228 1178 
Q 5228 1588 5073 1820 
Q 4919 2053 4653 2053 
z
M 4653 2450 
Q 5147 2450 5437 2106 
Q 5728 1763 5728 1178 
Q 5728 594 5436 251 
Q 5144 -91 4653 -91 
Q 4153 -91 3862 251 
Q 3572 594 3572 1178 
Q 3572 1766 3864 2108 
Q 4156 2450 4653 2450 
z
M 1428 4353 
Q 1159 4353 1004 4120 
Q 850 3888 850 3481 
Q 850 3069 1003 2837 
Q 1156 2606 1428 2606 
Q 1700 2606 1854 2837 
Q 2009 3069 2009 3481 
Q 2009 3884 1853 4118 
Q 1697 4353 1428 4353 
z
M 4250 4750 
L 4750 4750 
L 1831 -91 
L 1331 -91 
L 4250 4750 
z
M 1428 4750 
Q 1922 4750 2215 4408 
Q 2509 4066 2509 3481 
Q 2509 2891 2217 2550 
Q 1925 2209 1428 2209 
Q 931 2209 642 2551 
Q 353 2894 353 3481 
Q 353 4063 643 4406 
Q 934 4750 1428 4750 
z
" transform="scale(0.015625)"/>
      </defs>
      <use xlink:href="#DejaVuSans-52"/>
      <use xlink:href="#DejaVuSans-65" x="64.982422"/>
      <use xlink:href="#DejaVuSans-6c" x="126.505859"/>
      <use xlink:href="#DejaVuSans-61" x="154.289062"/>
      <use xlink:href="#DejaVuSans-74" x="215.568359"/>
      <use xlink:href="#DejaVuSans-69" x="254.777344"/>
      <use xlink:href="#DejaVuSans-76" x="282.560547"/>
      <use xlink:href="#DejaVuSans-65" x="341.740234"/>
      <use xlink:href="#DejaVuSans-20" x="403.263672"/>
      <use xlink:href="#DejaVuSans-41" x="435.050781"/>
      <use xlink:href="#DejaVuSans-62" x="503.458984"/>
      <use xlink:href="#DejaVuSans-75" x="566.935547"/>
      <use xlink:href="#DejaVuSans-6e" x="630.314453"/>
      <use xlink:href="#DejaVuSans-64" x="693.693359"/>
      <use xlink:href="#DejaVuSans-61" x="757.169922"/>
      <use xlink:href="#DejaVuSans-6e" x="818.449219"/>
      <use xlink:href="#DejaVuSans-63" x="881.828125"/>
      <use xlink:href="#DejaVuSans-65" x="936.808594"/>
      <use xlink:href="#DejaVuSans-20" x="998.332031"/>
      <use xlink:href="#DejaVuSans-25" x="1030.119141"/>
     </g>
    </g>
   </g>
   <g id="line2d_16">
    <path d="M 66.005455 277.381215 
L 69.699486 281.061883 
L 73.393517 284.08391 
L 77.087548 286.476287 
L 80.781579 288.268004 
L 84.475611 289.48805 
L 88.169642 290.165416 
L 91.863673 290.329091 
L 95.557704 290.008065 
L 99.251736 289.231328 
L 102.945767 288.027871 
L 106.639798 286.426682 
L 110.333829 284.456752 
L 114.02786 282.147071 
L 117.721892 279.526629 
L 121.415923 276.624416 
L 125.109954 273.46942 
L 128.803985 270.090634 
L 132.498017 266.517045 
L 136.192048 262.777645 
L 139.886079 258.901423 
L 143.58011 254.91737 
L 147.274141 250.854474 
L 150.968173 246.741726 
L 154.662204 242.608116 
L 158.356235 238.482633 
L 162.050266 234.394269 
L 165.744298 230.372011 
L 169.438329 226.444852 
L 173.13236 222.641779 
L 176.826391 218.991784 
L 180.520422 215.523856 
L 184.214454 212.266986 
L 187.908485 209.250162 
L 191.602516 206.494074 
L 195.296547 203.986207 
L 198.990579 201.705744 
L 202.68461 199.631869 
L 206.378641 197.743766 
L 210.072672 196.020618 
L 213.766703 194.44161 
L 217.460735 192.985924 
L 221.154766 191.632744 
L 224.848797 190.361255 
L 228.542828 189.150639 
L 232.23686 187.980081 
L 235.930891 186.828764 
L 239.624922 185.675872 
L 243.318953 184.500589 
L 247.012984 183.282098 
L 250.707016 182.000365 
L 254.401047 180.653355 
L 258.095078 179.25703 
L 261.789109 177.828134 
L 265.48314 176.383412 
L 269.177172 174.939608 
L 272.871203 173.513467 
L 276.565234 172.121734 
L 280.259265 170.781153 
L 283.953297 169.508469 
L 287.647328 168.320426 
L 291.341359 167.233769 
L 295.03539 166.265242 
L 298.729421 165.431591 
L 302.423453 164.74956 
L 306.117484 164.235892 
L 309.811515 163.907334 
L 313.505546 163.774652 
L 317.199578 163.824703 
L 320.893609 164.038366 
L 324.58764 164.396523 
L 328.281671 164.880052 
L 331.975702 165.469832 
L 335.669734 166.146745 
L 339.363765 166.89167 
L 343.057796 167.685485 
L 346.751827 168.509072 
L 350.445859 169.34331 
L 354.13989 170.169078 
L 357.833921 170.967257 
L 361.527952 171.718725 
L 365.221983 172.404363 
L 368.916015 173.005051 
L 372.610046 173.501668 
L 376.304077 173.875094 
L 379.998108 174.106208 
L 383.69214 174.175891 
L 387.386171 174.065022 
L 391.080202 173.754481 
L 394.774233 173.225148 
L 398.468264 172.457901 
L 402.162296 171.433622 
L 405.856327 170.13319 
L 409.550358 168.537484 
L 413.244389 166.627385 
L 416.938421 164.383772 
L 420.632452 161.787524 
L 424.326483 158.819522 
L 428.020514 155.460645 
L 431.714545 151.691773 
" clip-path="url(#p6a4b4fe863)" style="fill: none; stroke: #000080; stroke-width: 1.5; stroke-linecap: square"/>
   </g>
   <g id="LineCollection_1">
    <path d="M 66.005455 277.682706 
L 66.005455 277.079724 
" clip-path="url(#p6a4b4fe863)" style="fill: none; stroke: #191970; stroke-width: 1.5"/>
    <path d="M 126.95697 272.069954 
L 126.95697 271.542424 
" clip-path="url(#p6a4b4fe863)" style="fill: none; stroke: #191970; stroke-width: 1.5"/>
    <path d="M 187.908485 210.033567 
L 187.908485 208.466757 
" clip-path="url(#p6a4b4fe863)" style="fill: none; stroke: #191970; stroke-width: 1.5"/>
    <path d="M 248.86 184.217758 
L 248.86 181.082531 
" clip-path="url(#p6a4b4fe863)" style="fill: none; stroke: #191970; stroke-width: 1.5"/>
    <path d="M 309.811515 165.186318 
L 309.811515 162.62835 
" clip-path="url(#p6a4b4fe863)" style="fill: none; stroke: #191970; stroke-width: 1.5"/>
    <path d="M 370.76303 174.478864 
L 370.76303 172.056262 
" clip-path="url(#p6a4b4fe863)" style="fill: none; stroke: #191970; stroke-width: 1.5"/>
    <path d="M 431.714545 154.630074 
L 431.714545 148.753472 
" clip-path="url(#p6a4b4fe863)" style="fill: none; stroke: #191970; stroke-width: 1.5"/>
   </g>
   <g id="line2d_17">
    <defs>
     <path id="m40ddf5a2e8" d="M 4 0 
L -4 -0 
" style="stroke: #191970"/>
    </defs>
    <g clip-path="url(#p6a4b4fe863)">
     <use xlink:href="#m40ddf5a2e8" x="66.005455" y="277.682706" style="fill: #191970; stroke: #191970"/>
     <use xlink:href="#m40ddf5a2e8" x="126.95697" y="272.069954" style="fill: #191970; stroke: #191970"/>
     <use xlink:href="#m40ddf5a2e8" x="187.908485" y="210.033567" style="fill: #191970; stroke: #191970"/>
     <use xlink:href="#m40ddf5a2e8" x="248.86" y="184.217758" style="fill: #191970; stroke: #191970"/>
     <use xlink:href="#m40ddf5a2e8" x="309.811515" y="165.186318" style="fill: #191970; stroke: #191970"/>
     <use xlink:href="#m40ddf5a2e8" x="370.76303" y="174.478864" style="fill: #191970; stroke: #191970"/>
     <use xlink:href="#m40ddf5a2e8" x="431.714545" y="154.630074" style="fill: #191970; stroke: #191970"/>
    </g>
   </g>
   <g id="line2d_18">
    <g clip-path="url(#p6a4b4fe863)">
     <use xlink:href="#m40ddf5a2e8" x="66.005455" y="277.079724" style="fill: #191970; stroke: #191970"/>
     <use xlink:href="#m40ddf5a2e8" x="126.95697" y="271.542424" style="fill: #191970; stroke: #191970"/>
     <use xlink:href="#m40ddf5a2e8" x="187.908485" y="208.466757" style="fill: #191970; stroke: #191970"/>
     <use xlink:href="#m40ddf5a2e8" x="248.86" y="181.082531" style="fill: #191970; stroke: #191970"/>
     <use xlink:href="#m40ddf5a2e8" x="309.811515" y="162.62835" style="fill: #191970; stroke: #191970"/>
     <use xlink:href="#m40ddf5a2e8" x="370.76303" y="172.056262" style="fill: #191970; stroke: #191970"/>
     <use xlink:href="#m40ddf5a2e8" x="431.714545" y="148.753472" style="fill: #191970; stroke: #191970"/>
    </g>
   </g>
   <g id="line2d_19">
    <path d="M 66.005455 105.331423 
L 69.699486 102.84806 
L 73.393517 99.926772 
L 77.087548 96.616596 
L 80.781579 92.966566 
L 84.475611 89.025718 
L 88.169642 84.843086 
L 91.863673 80.467707 
L 95.557704 75.948615 
L 99.251736 71.334845 
L 102.945767 66.675433 
L 106.639798 62.019414 
L 110.333829 57.415822 
L 114.02786 52.913694 
L 117.721892 48.562064 
L 121.415923 44.409967 
L 125.109954 40.506439 
L 128.803985 36.900515 
L 132.498017 33.64123 
L 136.192048 30.777619 
L 139.886079 28.358717 
L 143.58011 26.433561 
L 147.274141 25.051183 
L 150.968173 24.260621 
L 154.662204 24.110909 
L 158.356235 24.651082 
L 162.050266 25.930176 
L 165.744298 27.997225 
L 169.438329 30.901266 
L 173.13236 34.691332 
L 176.826391 39.416459 
L 180.520422 45.125683 
L 184.214454 51.868039 
L 187.908485 59.692561 
L 191.602516 68.609668 
L 195.296547 78.47531 
L 198.990579 89.106818 
L 202.68461 100.321526 
L 206.378641 111.936766 
L 210.072672 123.76987 
L 213.766703 135.638172 
L 217.460735 147.359002 
L 221.154766 158.749695 
L 224.848797 169.627582 
L 228.542828 179.809996 
L 232.23686 189.114269 
L 235.930891 197.357734 
L 239.624922 204.357724 
L 243.318953 209.931571 
L 247.012984 213.896607 
L 250.707016 216.078015 
L 254.401047 216.481542 
L 258.095078 215.293499 
L 261.789109 212.708044 
L 265.48314 208.91934 
L 269.177172 204.121545 
L 272.871203 198.508822 
L 276.565234 192.27533 
L 280.259265 185.615229 
L 283.953297 178.722681 
L 287.647328 171.791845 
L 291.341359 165.016883 
L 295.03539 158.591954 
L 298.729421 152.711219 
L 302.423453 147.568839 
L 306.117484 143.358974 
L 309.811515 140.275784 
L 313.505546 138.465213 
L 317.199578 137.880332 
L 320.893609 138.425994 
L 324.58764 140.007055 
L 328.281671 142.528367 
L 331.975702 145.894786 
L 335.669734 150.011164 
L 339.363765 154.782356 
L 343.057796 160.113216 
L 346.751827 165.908598 
L 350.445859 172.073355 
L 354.13989 178.512343 
L 357.833921 185.130414 
L 361.527952 191.832422 
L 365.221983 198.523222 
L 368.916015 205.107668 
L 372.610046 211.490614 
L 376.304077 217.576913 
L 379.998108 223.271419 
L 383.69214 228.478987 
L 387.386171 233.104471 
L 391.080202 237.052724 
L 394.774233 240.228601 
L 398.468264 242.536955 
L 402.162296 243.88264 
L 405.856327 244.170511 
L 409.550358 243.305421 
L 413.244389 241.192224 
L 416.938421 237.735774 
L 420.632452 232.840926 
L 424.326483 226.412533 
L 428.020514 218.35545 
L 431.714545 208.574529 
" clip-path="url(#p6a4b4fe863)" style="fill: none; stroke: #ffd700; stroke-width: 1.5; stroke-linecap: square"/>
   </g>
   <g id="LineCollection_2">
    <path d="M 66.005455 106.229386 
L 66.005455 104.433461 
" clip-path="url(#p6a4b4fe863)" style="fill: none; stroke: #bfbf00; stroke-width: 1.5"/>
    <path d="M 126.95697 39.570227 
L 126.95697 37.756196 
" clip-path="url(#p6a4b4fe863)" style="fill: none; stroke: #bfbf00; stroke-width: 1.5"/>
    <path d="M 187.908485 61.241464 
L 187.908485 58.143658 
" clip-path="url(#p6a4b4fe863)" style="fill: none; stroke: #bfbf00; stroke-width: 1.5"/>
    <path d="M 248.86 215.797462 
L 248.86 214.640012 
" clip-path="url(#p6a4b4fe863)" style="fill: none; stroke: #bfbf00; stroke-width: 1.5"/>
    <path d="M 309.811515 141.57717 
L 309.811515 138.974398 
" clip-path="url(#p6a4b4fe863)" style="fill: none; stroke: #bfbf00; stroke-width: 1.5"/>
    <path d="M 370.76303 209.012285 
L 370.76303 207.648265 
" clip-path="url(#p6a4b4fe863)" style="fill: none; stroke: #bfbf00; stroke-width: 1.5"/>
    <path d="M 431.714545 209.348208 
L 431.714545 207.80085 
" clip-path="url(#p6a4b4fe863)" style="fill: none; stroke: #bfbf00; stroke-width: 1.5"/>
   </g>
   <g id="line2d_20">
    <defs>
     <path id="m66bd7d9547" d="M 4 0 
L -4 -0 
" style="stroke: #bfbf00"/>
    </defs>
    <g clip-path="url(#p6a4b4fe863)">
     <use xlink:href="#m66bd7d9547" x="66.005455" y="106.229386" style="fill: #bfbf00; stroke: #bfbf00"/>
     <use xlink:href="#m66bd7d9547" x="126.95697" y="39.570227" style="fill: #bfbf00; stroke: #bfbf00"/>
     <use xlink:href="#m66bd7d9547" x="187.908485" y="61.241464" style="fill: #bfbf00; stroke: #bfbf00"/>
     <use xlink:href="#m66bd7d9547" x="248.86" y="215.797462" style="fill: #bfbf00; stroke: #bfbf00"/>
     <use xlink:href="#m66bd7d9547" x="309.811515" y="141.57717" style="fill: #bfbf00; stroke: #bfbf00"/>
     <use xlink:href="#m66bd7d9547" x="370.76303" y="209.012285" style="fill: #bfbf00; stroke: #bfbf00"/>
     <use xlink:href="#m66bd7d9547" x="431.714545" y="209.348208" style="fill: #bfbf00; stroke: #bfbf00"/>
    </g>
   </g>
   <g id="line2d_21">
    <g clip-path="url(#p6a4b4fe863)">
     <use xlink:href="#m66bd7d9547" x="66.005455" y="104.433461" style="fill: #bfbf00; stroke: #bfbf00"/>
     <use xlink:href="#m66bd7d9547" x="126.95697" y="37.756196" style="fill: #bfbf00; stroke: #bfbf00"/>
     <use xlink:href="#m66bd7d9547" x="187.908485" y="58.143658" style="fill: #bfbf00; stroke: #bfbf00"/>
     <use xlink:href="#m66bd7d9547" x="248.86" y="214.640012" style="fill: #bfbf00; stroke: #bfbf00"/>
     <use xlink:href="#m66bd7d9547" x="309.811515" y="138.974398" style="fill: #bfbf00; stroke: #bfbf00"/>
     <use xlink:href="#m66bd7d9547" x="370.76303" y="207.648265" style="fill: #bfbf00; stroke: #bfbf00"/>
     <use xlink:href="#m66bd7d9547" x="431.714545" y="207.80085" style="fill: #bfbf00; stroke: #bfbf00"/>
    </g>
   </g>
   <g id="patch_5">
    <path d="M 47.72 303.64 
L 47.72 10.8 
" style="fill: none; stroke: #000000; stroke-width: 0.8; stroke-linejoin: miter; stroke-linecap: square"/>
   </g>
   <g id="patch_6">
    <path d="M 47.72 303.64 
L 450 303.64 
" style="fill: none; stroke: #000000; stroke-width: 0.8; stroke-linejoin: miter; stroke-linecap: square"/>
   </g>
  </g>
 </g>
 <defs>
  <clipPath id="p6a4b4fe863">
   <rect x="47.72" y="10.8" width="402.28" height="292.84"/>
  </clipPath>
 </defs>
</svg>
