<?xml version="1.0" encoding="utf-8" standalone="no"?>
<!DOCTYPE svg PUBLIC "-//W3C//DTD SVG 1.1//EN"
  "http://www.w3.org/Graphics/SVG/1.1/DTD/svg11.dtd">
<svg xmlns:xlink="http://www.w3.org/1999/xlink" width="460.8pt" height="345.6pt" viewBox="0 0 460.8 345.6" xmlns="http://www.w3.org/2000/svg" version="1.1">
 <metadata>
  <rdf:RDF xmlns:dc="http://purl.org/dc/elements/1.1/" xmlns:cc="http://creativecommons.org/ns#" xmlns:rdf="http://www.w3.org/1999/02/22-rdf-syntax-ns#">
   <cc:Work>
    <dc:type rdf:resource="http://purl.org/dc/dcmitype/StillImage"/>
    <dc:date>2024-06-07T14:15:08.499982</dc:date>
    <dc:format>image/svg+xml</dc:format>
    <dc:creator>
     <cc:Agent>
      <dc:title>Matplotlib v3.8.2, https://matplotlib.org/</dc:title>
     </cc:Agent>
    </dc:creator>
   </cc:Work>
  </rdf:RDF>
 </metadata>
 <defs>
  <style type="text/css">*{stroke-linejoin: round; stroke-linecap: butt}</style>
 </defs>
 <g id="figure_1">
  <g id="patch_1">
   <path d="M 0 345.6 
L 460.8 345.6 
L 460.8 0 
L 0 0 
L 0 345.6 
z
" style="fill: none"/>
  </g>
  <g id="axes_1">
   <g id="patch_2">
    <path d="M 47.72 303.64 
L 450 303.64 
L 450 10.8 
L 47.72 10.8 
L 47.72 303.64 
z
" style="fill: none"/>
   </g>
   <g id="patch_3">
    <path d="M 187.908485 303.64 
L 187.908485 10.8 
L 248.86 10.8 
L 248.86 303.64 
z
" clip-path="url(#pcff5636d56)" style="fill: #808080; opacity: 0.25; stroke: #808080; stroke-linejoin: miter"/>
   </g>
   <g id="patch_4">
    <path d="M 309.811515 303.64 
L 309.811515 10.8 
L 370.76303 10.8 
L 370.76303 303.64 
z
" clip-path="url(#pcff5636d56)" style="fill: #808080; opacity: 0.25; stroke: #808080; stroke-linejoin: miter"/>
   </g>
   <g id="matplotlib.axis_1">
    <g id="xtick_1">
     <g id="line2d_1">
      <defs>
       <path id="mb1da274ef9" d="M 0 0 
L 0 3.5 
" style="stroke: #000000; stroke-width: 0.8"/>
      </defs>
      <g>
       <use xlink:href="#mb1da274ef9" x="66.005455" y="303.64" style="stroke: #000000; stroke-width: 0.8"/>
      </g>
     </g>
     <g id="text_1">
      <!-- 5 -->
      <g transform="translate(62.824205 318.238437) scale(0.1 -0.1)">
       <defs>
        <path id="DejaVuSans-35" d="M 691 4666 
L 3169 4666 
L 3169 4134 
L 1269 4134 
L 1269 2991 
Q 1406 3038 1543 3061 
Q 1681 3084 1819 3084 
Q 2600 3084 3056 2656 
Q 3513 2228 3513 1497 
Q 3513 744 3044 326 
Q 2575 -91 1722 -91 
Q 1428 -91 1123 -41 
Q 819 9 494 109 
L 494 744 
Q 775 591 1075 516 
Q 1375 441 1709 441 
Q 2250 441 2565 725 
Q 2881 1009 2881 1497 
Q 2881 1984 2565 2268 
Q 2250 2553 1709 2553 
Q 1456 2553 1204 2497 
Q 953 2441 691 2322 
L 691 4666 
z
" transform="scale(0.015625)"/>
       </defs>
       <use xlink:href="#DejaVuSans-35"/>
      </g>
     </g>
    </g>
    <g id="xtick_2">
     <g id="line2d_2">
      <g>
       <use xlink:href="#mb1da274ef9" x="126.95697" y="303.64" style="stroke: #000000; stroke-width: 0.8"/>
      </g>
     </g>
     <g id="text_2">
      <!-- 5.4 -->
      <g transform="translate(119.005407 318.238437) scale(0.1 -0.1)">
       <defs>
        <path id="DejaVuSans-2e" d="M 684 794 
L 1344 794 
L 1344 0 
L 684 0 
L 684 794 
z
" transform="scale(0.015625)"/>
        <path id="DejaVuSans-34" d="M 2419 4116 
L 825 1625 
L 2419 1625 
L 2419 4116 
z
M 2253 4666 
L 3047 4666 
L 3047 1625 
L 3713 1625 
L 3713 1100 
L 3047 1100 
L 3047 0 
L 2419 0 
L 2419 1100 
L 313 1100 
L 313 1709 
L 2253 4666 
z
" transform="scale(0.015625)"/>
       </defs>
       <use xlink:href="#DejaVuSans-35"/>
       <use xlink:href="#DejaVuSans-2e" x="63.623047"/>
       <use xlink:href="#DejaVuSans-34" x="95.410156"/>
      </g>
     </g>
    </g>
    <g id="xtick_3">
     <g id="line2d_3">
      <g>
       <use xlink:href="#mb1da274ef9" x="187.908485" y="303.64" style="stroke: #000000; stroke-width: 0.8"/>
      </g>
     </g>
     <g id="text_3">
      <!-- 7 -->
      <g transform="translate(184.727235 318.238437) scale(0.1 -0.1)">
       <defs>
        <path id="DejaVuSans-37" d="M 525 4666 
L 3525 4666 
L 3525 4397 
L 1831 0 
L 1172 0 
L 2766 4134 
L 525 4134 
L 525 4666 
z
" transform="scale(0.015625)"/>
       </defs>
       <use xlink:href="#DejaVuSans-37"/>
      </g>
     </g>
    </g>
    <g id="xtick_4">
     <g id="line2d_4">
      <g>
       <use xlink:href="#mb1da274ef9" x="248.86" y="303.64" style="stroke: #000000; stroke-width: 0.8"/>
      </g>
     </g>
     <g id="text_4">
      <!-- 8 -->
      <g transform="translate(245.67875 318.238437) scale(0.1 -0.1)">
       <defs>
        <path id="DejaVuSans-38" d="M 2034 2216 
Q 1584 2216 1326 1975 
Q 1069 1734 1069 1313 
Q 1069 891 1326 650 
Q 1584 409 2034 409 
Q 2484 409 2743 651 
Q 3003 894 3003 1313 
Q 3003 1734 2745 1975 
Q 2488 2216 2034 2216 
z
M 1403 2484 
Q 997 2584 770 2862 
Q 544 3141 544 3541 
Q 544 4100 942 4425 
Q 1341 4750 2034 4750 
Q 2731 4750 3128 4425 
Q 3525 4100 3525 3541 
Q 3525 3141 3298 2862 
Q 3072 2584 2669 2484 
Q 3125 2378 3379 2068 
Q 3634 1759 3634 1313 
Q 3634 634 3220 271 
Q 2806 -91 2034 -91 
Q 1263 -91 848 271 
Q 434 634 434 1313 
Q 434 1759 690 2068 
Q 947 2378 1403 2484 
z
M 1172 3481 
Q 1172 3119 1398 2916 
Q 1625 2713 2034 2713 
Q 2441 2713 2670 2916 
Q 2900 3119 2900 3481 
Q 2900 3844 2670 4047 
Q 2441 4250 2034 4250 
Q 1625 4250 1398 4047 
Q 1172 3844 1172 3481 
z
" transform="scale(0.015625)"/>
       </defs>
       <use xlink:href="#DejaVuSans-38"/>
      </g>
     </g>
    </g>
    <g id="xtick_5">
     <g id="line2d_5">
      <g>
       <use xlink:href="#mb1da274ef9" x="309.811515" y="303.64" style="stroke: #000000; stroke-width: 0.8"/>
      </g>
     </g>
     <g id="text_5">
      <!-- 10 -->
      <g transform="translate(303.449015 318.238437) scale(0.1 -0.1)">
       <defs>
        <path id="DejaVuSans-31" d="M 794 531 
L 1825 531 
L 1825 4091 
L 703 3866 
L 703 4441 
L 1819 4666 
L 2450 4666 
L 2450 531 
L 3481 531 
L 3481 0 
L 794 0 
L 794 531 
z
" transform="scale(0.015625)"/>
        <path id="DejaVuSans-30" d="M 2034 4250 
Q 1547 4250 1301 3770 
Q 1056 3291 1056 2328 
Q 1056 1369 1301 889 
Q 1547 409 2034 409 
Q 2525 409 2770 889 
Q 3016 1369 3016 2328 
Q 3016 3291 2770 3770 
Q 2525 4250 2034 4250 
z
M 2034 4750 
Q 2819 4750 3233 4129 
Q 3647 3509 3647 2328 
Q 3647 1150 3233 529 
Q 2819 -91 2034 -91 
Q 1250 -91 836 529 
Q 422 1150 422 2328 
Q 422 3509 836 4129 
Q 1250 4750 2034 4750 
z
" transform="scale(0.015625)"/>
       </defs>
       <use xlink:href="#DejaVuSans-31"/>
       <use xlink:href="#DejaVuSans-30" x="63.623047"/>
      </g>
     </g>
    </g>
    <g id="xtick_6">
     <g id="line2d_6">
      <g>
       <use xlink:href="#mb1da274ef9" x="370.76303" y="303.64" style="stroke: #000000; stroke-width: 0.8"/>
      </g>
     </g>
     <g id="text_6">
      <!-- 11 -->
      <g transform="translate(364.40053 318.238437) scale(0.1 -0.1)">
       <use xlink:href="#DejaVuSans-31"/>
       <use xlink:href="#DejaVuSans-31" x="63.623047"/>
      </g>
     </g>
    </g>
    <g id="xtick_7">
     <g id="line2d_7">
      <g>
       <use xlink:href="#mb1da274ef9" x="431.714545" y="303.64" style="stroke: #000000; stroke-width: 0.8"/>
      </g>
     </g>
     <g id="text_7">
      <!-- 15 -->
      <g transform="translate(425.352045 318.238437) scale(0.1 -0.1)">
       <use xlink:href="#DejaVuSans-31"/>
       <use xlink:href="#DejaVuSans-35" x="63.623047"/>
      </g>
     </g>
    </g>
    <g id="text_8">
     <!-- Time (day) -->
     <g transform="translate(221.938125 331.916562) scale(0.1 -0.1)">
      <defs>
       <path id="DejaVuSans-54" d="M -19 4666 
L 3928 4666 
L 3928 4134 
L 2272 4134 
L 2272 0 
L 1638 0 
L 1638 4134 
L -19 4134 
L -19 4666 
z
" transform="scale(0.015625)"/>
       <path id="DejaVuSans-69" d="M 603 3500 
L 1178 3500 
L 1178 0 
L 603 0 
L 603 3500 
z
M 603 4863 
L 1178 4863 
L 1178 4134 
L 603 4134 
L 603 4863 
z
" transform="scale(0.015625)"/>
       <path id="DejaVuSans-6d" d="M 3328 2828 
Q 3544 3216 3844 3400 
Q 4144 3584 4550 3584 
Q 5097 3584 5394 3201 
Q 5691 2819 5691 2113 
L 5691 0 
L 5113 0 
L 5113 2094 
Q 5113 2597 4934 2840 
Q 4756 3084 4391 3084 
Q 3944 3084 3684 2787 
Q 3425 2491 3425 1978 
L 3425 0 
L 2847 0 
L 2847 2094 
Q 2847 2600 2669 2842 
Q 2491 3084 2119 3084 
Q 1678 3084 1418 2786 
Q 1159 2488 1159 1978 
L 1159 0 
L 581 0 
L 581 3500 
L 1159 3500 
L 1159 2956 
Q 1356 3278 1631 3431 
Q 1906 3584 2284 3584 
Q 2666 3584 2933 3390 
Q 3200 3197 3328 2828 
z
" transform="scale(0.015625)"/>
       <path id="DejaVuSans-65" d="M 3597 1894 
L 3597 1613 
L 953 1613 
Q 991 1019 1311 708 
Q 1631 397 2203 397 
Q 2534 397 2845 478 
Q 3156 559 3463 722 
L 3463 178 
Q 3153 47 2828 -22 
Q 2503 -91 2169 -91 
Q 1331 -91 842 396 
Q 353 884 353 1716 
Q 353 2575 817 3079 
Q 1281 3584 2069 3584 
Q 2775 3584 3186 3129 
Q 3597 2675 3597 1894 
z
M 3022 2063 
Q 3016 2534 2758 2815 
Q 2500 3097 2075 3097 
Q 1594 3097 1305 2825 
Q 1016 2553 972 2059 
L 3022 2063 
z
" transform="scale(0.015625)"/>
       <path id="DejaVuSans-20" transform="scale(0.015625)"/>
       <path id="DejaVuSans-28" d="M 1984 4856 
Q 1566 4138 1362 3434 
Q 1159 2731 1159 2009 
Q 1159 1288 1364 580 
Q 1569 -128 1984 -844 
L 1484 -844 
Q 1016 -109 783 600 
Q 550 1309 550 2009 
Q 550 2706 781 3412 
Q 1013 4119 1484 4856 
L 1984 4856 
z
" transform="scale(0.015625)"/>
       <path id="DejaVuSans-64" d="M 2906 2969 
L 2906 4863 
L 3481 4863 
L 3481 0 
L 2906 0 
L 2906 525 
Q 2725 213 2448 61 
Q 2172 -91 1784 -91 
Q 1150 -91 751 415 
Q 353 922 353 1747 
Q 353 2572 751 3078 
Q 1150 3584 1784 3584 
Q 2172 3584 2448 3432 
Q 2725 3281 2906 2969 
z
M 947 1747 
Q 947 1113 1208 752 
Q 1469 391 1925 391 
Q 2381 391 2643 752 
Q 2906 1113 2906 1747 
Q 2906 2381 2643 2742 
Q 2381 3103 1925 3103 
Q 1469 3103 1208 2742 
Q 947 2381 947 1747 
z
" transform="scale(0.015625)"/>
       <path id="DejaVuSans-61" d="M 2194 1759 
Q 1497 1759 1228 1600 
Q 959 1441 959 1056 
Q 959 750 1161 570 
Q 1363 391 1709 391 
Q 2188 391 2477 730 
Q 2766 1069 2766 1631 
L 2766 1759 
L 2194 1759 
z
M 3341 1997 
L 3341 0 
L 2766 0 
L 2766 531 
Q 2569 213 2275 61 
Q 1981 -91 1556 -91 
Q 1019 -91 701 211 
Q 384 513 384 1019 
Q 384 1609 779 1909 
Q 1175 2209 1959 2209 
L 2766 2209 
L 2766 2266 
Q 2766 2663 2505 2880 
Q 2244 3097 1772 3097 
Q 1472 3097 1187 3025 
Q 903 2953 641 2809 
L 641 3341 
Q 956 3463 1253 3523 
Q 1550 3584 1831 3584 
Q 2591 3584 2966 3190 
Q 3341 2797 3341 1997 
z
" transform="scale(0.015625)"/>
       <path id="DejaVuSans-79" d="M 2059 -325 
Q 1816 -950 1584 -1140 
Q 1353 -1331 966 -1331 
L 506 -1331 
L 506 -850 
L 844 -850 
Q 1081 -850 1212 -737 
Q 1344 -625 1503 -206 
L 1606 56 
L 191 3500 
L 800 3500 
L 1894 763 
L 2988 3500 
L 3597 3500 
L 2059 -325 
z
" transform="scale(0.015625)"/>
       <path id="DejaVuSans-29" d="M 513 4856 
L 1013 4856 
Q 1481 4119 1714 3412 
Q 1947 2706 1947 2009 
Q 1947 1309 1714 600 
Q 1481 -109 1013 -844 
L 513 -844 
Q 928 -128 1133 580 
Q 1338 1288 1338 2009 
Q 1338 2731 1133 3434 
Q 928 4138 513 4856 
z
" transform="scale(0.015625)"/>
      </defs>
      <use xlink:href="#DejaVuSans-54"/>
      <use xlink:href="#DejaVuSans-69" x="57.958984"/>
      <use xlink:href="#DejaVuSans-6d" x="85.742188"/>
      <use xlink:href="#DejaVuSans-65" x="183.154297"/>
      <use xlink:href="#DejaVuSans-20" x="244.677734"/>
      <use xlink:href="#DejaVuSans-28" x="276.464844"/>
      <use xlink:href="#DejaVuSans-64" x="315.478516"/>
      <use xlink:href="#DejaVuSans-61" x="378.955078"/>
      <use xlink:href="#DejaVuSans-79" x="440.234375"/>
      <use xlink:href="#DejaVuSans-29" x="499.414062"/>
     </g>
    </g>
   </g>
   <g id="matplotlib.axis_2">
    <g id="ytick_1">
     <g id="line2d_8">
      <defs>
       <path id="m3e3fe5057f" d="M 0 0 
L -3.5 0 
" style="stroke: #000000; stroke-width: 0.8"/>
      </defs>
      <g>
       <use xlink:href="#m3e3fe5057f" x="47.72" y="269.685644" style="stroke: #000000; stroke-width: 0.8"/>
      </g>
     </g>
     <g id="text_9">
      <!-- 0.2 -->
      <g transform="translate(24.816875 273.484863) scale(0.1 -0.1)">
       <defs>
        <path id="DejaVuSans-32" d="M 1228 531 
L 3431 531 
L 3431 0 
L 469 0 
L 469 531 
Q 828 903 1448 1529 
Q 2069 2156 2228 2338 
Q 2531 2678 2651 2914 
Q 2772 3150 2772 3378 
Q 2772 3750 2511 3984 
Q 2250 4219 1831 4219 
Q 1534 4219 1204 4116 
Q 875 4013 500 3803 
L 500 4441 
Q 881 4594 1212 4672 
Q 1544 4750 1819 4750 
Q 2544 4750 2975 4387 
Q 3406 4025 3406 3419 
Q 3406 3131 3298 2873 
Q 3191 2616 2906 2266 
Q 2828 2175 2409 1742 
Q 1991 1309 1228 531 
z
" transform="scale(0.015625)"/>
       </defs>
       <use xlink:href="#DejaVuSans-30"/>
       <use xlink:href="#DejaVuSans-2e" x="63.623047"/>
       <use xlink:href="#DejaVuSans-32" x="95.410156"/>
      </g>
     </g>
    </g>
    <g id="ytick_2">
     <g id="line2d_9">
      <g>
       <use xlink:href="#m3e3fe5057f" x="47.72" y="229.780363" style="stroke: #000000; stroke-width: 0.8"/>
      </g>
     </g>
     <g id="text_10">
      <!-- 0.4 -->
      <g transform="translate(24.816875 233.579582) scale(0.1 -0.1)">
       <use xlink:href="#DejaVuSans-30"/>
       <use xlink:href="#DejaVuSans-2e" x="63.623047"/>
       <use xlink:href="#DejaVuSans-34" x="95.410156"/>
      </g>
     </g>
    </g>
    <g id="ytick_3">
     <g id="line2d_10">
      <g>
       <use xlink:href="#m3e3fe5057f" x="47.72" y="189.875081" style="stroke: #000000; stroke-width: 0.8"/>
      </g>
     </g>
     <g id="text_11">
      <!-- 0.6 -->
      <g transform="translate(24.816875 193.6743) scale(0.1 -0.1)">
       <defs>
        <path id="DejaVuSans-36" d="M 2113 2584 
Q 1688 2584 1439 2293 
Q 1191 2003 1191 1497 
Q 1191 994 1439 701 
Q 1688 409 2113 409 
Q 2538 409 2786 701 
Q 3034 994 3034 1497 
Q 3034 2003 2786 2293 
Q 2538 2584 2113 2584 
z
M 3366 4563 
L 3366 3988 
Q 3128 4100 2886 4159 
Q 2644 4219 2406 4219 
Q 1781 4219 1451 3797 
Q 1122 3375 1075 2522 
Q 1259 2794 1537 2939 
Q 1816 3084 2150 3084 
Q 2853 3084 3261 2657 
Q 3669 2231 3669 1497 
Q 3669 778 3244 343 
Q 2819 -91 2113 -91 
Q 1303 -91 875 529 
Q 447 1150 447 2328 
Q 447 3434 972 4092 
Q 1497 4750 2381 4750 
Q 2619 4750 2861 4703 
Q 3103 4656 3366 4563 
z
" transform="scale(0.015625)"/>
       </defs>
       <use xlink:href="#DejaVuSans-30"/>
       <use xlink:href="#DejaVuSans-2e" x="63.623047"/>
       <use xlink:href="#DejaVuSans-36" x="95.410156"/>
      </g>
     </g>
    </g>
    <g id="ytick_4">
     <g id="line2d_11">
      <g>
       <use xlink:href="#m3e3fe5057f" x="47.72" y="149.9698" style="stroke: #000000; stroke-width: 0.8"/>
      </g>
     </g>
     <g id="text_12">
      <!-- 0.8 -->
      <g transform="translate(24.816875 153.769019) scale(0.1 -0.1)">
       <use xlink:href="#DejaVuSans-30"/>
       <use xlink:href="#DejaVuSans-2e" x="63.623047"/>
       <use xlink:href="#DejaVuSans-38" x="95.410156"/>
      </g>
     </g>
    </g>
    <g id="ytick_5">
     <g id="line2d_12">
      <g>
       <use xlink:href="#m3e3fe5057f" x="47.72" y="110.064518" style="stroke: #000000; stroke-width: 0.8"/>
      </g>
     </g>
     <g id="text_13">
      <!-- 1.0 -->
      <g transform="translate(24.816875 113.863737) scale(0.1 -0.1)">
       <use xlink:href="#DejaVuSans-31"/>
       <use xlink:href="#DejaVuSans-2e" x="63.623047"/>
       <use xlink:href="#DejaVuSans-30" x="95.410156"/>
      </g>
     </g>
    </g>
    <g id="ytick_6">
     <g id="line2d_13">
      <g>
       <use xlink:href="#m3e3fe5057f" x="47.72" y="70.159237" style="stroke: #000000; stroke-width: 0.8"/>
      </g>
     </g>
     <g id="text_14">
      <!-- 1.2 -->
      <g transform="translate(24.816875 73.958455) scale(0.1 -0.1)">
       <use xlink:href="#DejaVuSans-31"/>
       <use xlink:href="#DejaVuSans-2e" x="63.623047"/>
       <use xlink:href="#DejaVuSans-32" x="95.410156"/>
      </g>
     </g>
    </g>
    <g id="ytick_7">
     <g id="line2d_14">
      <g>
       <use xlink:href="#m3e3fe5057f" x="47.72" y="30.253955" style="stroke: #000000; stroke-width: 0.8"/>
      </g>
     </g>
     <g id="text_15">
      <!-- 1.4 -->
      <g transform="translate(24.816875 34.053174) scale(0.1 -0.1)">
       <use xlink:href="#DejaVuSans-31"/>
       <use xlink:href="#DejaVuSans-2e" x="63.623047"/>
       <use xlink:href="#DejaVuSans-34" x="95.410156"/>
      </g>
     </g>
    </g>
    <g id="text_16">
     <!-- DB/SRB -->
     <g transform="translate(18.737188 176.26375) rotate(-90) scale(0.1 -0.1)">
      <defs>
       <path id="DejaVuSans-44" d="M 1259 4147 
L 1259 519 
L 2022 519 
Q 2988 519 3436 956 
Q 3884 1394 3884 2338 
Q 3884 3275 3436 3711 
Q 2988 4147 2022 4147 
L 1259 4147 
z
M 628 4666 
L 1925 4666 
Q 3281 4666 3915 4102 
Q 4550 3538 4550 2338 
Q 4550 1131 3912 565 
Q 3275 0 1925 0 
L 628 0 
L 628 4666 
z
" transform="scale(0.015625)"/>
       <path id="DejaVuSans-42" d="M 1259 2228 
L 1259 519 
L 2272 519 
Q 2781 519 3026 730 
Q 3272 941 3272 1375 
Q 3272 1813 3026 2020 
Q 2781 2228 2272 2228 
L 1259 2228 
z
M 1259 4147 
L 1259 2741 
L 2194 2741 
Q 2656 2741 2882 2914 
Q 3109 3088 3109 3444 
Q 3109 3797 2882 3972 
Q 2656 4147 2194 4147 
L 1259 4147 
z
M 628 4666 
L 2241 4666 
Q 2963 4666 3353 4366 
Q 3744 4066 3744 3513 
Q 3744 3084 3544 2831 
Q 3344 2578 2956 2516 
Q 3422 2416 3680 2098 
Q 3938 1781 3938 1306 
Q 3938 681 3513 340 
Q 3088 0 2303 0 
L 628 0 
L 628 4666 
z
" transform="scale(0.015625)"/>
       <path id="DejaVuSans-2f" d="M 1625 4666 
L 2156 4666 
L 531 -594 
L 0 -594 
L 1625 4666 
z
" transform="scale(0.015625)"/>
       <path id="DejaVuSans-53" d="M 3425 4513 
L 3425 3897 
Q 3066 4069 2747 4153 
Q 2428 4238 2131 4238 
Q 1616 4238 1336 4038 
Q 1056 3838 1056 3469 
Q 1056 3159 1242 3001 
Q 1428 2844 1947 2747 
L 2328 2669 
Q 3034 2534 3370 2195 
Q 3706 1856 3706 1288 
Q 3706 609 3251 259 
Q 2797 -91 1919 -91 
Q 1588 -91 1214 -16 
Q 841 59 441 206 
L 441 856 
Q 825 641 1194 531 
Q 1563 422 1919 422 
Q 2459 422 2753 634 
Q 3047 847 3047 1241 
Q 3047 1584 2836 1778 
Q 2625 1972 2144 2069 
L 1759 2144 
Q 1053 2284 737 2584 
Q 422 2884 422 3419 
Q 422 4038 858 4394 
Q 1294 4750 2059 4750 
Q 2388 4750 2728 4690 
Q 3069 4631 3425 4513 
z
" transform="scale(0.015625)"/>
       <path id="DejaVuSans-52" d="M 2841 2188 
Q 3044 2119 3236 1894 
Q 3428 1669 3622 1275 
L 4263 0 
L 3584 0 
L 2988 1197 
Q 2756 1666 2539 1819 
Q 2322 1972 1947 1972 
L 1259 1972 
L 1259 0 
L 628 0 
L 628 4666 
L 2053 4666 
Q 2853 4666 3247 4331 
Q 3641 3997 3641 3322 
Q 3641 2881 3436 2590 
Q 3231 2300 2841 2188 
z
M 1259 4147 
L 1259 2491 
L 2053 2491 
Q 2509 2491 2742 2702 
Q 2975 2913 2975 3322 
Q 2975 3731 2742 3939 
Q 2509 4147 2053 4147 
L 1259 4147 
z
" transform="scale(0.015625)"/>
      </defs>
      <use xlink:href="#DejaVuSans-44"/>
      <use xlink:href="#DejaVuSans-42" x="77.001953"/>
      <use xlink:href="#DejaVuSans-2f" x="145.605469"/>
      <use xlink:href="#DejaVuSans-53" x="179.296875"/>
      <use xlink:href="#DejaVuSans-52" x="242.773438"/>
      <use xlink:href="#DejaVuSans-42" x="312.255859"/>
     </g>
    </g>
   </g>
   <g id="line2d_15">
    <path d="M 66.005455 283.141109 
L 69.699486 283.081045 
L 73.393517 283.017138 
L 77.087548 282.949614 
L 80.781579 282.8787 
L 84.475611 282.804622 
L 88.169642 282.727606 
L 91.863673 282.647879 
L 95.557704 282.565665 
L 99.251736 282.481193 
L 102.945767 282.394687 
L 106.639798 282.306374 
L 110.333829 282.216481 
L 114.02786 282.125233 
L 117.721892 282.032856 
L 121.415923 281.939578 
L 125.109954 281.845623 
L 128.803985 281.751219 
L 132.498017 281.656592 
L 136.192048 281.561967 
L 139.886079 281.467571 
L 143.58011 281.37363 
L 147.274141 281.280371 
L 150.968173 281.188019 
L 154.662204 281.096801 
L 158.356235 281.006943 
L 162.050266 280.918671 
L 165.744298 280.832211 
L 169.438329 280.74779 
L 173.13236 280.665634 
L 176.826391 280.585969 
L 180.520422 280.509021 
L 184.214454 280.435017 
L 187.908485 280.364182 
L 191.602516 280.295522 
L 195.296547 280.22316 
L 198.990579 280.139999 
L 202.68461 280.038941 
L 206.378641 279.912888 
L 210.072672 279.754743 
L 213.766703 279.557408 
L 217.460735 279.313784 
L 221.154766 279.016776 
L 224.848797 278.659284 
L 228.542828 278.234212 
L 232.23686 277.734461 
L 235.930891 277.152935 
L 239.624922 276.482534 
L 243.318953 275.716163 
L 247.012984 274.846722 
L 250.707016 273.867644 
L 254.401047 272.784545 
L 258.095078 271.615222 
L 261.789109 270.378004 
L 265.48314 269.091219 
L 269.177172 267.773194 
L 272.871203 266.442257 
L 276.565234 265.116737 
L 280.259265 263.814962 
L 283.953297 262.55526 
L 287.647328 261.355958 
L 291.341359 260.235385 
L 295.03539 259.211868 
L 298.729421 258.303736 
L 302.423453 257.529317 
L 306.117484 256.906938 
L 309.811515 256.454928 
L 313.505546 256.186241 
L 317.199578 256.092335 
L 320.893609 256.159295 
L 324.58764 256.373204 
L 328.281671 256.720149 
L 331.975702 257.186213 
L 335.669734 257.75748 
L 339.363765 258.420036 
L 343.057796 259.159964 
L 346.751827 259.96335 
L 350.445859 260.816277 
L 354.13989 261.704831 
L 357.833921 262.615095 
L 361.527952 263.533154 
L 365.221983 264.445093 
L 368.916015 265.336996 
L 372.610046 266.194948 
L 376.304077 267.005033 
L 379.998108 267.753336 
L 383.69214 268.425941 
L 387.386171 269.008933 
L 391.080202 269.488396 
L 394.774233 269.850415 
L 398.468264 270.081074 
L 402.162296 270.166457 
L 405.856327 270.09265 
L 409.550358 269.845736 
L 413.244389 269.411801 
L 416.938421 268.776929 
L 420.632452 267.927203 
L 424.326483 266.848709 
L 428.020514 265.527532 
L 431.714545 263.949755 
" clip-path="url(#pcff5636d56)" style="fill: none; stroke: #0000ff; stroke-width: 1.5; stroke-linecap: square"/>
   </g>
   <g id="LineCollection_1">
    <path d="M 66.005455 284.225275 
L 66.005455 282.056942 
" clip-path="url(#pcff5636d56)" style="fill: none; stroke: #00008b; stroke-width: 1.5"/>
   </g>
   <g id="line2d_16">
    <defs>
     <path id="m92b9a9c294" d="M 4 0 
L -4 -0 
" style="stroke: #00008b"/>
    </defs>
    <g clip-path="url(#pcff5636d56)">
     <use xlink:href="#m92b9a9c294" x="66.005455" y="284.225275" style="fill: #00008b; stroke: #00008b"/>
    </g>
   </g>
   <g id="line2d_17">
    <g clip-path="url(#pcff5636d56)">
     <use xlink:href="#m92b9a9c294" x="66.005455" y="282.056942" style="fill: #00008b; stroke: #00008b"/>
    </g>
   </g>
   <g id="LineCollection_2">
    <path d="M 126.95697 282.971572 
L 126.95697 280.625355 
" clip-path="url(#pcff5636d56)" style="fill: none; stroke: #00008b; stroke-width: 1.5"/>
   </g>
   <g id="line2d_18">
    <g clip-path="url(#pcff5636d56)">
     <use xlink:href="#m92b9a9c294" x="126.95697" y="282.971572" style="fill: #00008b; stroke: #00008b"/>
    </g>
   </g>
   <g id="line2d_19">
    <g clip-path="url(#pcff5636d56)">
     <use xlink:href="#m92b9a9c294" x="126.95697" y="280.625355" style="fill: #00008b; stroke: #00008b"/>
    </g>
   </g>
   <g id="LineCollection_3">
    <path d="M 187.908485 281.541265 
L 187.908485 279.187099 
" clip-path="url(#pcff5636d56)" style="fill: none; stroke: #00008b; stroke-width: 1.5"/>
   </g>
   <g id="line2d_20">
    <g clip-path="url(#pcff5636d56)">
     <use xlink:href="#m92b9a9c294" x="187.908485" y="281.541265" style="fill: #00008b; stroke: #00008b"/>
    </g>
   </g>
   <g id="line2d_21">
    <g clip-path="url(#pcff5636d56)">
     <use xlink:href="#m92b9a9c294" x="187.908485" y="279.187099" style="fill: #00008b; stroke: #00008b"/>
    </g>
   </g>
   <g id="LineCollection_4">
    <path d="M 248.86 275.699712 
L 248.86 273.042553 
" clip-path="url(#pcff5636d56)" style="fill: none; stroke: #00008b; stroke-width: 1.5"/>
   </g>
   <g id="line2d_22">
    <g clip-path="url(#pcff5636d56)">
     <use xlink:href="#m92b9a9c294" x="248.86" y="275.699712" style="fill: #00008b; stroke: #00008b"/>
    </g>
   </g>
   <g id="line2d_23">
    <g clip-path="url(#pcff5636d56)">
     <use xlink:href="#m92b9a9c294" x="248.86" y="273.042553" style="fill: #00008b; stroke: #00008b"/>
    </g>
   </g>
   <g id="LineCollection_5">
    <path d="M 309.811515 257.764722 
L 309.811515 255.145134 
" clip-path="url(#pcff5636d56)" style="fill: none; stroke: #00008b; stroke-width: 1.5"/>
   </g>
   <g id="line2d_24">
    <g clip-path="url(#pcff5636d56)">
     <use xlink:href="#m92b9a9c294" x="309.811515" y="257.764722" style="fill: #00008b; stroke: #00008b"/>
    </g>
   </g>
   <g id="line2d_25">
    <g clip-path="url(#pcff5636d56)">
     <use xlink:href="#m92b9a9c294" x="309.811515" y="255.145134" style="fill: #00008b; stroke: #00008b"/>
    </g>
   </g>
   <g id="LineCollection_6">
    <path d="M 370.76303 267.107809 
L 370.76303 264.434363 
" clip-path="url(#pcff5636d56)" style="fill: none; stroke: #00008b; stroke-width: 1.5"/>
   </g>
   <g id="line2d_26">
    <g clip-path="url(#pcff5636d56)">
     <use xlink:href="#m92b9a9c294" x="370.76303" y="267.107809" style="fill: #00008b; stroke: #00008b"/>
    </g>
   </g>
   <g id="line2d_27">
    <g clip-path="url(#pcff5636d56)">
     <use xlink:href="#m92b9a9c294" x="370.76303" y="264.434363" style="fill: #00008b; stroke: #00008b"/>
    </g>
   </g>
   <g id="LineCollection_7">
    <path d="M 431.714545 265.270774 
L 431.714545 262.628736 
" clip-path="url(#pcff5636d56)" style="fill: none; stroke: #00008b; stroke-width: 1.5"/>
   </g>
   <g id="line2d_28">
    <g clip-path="url(#pcff5636d56)">
     <use xlink:href="#m92b9a9c294" x="431.714545" y="265.270774" style="fill: #00008b; stroke: #00008b"/>
    </g>
   </g>
   <g id="line2d_29">
    <g clip-path="url(#pcff5636d56)">
     <use xlink:href="#m92b9a9c294" x="431.714545" y="262.628736" style="fill: #00008b; stroke: #00008b"/>
    </g>
   </g>
   <g id="line2d_30">
    <path d="M 66.005455 283.141109 
L 69.699486 280.381468 
L 73.393517 278.124155 
L 77.087548 276.33674 
L 80.781579 274.986792 
L 84.475611 274.041883 
L 88.169642 273.469582 
L 91.863673 273.237459 
L 95.557704 273.313084 
L 99.251736 273.664027 
L 102.945767 274.257858 
L 106.639798 275.062147 
L 110.333829 276.044464 
L 114.02786 277.17238 
L 117.721892 278.413464 
L 121.415923 279.735286 
L 125.109954 281.105417 
L 128.803985 282.491426 
L 132.498017 283.860883 
L 136.192048 285.181359 
L 139.886079 286.420424 
L 143.58011 287.545647 
L 147.274141 288.524598 
L 150.968173 289.324848 
L 154.662204 289.913967 
L 158.356235 290.259525 
L 162.050266 290.329091 
L 165.744298 290.090236 
L 169.438329 289.51053 
L 173.13236 288.557542 
L 176.826391 287.198844 
L 180.520422 285.402004 
L 184.214454 283.134593 
L 187.908485 280.364182 
L 191.602516 277.065917 
L 195.296547 273.245258 
L 198.990579 268.915242 
L 202.68461 264.088906 
L 206.378641 258.779287 
L 210.072672 252.999421 
L 213.766703 246.762347 
L 217.460735 240.0811 
L 221.154766 232.968718 
L 224.848797 225.438237 
L 228.542828 217.502696 
L 232.23686 209.175129 
L 235.930891 200.468576 
L 239.624922 191.396072 
L 243.318953 181.970654 
L 247.012984 172.20536 
L 250.707016 162.114903 
L 254.401047 151.752564 
L 258.095078 141.210192 
L 261.789109 130.58131 
L 265.48314 119.959445 
L 269.177172 109.43812 
L 272.871203 99.11086 
L 276.565234 89.071192 
L 280.259265 79.412638 
L 283.953297 70.228725 
L 287.647328 61.612976 
L 291.341359 53.658918 
L 295.03539 46.460074 
L 298.729421 40.109969 
L 302.423453 34.702129 
L 306.117484 30.330079 
L 309.811515 27.087342 
L 313.505546 25.03582 
L 317.199578 24.110909 
L 320.893609 24.216384 
L 324.58764 25.256019 
L 328.281671 27.133585 
L 331.975702 29.752858 
L 335.669734 33.01761 
L 339.363765 36.831614 
L 343.057796 41.098645 
L 346.751827 45.722474 
L 350.445859 50.606876 
L 354.13989 55.655625 
L 357.833921 60.772493 
L 361.527952 65.861253 
L 365.221983 70.82568 
L 368.916015 75.569546 
L 372.610046 79.996625 
L 376.304077 84.01069 
L 379.998108 87.515515 
L 383.69214 90.414873 
L 387.386171 92.612538 
L 391.080202 94.012282 
L 394.774233 94.517879 
L 398.468264 94.033103 
L 402.162296 92.461726 
L 405.856327 89.707523 
L 409.550358 85.674267 
L 413.244389 80.26573 
L 416.938421 73.385687 
L 420.632452 64.93791 
L 424.326483 54.826174 
L 428.020514 42.954251 
L 431.714545 29.225914 
" clip-path="url(#pcff5636d56)" style="fill: none; stroke: #008000; stroke-width: 1.5; stroke-linecap: square"/>
   </g>
   <g id="LineCollection_8">
    <path d="M 66.005455 284.225275 
L 66.005455 282.056942 
" clip-path="url(#pcff5636d56)" style="fill: none; stroke: #006400; stroke-width: 1.5"/>
   </g>
   <g id="line2d_31">
    <defs>
     <path id="mfaa319466b" d="M 4 0 
L -4 -0 
" style="stroke: #006400"/>
    </defs>
    <g clip-path="url(#pcff5636d56)">
     <use xlink:href="#mfaa319466b" x="66.005455" y="284.225275" style="fill: #006400; stroke: #006400"/>
    </g>
   </g>
   <g id="line2d_32">
    <g clip-path="url(#pcff5636d56)">
     <use xlink:href="#mfaa319466b" x="66.005455" y="282.056942" style="fill: #006400; stroke: #006400"/>
    </g>
   </g>
   <g id="LineCollection_9">
    <path d="M 126.95697 282.971572 
L 126.95697 280.625355 
" clip-path="url(#pcff5636d56)" style="fill: none; stroke: #006400; stroke-width: 1.5"/>
   </g>
   <g id="line2d_33">
    <g clip-path="url(#pcff5636d56)">
     <use xlink:href="#mfaa319466b" x="126.95697" y="282.971572" style="fill: #006400; stroke: #006400"/>
    </g>
   </g>
   <g id="line2d_34">
    <g clip-path="url(#pcff5636d56)">
     <use xlink:href="#mfaa319466b" x="126.95697" y="280.625355" style="fill: #006400; stroke: #006400"/>
    </g>
   </g>
   <g id="LineCollection_10">
    <path d="M 187.908485 281.541265 
L 187.908485 279.187099 
" clip-path="url(#pcff5636d56)" style="fill: none; stroke: #006400; stroke-width: 1.5"/>
   </g>
   <g id="line2d_35">
    <g clip-path="url(#pcff5636d56)">
     <use xlink:href="#mfaa319466b" x="187.908485" y="281.541265" style="fill: #006400; stroke: #006400"/>
    </g>
   </g>
   <g id="line2d_36">
    <g clip-path="url(#pcff5636d56)">
     <use xlink:href="#mfaa319466b" x="187.908485" y="279.187099" style="fill: #006400; stroke: #006400"/>
    </g>
   </g>
   <g id="LineCollection_11">
    <path d="M 248.86 168.058451 
L 248.86 166.340216 
" clip-path="url(#pcff5636d56)" style="fill: none; stroke: #006400; stroke-width: 1.5"/>
   </g>
   <g id="line2d_37">
    <g clip-path="url(#pcff5636d56)">
     <use xlink:href="#mfaa319466b" x="248.86" y="168.058451" style="fill: #006400; stroke: #006400"/>
    </g>
   </g>
   <g id="line2d_38">
    <g clip-path="url(#pcff5636d56)">
     <use xlink:href="#mfaa319466b" x="248.86" y="166.340216" style="fill: #006400; stroke: #006400"/>
    </g>
   </g>
   <g id="LineCollection_12">
    <path d="M 309.811515 27.786882 
L 309.811515 26.387803 
" clip-path="url(#pcff5636d56)" style="fill: none; stroke: #006400; stroke-width: 1.5"/>
   </g>
   <g id="line2d_39">
    <g clip-path="url(#pcff5636d56)">
     <use xlink:href="#mfaa319466b" x="309.811515" y="27.786882" style="fill: #006400; stroke: #006400"/>
    </g>
   </g>
   <g id="line2d_40">
    <g clip-path="url(#pcff5636d56)">
     <use xlink:href="#mfaa319466b" x="309.811515" y="26.387803" style="fill: #006400; stroke: #006400"/>
    </g>
   </g>
   <g id="LineCollection_13">
    <path d="M 370.76303 78.533428 
L 370.76303 77.123968 
" clip-path="url(#pcff5636d56)" style="fill: none; stroke: #006400; stroke-width: 1.5"/>
   </g>
   <g id="line2d_41">
    <g clip-path="url(#pcff5636d56)">
     <use xlink:href="#mfaa319466b" x="370.76303" y="78.533428" style="fill: #006400; stroke: #006400"/>
    </g>
   </g>
   <g id="line2d_42">
    <g clip-path="url(#pcff5636d56)">
     <use xlink:href="#mfaa319466b" x="370.76303" y="77.123968" style="fill: #006400; stroke: #006400"/>
    </g>
   </g>
   <g id="LineCollection_14">
    <path d="M 431.714545 29.846757 
L 431.714545 28.605072 
" clip-path="url(#pcff5636d56)" style="fill: none; stroke: #006400; stroke-width: 1.5"/>
   </g>
   <g id="line2d_43">
    <g clip-path="url(#pcff5636d56)">
     <use xlink:href="#mfaa319466b" x="431.714545" y="29.846757" style="fill: #006400; stroke: #006400"/>
    </g>
   </g>
   <g id="line2d_44">
    <g clip-path="url(#pcff5636d56)">
     <use xlink:href="#mfaa319466b" x="431.714545" y="28.605072" style="fill: #006400; stroke: #006400"/>
    </g>
   </g>
   <g id="line2d_45">
    <path d="M 66.005455 170.2984 
L 69.699486 158.310753 
L 73.393517 146.994899 
L 77.087548 136.337717 
L 80.781579 126.326087 
L 84.475611 116.946886 
L 88.169642 108.186994 
L 91.863673 100.033291 
L 95.557704 92.472654 
L 99.251736 85.491963 
L 102.945767 79.078098 
L 106.639798 73.217936 
L 110.333829 67.898358 
L 114.02786 63.106241 
L 117.721892 58.828466 
L 121.415923 55.05191 
L 125.109954 51.763453 
L 128.803985 48.949974 
L 132.498017 46.598353 
L 136.192048 44.695466 
L 139.886079 43.228195 
L 143.58011 42.183418 
L 147.274141 41.548013 
L 150.968173 41.308861 
L 154.662204 41.452839 
L 158.356235 41.966827 
L 162.050266 42.837703 
L 165.744298 44.052348 
L 169.438329 45.597639 
L 173.13236 47.460456 
L 176.826391 49.627678 
L 180.520422 52.086183 
L 184.214454 54.822851 
L 187.908485 57.824561 
L 191.602516 61.071625 
L 195.296547 64.518097 
L 198.990579 68.111461 
L 202.68461 71.799203 
L 206.378641 75.528809 
L 210.072672 79.247765 
L 213.766703 82.903558 
L 217.460735 86.443672 
L 221.154766 89.815594 
L 224.848797 92.96681 
L 228.542828 95.844805 
L 232.23686 98.397065 
L 235.930891 100.571077 
L 239.624922 102.314326 
L 243.318953 103.574297 
L 247.012984 104.298478 
L 250.707016 104.437023 
L 254.401047 104.001483 
L 258.095078 103.064804 
L 261.789109 101.7026 
L 265.48314 99.990488 
L 269.177172 98.004083 
L 272.871203 95.818999 
L 276.565234 93.510854 
L 280.259265 91.15526 
L 283.953297 88.827835 
L 287.647328 86.604193 
L 291.341359 84.55995 
L 295.03539 82.770721 
L 298.729421 81.312121 
L 302.423453 80.259766 
L 306.117484 79.689271 
L 309.811515 79.676251 
L 313.505546 80.276071 
L 317.199578 81.463089 
L 320.893609 83.191413 
L 324.58764 85.415152 
L 328.281671 88.088412 
L 331.975702 91.165302 
L 335.669734 94.59993 
L 339.363765 98.346402 
L 343.057796 102.358829 
L 346.751827 106.591316 
L 350.445859 110.997972 
L 354.13989 115.532904 
L 357.833921 120.150221 
L 361.527952 124.80403 
L 365.221983 129.44844 
L 368.916015 134.037557 
L 372.610046 138.52549 
L 376.304077 142.866346 
L 379.998108 147.014234 
L 383.69214 150.923261 
L 387.386171 154.547535 
L 391.080202 157.841164 
L 394.774233 160.758255 
L 398.468264 163.252917 
L 402.162296 165.279257 
L 405.856327 166.791383 
L 409.550358 167.743403 
L 413.244389 168.089424 
L 416.938421 167.783556 
L 420.632452 166.779904 
L 424.326483 165.032578 
L 428.020514 162.495684 
L 431.714545 159.123331 
" clip-path="url(#pcff5636d56)" style="fill: none; stroke: #ff0000; stroke-width: 1.5; stroke-linecap: square"/>
   </g>
   <g id="LineCollection_15">
    <path d="M 66.005455 170.707798 
L 66.005455 169.889003 
" clip-path="url(#pcff5636d56)" style="fill: none; stroke: #8b0000; stroke-width: 1.5"/>
   </g>
   <g id="line2d_46">
    <defs>
     <path id="m22cee4924b" d="M 4 0 
L -4 -0 
" style="stroke: #8b0000"/>
    </defs>
    <g clip-path="url(#pcff5636d56)">
     <use xlink:href="#m22cee4924b" x="66.005455" y="170.707798" style="fill: #8b0000; stroke: #8b0000"/>
    </g>
   </g>
   <g id="line2d_47">
    <g clip-path="url(#pcff5636d56)">
     <use xlink:href="#m22cee4924b" x="66.005455" y="169.889003" style="fill: #8b0000; stroke: #8b0000"/>
    </g>
   </g>
   <g id="LineCollection_16">
    <path d="M 126.95697 50.565412 
L 126.95697 50.030912 
" clip-path="url(#pcff5636d56)" style="fill: none; stroke: #8b0000; stroke-width: 1.5"/>
   </g>
   <g id="line2d_48">
    <g clip-path="url(#pcff5636d56)">
     <use xlink:href="#m22cee4924b" x="126.95697" y="50.565412" style="fill: #8b0000; stroke: #8b0000"/>
    </g>
   </g>
   <g id="line2d_49">
    <g clip-path="url(#pcff5636d56)">
     <use xlink:href="#m22cee4924b" x="126.95697" y="50.030912" style="fill: #8b0000; stroke: #8b0000"/>
    </g>
   </g>
   <g id="LineCollection_17">
    <path d="M 187.908485 58.19488 
L 187.908485 57.454241 
" clip-path="url(#pcff5636d56)" style="fill: none; stroke: #8b0000; stroke-width: 1.5"/>
   </g>
   <g id="line2d_50">
    <g clip-path="url(#pcff5636d56)">
     <use xlink:href="#m22cee4924b" x="187.908485" y="58.19488" style="fill: #8b0000; stroke: #8b0000"/>
    </g>
   </g>
   <g id="line2d_51">
    <g clip-path="url(#pcff5636d56)">
     <use xlink:href="#m22cee4924b" x="187.908485" y="57.454241" style="fill: #8b0000; stroke: #8b0000"/>
    </g>
   </g>
   <g id="LineCollection_18">
    <path d="M 248.86 105.077955 
L 248.86 103.808518 
" clip-path="url(#pcff5636d56)" style="fill: none; stroke: #8b0000; stroke-width: 1.5"/>
   </g>
   <g id="line2d_52">
    <g clip-path="url(#pcff5636d56)">
     <use xlink:href="#m22cee4924b" x="248.86" y="105.077955" style="fill: #8b0000; stroke: #8b0000"/>
    </g>
   </g>
   <g id="line2d_53">
    <g clip-path="url(#pcff5636d56)">
     <use xlink:href="#m22cee4924b" x="248.86" y="103.808518" style="fill: #8b0000; stroke: #8b0000"/>
    </g>
   </g>
   <g id="LineCollection_19">
    <path d="M 309.811515 80.30773 
L 309.811515 79.044773 
" clip-path="url(#pcff5636d56)" style="fill: none; stroke: #8b0000; stroke-width: 1.5"/>
   </g>
   <g id="line2d_54">
    <g clip-path="url(#pcff5636d56)">
     <use xlink:href="#m22cee4924b" x="309.811515" y="80.30773" style="fill: #8b0000; stroke: #8b0000"/>
    </g>
   </g>
   <g id="line2d_55">
    <g clip-path="url(#pcff5636d56)">
     <use xlink:href="#m22cee4924b" x="309.811515" y="79.044773" style="fill: #8b0000; stroke: #8b0000"/>
    </g>
   </g>
   <g id="LineCollection_20">
    <path d="M 370.76303 136.884358 
L 370.76303 135.709721 
" clip-path="url(#pcff5636d56)" style="fill: none; stroke: #8b0000; stroke-width: 1.5"/>
   </g>
   <g id="line2d_56">
    <g clip-path="url(#pcff5636d56)">
     <use xlink:href="#m22cee4924b" x="370.76303" y="136.884358" style="fill: #8b0000; stroke: #8b0000"/>
    </g>
   </g>
   <g id="line2d_57">
    <g clip-path="url(#pcff5636d56)">
     <use xlink:href="#m22cee4924b" x="370.76303" y="135.709721" style="fill: #8b0000; stroke: #8b0000"/>
    </g>
   </g>
   <g id="LineCollection_21">
    <path d="M 431.714545 159.799673 
L 431.714545 158.446989 
" clip-path="url(#pcff5636d56)" style="fill: none; stroke: #8b0000; stroke-width: 1.5"/>
   </g>
   <g id="line2d_58">
    <g clip-path="url(#pcff5636d56)">
     <use xlink:href="#m22cee4924b" x="431.714545" y="159.799673" style="fill: #8b0000; stroke: #8b0000"/>
    </g>
   </g>
   <g id="line2d_59">
    <g clip-path="url(#pcff5636d56)">
     <use xlink:href="#m22cee4924b" x="431.714545" y="158.446989" style="fill: #8b0000; stroke: #8b0000"/>
    </g>
   </g>
   <g id="patch_5">
    <path d="M 47.72 303.64 
L 47.72 10.8 
" style="fill: none; stroke: #000000; stroke-width: 0.8; stroke-linejoin: miter; stroke-linecap: square"/>
   </g>
   <g id="patch_6">
    <path d="M 47.72 303.64 
L 450 303.64 
" style="fill: none; stroke: #000000; stroke-width: 0.8; stroke-linejoin: miter; stroke-linecap: square"/>
   </g>
  </g>
 </g>
 <defs>
  <clipPath id="pcff5636d56">
   <rect x="47.72" y="10.8" width="402.28" height="292.84"/>
  </clipPath>
 </defs>
</svg>
